<svg xmlns="http://www.w3.org/2000/svg" viewBox="-640 -760 1280 1120" width="1280" height="1120">
<rect x="-640" y="-760" width="1280" height="1120" fill="#ffffff"/>
<polygon points="-512.0,0.0 0.0,256.0 0.0,263.4 -512.0,7.4" fill="#a2836d" stroke="#765d50" stroke-width="1.6" stroke-linejoin="round"/>
<polygon points="0.0,256.0 512.0,0.0 512.0,7.4 0.0,263.4" fill="#765d50" stroke="#765d50" stroke-width="1.6" stroke-linejoin="round"/>
<polygon points="0.0,-256.0 512.0,0.0 0.0,256.0 -512.0,0.0" fill="#cfa278" stroke="#9b7e69" stroke-width="1.6" stroke-linejoin="round"/>
<ellipse cx="-204.8" cy="-12.8" rx="59.1" ry="29.6" fill="#b7947c" stroke="none" fill-opacity="0.35"/>
<ellipse cx="204.8" cy="0.0" rx="48.4" ry="24.2" fill="#b7947c" stroke="none" fill-opacity="0.35"/>
<ellipse cx="-140.8" cy="70.4" rx="37.6" ry="18.8" fill="#b7947c" stroke="none" fill-opacity="0.35"/>
<ellipse cx="51.2" cy="128.0" rx="43.0" ry="21.5" fill="#b7947c" stroke="none" fill-opacity="0.35"/>
<line x1="-50.8" y1="-201.6" x2="-53.8" y2="-214.6" stroke="#6e7d48" stroke-width="1.6" stroke-linecap="round"/>
<line x1="-44.8" y1="-201.6" x2="-44.8" y2="-219.6" stroke="#6e7d48" stroke-width="1.6" stroke-linecap="round"/>
<line x1="-38.8" y1="-201.6" x2="-35.8" y2="-213.6" stroke="#6e7d48" stroke-width="1.6" stroke-linecap="round"/>
<circle cx="-115.2" cy="-160.3" r="13.3" fill="#6e7d48" stroke="#1e0702" stroke-width="2.6"/>
<circle cx="-123.2" cy="-156.3" r="9.3" fill="#4d5a36" stroke="#1e0702" stroke-width="1.6"/>
<circle cx="-107.9" cy="-157.6" r="8.3" fill="#8a9a5c" stroke="#1e0702" stroke-width="1.6"/>
<line x1="-230.0" y1="-118.4" x2="-233.0" y2="-131.4" stroke="#6e7d48" stroke-width="1.6" stroke-linecap="round"/>
<line x1="-224.0" y1="-118.4" x2="-224.0" y2="-136.4" stroke="#6e7d48" stroke-width="1.6" stroke-linecap="round"/>
<line x1="-218.0" y1="-118.4" x2="-215.0" y2="-130.4" stroke="#6e7d48" stroke-width="1.6" stroke-linecap="round"/>
<line x1="-281.6" y1="-19.2" x2="-262.4" y2="-28.8" stroke="#3f1c0d" stroke-width="1.6" stroke-linecap="round"/>
<line x1="-281.6" y1="-38.4" x2="-262.4" y2="-9.6" stroke="#3f1c0d" stroke-width="1.6" stroke-linecap="round"/>
<polygon points="-281.6,-19.2 -262.4,-9.6 -262.4,-28.8 -281.6,-38.4" fill="#6d4d3d" stroke="#1e0702" stroke-width="2.6" stroke-linejoin="round"/>
<polygon points="-262.4,-9.6 -243.2,-19.2 -243.2,-38.4 -262.4,-28.8" fill="#593627" stroke="#1e0702" stroke-width="2.6" stroke-linejoin="round"/>
<polygon points="-262.4,-48.0 -243.2,-38.4 -262.4,-28.8 -281.6,-38.4" fill="#9b7c68" stroke="#1e0702" stroke-width="2.6" stroke-linejoin="round"/>
<line x1="-409.2" y1="9.6" x2="-412.2" y2="-3.4" stroke="#6e7d48" stroke-width="1.6" stroke-linecap="round"/>
<line x1="-403.2" y1="9.6" x2="-403.2" y2="-8.4" stroke="#6e7d48" stroke-width="1.6" stroke-linecap="round"/>
<line x1="-397.2" y1="9.6" x2="-394.2" y2="-2.4" stroke="#6e7d48" stroke-width="1.6" stroke-linecap="round"/>
<line x1="403.6" y1="12.8" x2="400.6" y2="-0.2" stroke="#6e7d48" stroke-width="1.6" stroke-linecap="round"/>
<line x1="409.6" y1="12.8" x2="409.6" y2="-5.2" stroke="#6e7d48" stroke-width="1.6" stroke-linecap="round"/>
<line x1="415.6" y1="12.8" x2="418.6" y2="0.8" stroke="#6e7d48" stroke-width="1.6" stroke-linecap="round"/>
<polygon points="-172.8,0.0 -170.2,-25.1 -162.4,-49.4 -149.6,-72.1 -132.4,-92.8 -111.1,-110.5 -86.4,-125.0 -59.1,-135.6 -30.0,-142.1 -0.0,-144.3 30.0,-142.1 59.1,-135.6 86.4,-125.0 111.1,-110.5 132.4,-92.8 149.6,-72.2 162.4,-49.4 170.2,-25.1 172.8,-0.0 172.8,0.0 170.2,12.2 162.4,24.1 149.6,35.2 132.4,45.3 111.1,53.9 86.4,61.0 59.1,66.2 30.0,69.3 0.0,70.4 -30.0,69.3 -59.1,66.2 -86.4,61.0 -111.1,53.9 -132.4,45.3 -149.6,35.2 -162.4,24.1 -170.2,12.2 -172.8,0.0" fill="#ddad80" stroke="#1e0702" stroke-width="5.0" stroke-linejoin="round"/>
<polygon points="-0.0,-144.3 30.0,-142.1 59.1,-135.6 86.4,-125.0 111.1,-110.5 132.4,-92.8 149.6,-72.2 162.4,-49.4 170.2,-25.1 172.8,-0.0 89.9,-0.0 88.5,-13.0 84.4,-25.7 77.8,-37.5 68.8,-48.2 57.8,-57.5 44.9,-65.0 30.7,-70.5 15.6,-73.9 -0.0,-75.0" fill="#846859" stroke="none" fill-opacity="0.42"/>
<ellipse cx="-58.8" cy="-83.7" rx="69.1" ry="43.6" fill="#ffffff" stroke="none" fill-opacity="0.22"/>
<line x1="-170.2" y1="-18.1" x2="-165.2" y2="-35.1" stroke="#6e7d48" stroke-width="1.6" stroke-linecap="round"/>
<line x1="-149.6" y1="-65.1" x2="-144.6" y2="-82.1" stroke="#6e7d48" stroke-width="1.6" stroke-linecap="round"/>
<line x1="-111.1" y1="-103.5" x2="-106.1" y2="-120.5" stroke="#6e7d48" stroke-width="1.6" stroke-linecap="round"/>
<line x1="-59.1" y1="-128.6" x2="-54.1" y2="-145.6" stroke="#6e7d48" stroke-width="1.6" stroke-linecap="round"/>
<line x1="-0.0" y1="-137.3" x2="5.0" y2="-154.3" stroke="#6e7d48" stroke-width="1.6" stroke-linecap="round"/>
<line x1="59.1" y1="-128.6" x2="64.1" y2="-145.6" stroke="#6e7d48" stroke-width="1.6" stroke-linecap="round"/>
<line x1="111.1" y1="-103.5" x2="116.1" y2="-120.5" stroke="#6e7d48" stroke-width="1.6" stroke-linecap="round"/>
<line x1="149.6" y1="-65.2" x2="154.6" y2="-82.2" stroke="#6e7d48" stroke-width="1.6" stroke-linecap="round"/>
<line x1="170.2" y1="-18.1" x2="175.2" y2="-35.1" stroke="#6e7d48" stroke-width="1.6" stroke-linecap="round"/>
<polygon points="-110.4,35.2 -30.4,35.2 -40.4,7.2 -100.4,7.2" fill="#6d4d3d" stroke="#1e0702" stroke-width="5.0" stroke-linejoin="round"/>
<line x1="-96.5" y1="12.2" x2="-96.5" y2="28.2" stroke="#6b6258" stroke-width="1.6" stroke-linecap="round"/>
<line x1="-44.3" y1="12.2" x2="-44.3" y2="28.2" stroke="#6b6258" stroke-width="1.6" stroke-linecap="round"/>
<line x1="-287.6" y1="89.6" x2="-290.6" y2="76.6" stroke="#6e7d48" stroke-width="1.6" stroke-linecap="round"/>
<line x1="-281.6" y1="89.6" x2="-281.6" y2="71.6" stroke="#6e7d48" stroke-width="1.6" stroke-linecap="round"/>
<line x1="-275.6" y1="89.6" x2="-272.6" y2="77.6" stroke="#6e7d48" stroke-width="1.6" stroke-linecap="round"/>
<line x1="269.2" y1="99.2" x2="266.2" y2="86.2" stroke="#6e7d48" stroke-width="1.6" stroke-linecap="round"/>
<line x1="275.2" y1="99.2" x2="275.2" y2="81.2" stroke="#6e7d48" stroke-width="1.6" stroke-linecap="round"/>
<line x1="281.2" y1="99.2" x2="284.2" y2="87.2" stroke="#6e7d48" stroke-width="1.6" stroke-linecap="round"/>
<polygon points="44.0,118.4 41.0,105.8 44.0,93.2 71.2,93.2 74.2,105.8 71.2,118.4" fill="#9b7c68" stroke="#1e0702" stroke-width="2.6" stroke-linejoin="round"/>
<ellipse cx="57.6" cy="93.2" rx="13.6" ry="5.7" fill="#6d4d3d" stroke="#1e0702" stroke-width="2.6"/>
<line x1="41.6" y1="110.9" x2="73.6" y2="110.9" stroke="#6b6258" stroke-width="1.6" stroke-linecap="round"/>
<line x1="41.6" y1="100.8" x2="73.6" y2="100.8" stroke="#6b6258" stroke-width="1.6" stroke-linecap="round"/>
<polygon points="37.6,118.6 34.6,106.0 37.6,93.4 64.8,93.4 67.8,106.0 64.8,118.6" fill="#9b7c68" stroke="#1e0702" stroke-width="2.6" stroke-linejoin="round"/>
<ellipse cx="51.2" cy="93.4" rx="13.6" ry="5.7" fill="#6d4d3d" stroke="#1e0702" stroke-width="2.6"/>
<line x1="35.2" y1="111.1" x2="67.2" y2="111.1" stroke="#6b6258" stroke-width="1.6" stroke-linecap="round"/>
<line x1="35.2" y1="101.0" x2="67.2" y2="101.0" stroke="#6b6258" stroke-width="1.6" stroke-linecap="round"/>
<circle cx="147.2" cy="144.6" r="11.6" fill="#6e7d48" stroke="#1e0702" stroke-width="2.6"/>
<circle cx="140.2" cy="148.1" r="8.2" fill="#4d5a36" stroke="#1e0702" stroke-width="1.6"/>
<circle cx="153.6" cy="146.9" r="7.2" fill="#8a9a5c" stroke="#1e0702" stroke-width="1.6"/>
<line x1="-114.8" y1="182.4" x2="-117.8" y2="169.4" stroke="#6e7d48" stroke-width="1.6" stroke-linecap="round"/>
<line x1="-108.8" y1="182.4" x2="-108.8" y2="164.4" stroke="#6e7d48" stroke-width="1.6" stroke-linecap="round"/>
<line x1="-102.8" y1="182.4" x2="-99.8" y2="170.4" stroke="#6e7d48" stroke-width="1.6" stroke-linecap="round"/>
<line x1="45.2" y1="204.8" x2="42.2" y2="191.8" stroke="#6e7d48" stroke-width="1.6" stroke-linecap="round"/>
<line x1="51.2" y1="204.8" x2="51.2" y2="186.8" stroke="#6e7d48" stroke-width="1.6" stroke-linecap="round"/>
<line x1="57.2" y1="204.8" x2="60.2" y2="192.8" stroke="#6e7d48" stroke-width="1.6" stroke-linecap="round"/>
</svg>
