<svg xmlns="http://www.w3.org/2000/svg" viewBox="-640 -760 1280 1120" width="1280" height="1120">
<rect x="-640" y="-760" width="1280" height="1120" fill="#ffffff"/>
<polygon points="-512.0,0.0 0.0,256.0 0.0,263.4 -512.0,7.4" fill="#947864" stroke="#1e0702" stroke-width="5.0" stroke-linejoin="round"/>
<polygon points="0.0,256.0 512.0,0.0 512.0,7.4 0.0,263.4" fill="#6c5548" stroke="#1e0702" stroke-width="5.0" stroke-linejoin="round"/>
<polygon points="0.0,-256.0 512.0,0.0 0.0,256.0 -512.0,0.0" fill="#cfa278" stroke="#1e0702" stroke-width="5.0" stroke-linejoin="round"/>
<ellipse cx="-204.8" cy="-12.8" rx="59.1" ry="29.6" fill="#b7947c" stroke="none" fill-opacity="0.35"/>
<ellipse cx="204.8" cy="0.0" rx="48.4" ry="24.2" fill="#b7947c" stroke="none" fill-opacity="0.35"/>
<ellipse cx="-140.8" cy="70.4" rx="37.6" ry="18.8" fill="#b7947c" stroke="none" fill-opacity="0.35"/>
<ellipse cx="51.2" cy="128.0" rx="43.0" ry="21.5" fill="#b7947c" stroke="none" fill-opacity="0.35"/>
<polygon points="-160.0,-131.2 230.4,64.0 -25.6,192.0 -416.0,-3.2" fill="#cfa278" stroke="#1e0702" stroke-width="2.6" stroke-linejoin="round"/>
<line x1="-185.6" y1="-118.4" x2="204.8" y2="76.8" stroke="#846859" stroke-width="1.6" stroke-linecap="round"/>
<line x1="-211.2" y1="-105.6" x2="179.2" y2="89.6" stroke="#846859" stroke-width="1.6" stroke-linecap="round"/>
<line x1="-236.8" y1="-92.8" x2="153.6" y2="102.4" stroke="#846859" stroke-width="1.6" stroke-linecap="round"/>
<line x1="-262.4" y1="-80.0" x2="128.0" y2="115.2" stroke="#846859" stroke-width="1.6" stroke-linecap="round"/>
<line x1="-288.0" y1="-67.2" x2="102.4" y2="128.0" stroke="#846859" stroke-width="1.6" stroke-linecap="round"/>
<line x1="-313.6" y1="-54.4" x2="76.8" y2="140.8" stroke="#846859" stroke-width="1.6" stroke-linecap="round"/>
<line x1="-339.2" y1="-41.6" x2="51.2" y2="153.6" stroke="#846859" stroke-width="1.6" stroke-linecap="round"/>
<line x1="-364.8" y1="-28.8" x2="25.6" y2="166.4" stroke="#846859" stroke-width="1.6" stroke-linecap="round"/>
<line x1="-390.4" y1="-16.0" x2="-0.0" y2="179.2" stroke="#846859" stroke-width="1.6" stroke-linecap="round"/>
<line x1="-50.8" y1="-201.6" x2="-53.8" y2="-214.6" stroke="#6e7d48" stroke-width="1.6" stroke-linecap="round"/>
<line x1="-44.8" y1="-201.6" x2="-44.8" y2="-219.6" stroke="#6e7d48" stroke-width="1.6" stroke-linecap="round"/>
<line x1="-38.8" y1="-201.6" x2="-35.8" y2="-213.6" stroke="#6e7d48" stroke-width="1.6" stroke-linecap="round"/>
<circle cx="-115.2" cy="-160.3" r="13.3" fill="#6e7d48" stroke="#1e0702" stroke-width="2.6"/>
<circle cx="-123.2" cy="-156.3" r="9.3" fill="#4d5a36" stroke="#1e0702" stroke-width="1.6"/>
<circle cx="-107.9" cy="-157.6" r="8.3" fill="#8a9a5c" stroke="#1e0702" stroke-width="1.6"/>
<line x1="-230.0" y1="-118.4" x2="-233.0" y2="-131.4" stroke="#6e7d48" stroke-width="1.6" stroke-linecap="round"/>
<line x1="-224.0" y1="-118.4" x2="-224.0" y2="-136.4" stroke="#6e7d48" stroke-width="1.6" stroke-linecap="round"/>
<line x1="-218.0" y1="-118.4" x2="-215.0" y2="-130.4" stroke="#6e7d48" stroke-width="1.6" stroke-linecap="round"/>
<line x1="-83.2" y1="-112.0" x2="-64.0" y2="-121.6" stroke="#3f1c0d" stroke-width="1.6" stroke-linecap="round"/>
<line x1="-83.2" y1="-131.2" x2="-64.0" y2="-102.4" stroke="#3f1c0d" stroke-width="1.6" stroke-linecap="round"/>
<polygon points="-83.2,-112.0 -64.0,-102.4 -64.0,-121.6 -83.2,-131.2" fill="#6d4d3d" stroke="#1e0702" stroke-width="2.6" stroke-linejoin="round"/>
<polygon points="-64.0,-102.4 -44.8,-112.0 -44.8,-131.2 -64.0,-121.6" fill="#593627" stroke="#1e0702" stroke-width="2.6" stroke-linejoin="round"/>
<polygon points="-64.0,-140.8 -44.8,-131.2 -64.0,-121.6 -83.2,-131.2" fill="#9b7c68" stroke="#1e0702" stroke-width="2.6" stroke-linejoin="round"/>
<line x1="12.8" y1="-83.2" x2="34.8" y2="-135.2" stroke="#6d4d3d" stroke-width="2.6" stroke-linecap="round"/>
<polygon points="88.3,-51.2 91.1,-70.4 98.9,-74.3 105.9,-74.3 113.7,-70.4 116.5,-51.2" fill="#d9b969" stroke="#1e0702" stroke-width="2.6" stroke-linejoin="round"/>
<line x1="-409.2" y1="9.6" x2="-412.2" y2="-3.4" stroke="#6e7d48" stroke-width="1.6" stroke-linecap="round"/>
<line x1="-403.2" y1="9.6" x2="-403.2" y2="-8.4" stroke="#6e7d48" stroke-width="1.6" stroke-linecap="round"/>
<line x1="-397.2" y1="9.6" x2="-394.2" y2="-2.4" stroke="#6e7d48" stroke-width="1.6" stroke-linecap="round"/>
<line x1="403.6" y1="12.8" x2="400.6" y2="-0.2" stroke="#6e7d48" stroke-width="1.6" stroke-linecap="round"/>
<line x1="409.6" y1="12.8" x2="409.6" y2="-5.2" stroke="#6e7d48" stroke-width="1.6" stroke-linecap="round"/>
<line x1="415.6" y1="12.8" x2="418.6" y2="0.8" stroke="#6e7d48" stroke-width="1.6" stroke-linecap="round"/>
<polygon points="102.4,-12.8 217.6,44.8 217.6,-18.1 102.4,-75.7" fill="#593627" stroke="#1e0702" stroke-width="5.0" stroke-linejoin="round"/>
<polygon points="217.6,44.8 307.2,0.0 307.2,-62.9 217.6,-18.1" fill="#3f1c0d" stroke="#1e0702" stroke-width="5.0" stroke-linejoin="round"/>
<polygon points="192.0,-120.5 307.2,-62.9 217.6,-18.1 102.4,-75.7" fill="#6d4d3d" stroke="#1e0702" stroke-width="5.0" stroke-linejoin="round"/>
<line x1="125.4" y1="-1.3" x2="125.4" y2="-64.2" stroke="#3f1c0d" stroke-width="1.6" stroke-linecap="round"/>
<line x1="289.3" y1="9.0" x2="289.3" y2="-53.9" stroke="#3f1c0d" stroke-width="1.6" stroke-linecap="round"/>
<line x1="148.5" y1="10.2" x2="148.5" y2="-52.7" stroke="#3f1c0d" stroke-width="1.6" stroke-linecap="round"/>
<line x1="271.4" y1="17.9" x2="271.4" y2="-45.0" stroke="#3f1c0d" stroke-width="1.6" stroke-linecap="round"/>
<line x1="171.5" y1="21.8" x2="171.5" y2="-41.1" stroke="#3f1c0d" stroke-width="1.6" stroke-linecap="round"/>
<line x1="253.4" y1="26.9" x2="253.4" y2="-36.0" stroke="#3f1c0d" stroke-width="1.6" stroke-linecap="round"/>
<line x1="194.6" y1="33.3" x2="194.6" y2="-29.6" stroke="#3f1c0d" stroke-width="1.6" stroke-linecap="round"/>
<line x1="235.5" y1="35.8" x2="235.5" y2="-27.1" stroke="#3f1c0d" stroke-width="1.6" stroke-linecap="round"/>
<polygon points="140.8,6.4 140.8,-18.6 140.8,-18.6 142.0,-27.8 145.3,-35.9 150.4,-41.9 156.7,-45.1 163.3,-45.1 169.6,-41.9 174.7,-35.9 178.0,-27.8 179.2,-18.6 179.2,-18.6 179.2,25.6" fill="#3f1c0d" stroke="#1e0702" stroke-width="2.6" stroke-linejoin="round"/>
<polyline points="140.8,-18.6 140.8,-18.6 142.0,-27.8 145.3,-35.9 150.4,-41.9 156.7,-45.1 163.3,-45.1 169.6,-41.9 174.7,-35.9 178.0,-27.8 179.2,-18.6 179.2,-18.6" fill="none" stroke="#d7b791" stroke-width="2.6" stroke-linejoin="round" stroke-linecap="round"/>
<polygon points="192.0,-138.4 343.0,-62.9 280.3,-67.1 129.3,-142.6" fill="#95583e" stroke="#1e0702" stroke-width="5.0" stroke-linejoin="round"/>
<line x1="176.3" y1="-139.5" x2="327.4" y2="-63.9" stroke="#7a4531" stroke-width="1.6" stroke-linecap="round"/>
<line x1="160.6" y1="-140.5" x2="311.7" y2="-65.0" stroke="#7a4531" stroke-width="1.6" stroke-linecap="round"/>
<line x1="145.0" y1="-141.5" x2="296.0" y2="-66.0" stroke="#7a4531" stroke-width="1.6" stroke-linecap="round"/>
<line x1="204.6" y1="-132.1" x2="141.9" y2="-136.3" stroke="#7a4531" stroke-width="1.6" stroke-linecap="round"/>
<line x1="217.2" y1="-125.8" x2="154.5" y2="-130.0" stroke="#7a4531" stroke-width="1.6" stroke-linecap="round"/>
<line x1="229.8" y1="-119.5" x2="167.0" y2="-123.7" stroke="#7a4531" stroke-width="1.6" stroke-linecap="round"/>
<line x1="242.3" y1="-113.2" x2="179.6" y2="-117.4" stroke="#7a4531" stroke-width="1.6" stroke-linecap="round"/>
<line x1="254.9" y1="-107.0" x2="192.2" y2="-111.1" stroke="#7a4531" stroke-width="1.6" stroke-linecap="round"/>
<line x1="267.5" y1="-100.7" x2="204.8" y2="-104.8" stroke="#7a4531" stroke-width="1.6" stroke-linecap="round"/>
<line x1="280.1" y1="-94.4" x2="217.4" y2="-98.5" stroke="#7a4531" stroke-width="1.6" stroke-linecap="round"/>
<line x1="292.7" y1="-88.1" x2="230.0" y2="-92.2" stroke="#7a4531" stroke-width="1.6" stroke-linecap="round"/>
<line x1="305.3" y1="-81.8" x2="242.6" y2="-85.9" stroke="#7a4531" stroke-width="1.6" stroke-linecap="round"/>
<line x1="317.9" y1="-75.5" x2="255.1" y2="-79.6" stroke="#7a4531" stroke-width="1.6" stroke-linecap="round"/>
<line x1="330.5" y1="-69.2" x2="267.7" y2="-73.4" stroke="#7a4531" stroke-width="1.6" stroke-linecap="round"/>
<polygon points="66.6,-75.7 217.6,-0.2 280.3,-67.1 129.3,-142.6" fill="#e98f5d" stroke="#1e0702" stroke-width="5.0" stroke-linejoin="round"/>
<line x1="79.1" y1="-89.1" x2="230.1" y2="-13.6" stroke="#7a4531" stroke-width="1.6" stroke-linecap="round"/>
<line x1="91.6" y1="-102.5" x2="242.7" y2="-26.9" stroke="#7a4531" stroke-width="1.6" stroke-linecap="round"/>
<line x1="104.2" y1="-115.8" x2="255.2" y2="-40.3" stroke="#7a4531" stroke-width="1.6" stroke-linecap="round"/>
<line x1="116.7" y1="-129.2" x2="267.8" y2="-53.7" stroke="#7a4531" stroke-width="1.6" stroke-linecap="round"/>
<line x1="77.3" y1="-70.3" x2="140.1" y2="-137.2" stroke="#7a4531" stroke-width="1.6" stroke-linecap="round"/>
<line x1="88.1" y1="-64.9" x2="150.9" y2="-131.8" stroke="#7a4531" stroke-width="1.6" stroke-linecap="round"/>
<line x1="98.9" y1="-59.5" x2="161.6" y2="-126.4" stroke="#7a4531" stroke-width="1.6" stroke-linecap="round"/>
<line x1="109.7" y1="-54.1" x2="172.4" y2="-121.0" stroke="#7a4531" stroke-width="1.6" stroke-linecap="round"/>
<line x1="120.5" y1="-48.7" x2="183.2" y2="-115.6" stroke="#7a4531" stroke-width="1.6" stroke-linecap="round"/>
<line x1="131.3" y1="-43.3" x2="194.0" y2="-110.2" stroke="#7a4531" stroke-width="1.6" stroke-linecap="round"/>
<line x1="142.1" y1="-37.9" x2="204.8" y2="-104.8" stroke="#7a4531" stroke-width="1.6" stroke-linecap="round"/>
<line x1="152.9" y1="-32.5" x2="215.6" y2="-99.4" stroke="#7a4531" stroke-width="1.6" stroke-linecap="round"/>
<line x1="163.7" y1="-27.2" x2="226.4" y2="-94.0" stroke="#7a4531" stroke-width="1.6" stroke-linecap="round"/>
<line x1="174.4" y1="-21.8" x2="237.2" y2="-88.6" stroke="#7a4531" stroke-width="1.6" stroke-linecap="round"/>
<line x1="185.2" y1="-16.4" x2="248.0" y2="-83.2" stroke="#7a4531" stroke-width="1.6" stroke-linecap="round"/>
<line x1="196.0" y1="-11.0" x2="258.7" y2="-77.8" stroke="#7a4531" stroke-width="1.6" stroke-linecap="round"/>
<line x1="206.8" y1="-5.6" x2="269.5" y2="-72.5" stroke="#7a4531" stroke-width="1.6" stroke-linecap="round"/>
<polygon points="192.0,-138.4 66.6,-75.7 129.3,-142.6" fill="#593627" stroke="#1e0702" stroke-width="5.0" stroke-linejoin="round"/>
<polygon points="343.0,-62.9 217.6,-0.2 280.3,-67.1" fill="#3f1c0d" stroke="#1e0702" stroke-width="5.0" stroke-linejoin="round"/>
<line x1="129.3" y1="-142.6" x2="280.3" y2="-67.1" stroke="#7a4531" stroke-width="2.6" stroke-linecap="round"/>
<line x1="-287.6" y1="89.6" x2="-290.6" y2="76.6" stroke="#6e7d48" stroke-width="1.6" stroke-linecap="round"/>
<line x1="-281.6" y1="89.6" x2="-281.6" y2="71.6" stroke="#6e7d48" stroke-width="1.6" stroke-linecap="round"/>
<line x1="-275.6" y1="89.6" x2="-272.6" y2="77.6" stroke="#6e7d48" stroke-width="1.6" stroke-linecap="round"/>
<line x1="269.2" y1="99.2" x2="266.2" y2="86.2" stroke="#6e7d48" stroke-width="1.6" stroke-linecap="round"/>
<line x1="275.2" y1="99.2" x2="275.2" y2="81.2" stroke="#6e7d48" stroke-width="1.6" stroke-linecap="round"/>
<line x1="281.2" y1="99.2" x2="284.2" y2="87.2" stroke="#6e7d48" stroke-width="1.6" stroke-linecap="round"/>
<circle cx="147.2" cy="144.6" r="11.6" fill="#6e7d48" stroke="#1e0702" stroke-width="2.6"/>
<circle cx="140.2" cy="148.1" r="8.2" fill="#4d5a36" stroke="#1e0702" stroke-width="1.6"/>
<circle cx="153.6" cy="146.9" r="7.2" fill="#8a9a5c" stroke="#1e0702" stroke-width="1.6"/>
<line x1="-114.8" y1="182.4" x2="-117.8" y2="169.4" stroke="#6e7d48" stroke-width="1.6" stroke-linecap="round"/>
<line x1="-108.8" y1="182.4" x2="-108.8" y2="164.4" stroke="#6e7d48" stroke-width="1.6" stroke-linecap="round"/>
<line x1="-102.8" y1="182.4" x2="-99.8" y2="170.4" stroke="#6e7d48" stroke-width="1.6" stroke-linecap="round"/>
<line x1="45.2" y1="204.8" x2="42.2" y2="191.8" stroke="#6e7d48" stroke-width="1.6" stroke-linecap="round"/>
<line x1="51.2" y1="204.8" x2="51.2" y2="186.8" stroke="#6e7d48" stroke-width="1.6" stroke-linecap="round"/>
<line x1="57.2" y1="204.8" x2="60.2" y2="192.8" stroke="#6e7d48" stroke-width="1.6" stroke-linecap="round"/>
</svg>
