<svg xmlns="http://www.w3.org/2000/svg" viewBox="-640 -760 1280 1120" width="1280" height="1120">
<rect x="-640" y="-760" width="1280" height="1120" fill="#ffffff"/>
<polygon points="-512.0,0.0 0.0,256.0 0.0,263.4 -512.0,7.4" fill="#947864" stroke="#1e0702" stroke-width="5.0" stroke-linejoin="round"/>
<polygon points="0.0,256.0 512.0,0.0 512.0,7.4 0.0,263.4" fill="#6c5548" stroke="#1e0702" stroke-width="5.0" stroke-linejoin="round"/>
<polygon points="0.0,-256.0 512.0,0.0 0.0,256.0 -512.0,0.0" fill="#cfa278" stroke="#1e0702" stroke-width="5.0" stroke-linejoin="round"/>
<ellipse cx="-204.8" cy="-12.8" rx="59.1" ry="29.6" fill="#b7947c" stroke="none" fill-opacity="0.35"/>
<ellipse cx="204.8" cy="0.0" rx="48.4" ry="24.2" fill="#b7947c" stroke="none" fill-opacity="0.35"/>
<ellipse cx="-140.8" cy="70.4" rx="37.6" ry="18.8" fill="#b7947c" stroke="none" fill-opacity="0.35"/>
<ellipse cx="51.2" cy="128.0" rx="43.0" ry="21.5" fill="#b7947c" stroke="none" fill-opacity="0.35"/>
<polygon points="-336.0,-65.6 -224.0,-9.6 -345.6,51.2 -457.6,-4.8" fill="#d7b791" stroke="#1e0702" stroke-width="2.6" stroke-linejoin="round"/>
<line x1="-298.7" y1="-46.9" x2="-420.3" y2="13.9" stroke="#846859" stroke-width="1.6" stroke-linecap="round"/>
<line x1="-261.3" y1="-28.3" x2="-382.9" y2="32.5" stroke="#846859" stroke-width="1.6" stroke-linecap="round"/>
<line x1="-366.4" y1="-50.4" x2="-254.4" y2="5.6" stroke="#846859" stroke-width="1.6" stroke-linecap="round"/>
<line x1="-396.8" y1="-35.2" x2="-284.8" y2="20.8" stroke="#846859" stroke-width="1.6" stroke-linecap="round"/>
<line x1="-427.2" y1="-20.0" x2="-315.2" y2="36.0" stroke="#846859" stroke-width="1.6" stroke-linecap="round"/>
<line x1="-50.8" y1="-201.6" x2="-53.8" y2="-214.6" stroke="#6e7d48" stroke-width="1.6" stroke-linecap="round"/>
<line x1="-44.8" y1="-201.6" x2="-44.8" y2="-219.6" stroke="#6e7d48" stroke-width="1.6" stroke-linecap="round"/>
<line x1="-38.8" y1="-201.6" x2="-35.8" y2="-213.6" stroke="#6e7d48" stroke-width="1.6" stroke-linecap="round"/>
<circle cx="-115.2" cy="-160.3" r="13.3" fill="#6e7d48" stroke="#1e0702" stroke-width="2.6"/>
<circle cx="-123.2" cy="-156.3" r="9.3" fill="#4d5a36" stroke="#1e0702" stroke-width="1.6"/>
<circle cx="-107.9" cy="-157.6" r="8.3" fill="#8a9a5c" stroke="#1e0702" stroke-width="1.6"/>
<line x1="-70.0" y1="-121.6" x2="-73.0" y2="-134.6" stroke="#6e7d48" stroke-width="1.6" stroke-linecap="round"/>
<line x1="-64.0" y1="-121.6" x2="-64.0" y2="-139.6" stroke="#6e7d48" stroke-width="1.6" stroke-linecap="round"/>
<line x1="-58.0" y1="-121.6" x2="-55.0" y2="-133.6" stroke="#6e7d48" stroke-width="1.6" stroke-linecap="round"/>
<line x1="-230.0" y1="-118.4" x2="-233.0" y2="-131.4" stroke="#6e7d48" stroke-width="1.6" stroke-linecap="round"/>
<line x1="-224.0" y1="-118.4" x2="-224.0" y2="-136.4" stroke="#6e7d48" stroke-width="1.6" stroke-linecap="round"/>
<line x1="-218.0" y1="-118.4" x2="-215.0" y2="-130.4" stroke="#6e7d48" stroke-width="1.6" stroke-linecap="round"/>
<line x1="-198.4" y1="-22.4" x2="-198.4" y2="-62.4" stroke="#593627" stroke-width="2.6" stroke-linecap="round"/>
<polygon points="-220.4,-58.4 -176.4,-68.4 -178.4,-76.4 -222.4,-66.4" fill="#6d4d3d" stroke="#1e0702" stroke-width="2.6" stroke-linejoin="round"/>
<polygon points="-216.4,-64.4 -182.4,-72.4 -183.4,-77.4 -217.4,-69.4" fill="#fadfba" stroke="#1e0702" stroke-width="1.6" stroke-linejoin="round"/>
<line x1="-409.2" y1="9.6" x2="-412.2" y2="-3.4" stroke="#6e7d48" stroke-width="1.6" stroke-linecap="round"/>
<line x1="-403.2" y1="9.6" x2="-403.2" y2="-8.4" stroke="#6e7d48" stroke-width="1.6" stroke-linecap="round"/>
<line x1="-397.2" y1="9.6" x2="-394.2" y2="-2.4" stroke="#6e7d48" stroke-width="1.6" stroke-linecap="round"/>
<line x1="403.6" y1="12.8" x2="400.6" y2="-0.2" stroke="#6e7d48" stroke-width="1.6" stroke-linecap="round"/>
<line x1="409.6" y1="12.8" x2="409.6" y2="-5.2" stroke="#6e7d48" stroke-width="1.6" stroke-linecap="round"/>
<line x1="415.6" y1="12.8" x2="418.6" y2="0.8" stroke="#6e7d48" stroke-width="1.6" stroke-linecap="round"/>
<polygon points="-84.8,10.4 4.8,55.2 4.8,31.5 -84.8,-13.3" fill="#ad8c75" stroke="#1e0702" stroke-width="2.6" stroke-linejoin="round"/>
<polygon points="4.8,55.2 22.4,46.4 22.4,22.7 4.8,31.5" fill="#846859" stroke="#1e0702" stroke-width="2.6" stroke-linejoin="round"/>
<polygon points="-67.2,-22.1 22.4,22.7 4.8,31.5 -84.8,-13.3" fill="#d7b791" stroke="#1e0702" stroke-width="2.6" stroke-linejoin="round"/>
<polygon points="-102.4,19.2 -12.8,64.0 -12.8,52.2 -102.4,7.4" fill="#ad8c75" stroke="#1e0702" stroke-width="2.6" stroke-linejoin="round"/>
<polygon points="-12.8,64.0 4.8,55.2 4.8,43.4 -12.8,52.2" fill="#846859" stroke="#1e0702" stroke-width="2.6" stroke-linejoin="round"/>
<polygon points="-84.8,-1.4 4.8,43.4 -12.8,52.2 -102.4,7.4" fill="#d7b791" stroke="#1e0702" stroke-width="2.6" stroke-linejoin="round"/>
<polygon points="188.2,40.3 245.8,69.1 245.8,1.0 188.2,-27.8" fill="#6d4d3d" stroke="#1e0702" stroke-width="2.6" stroke-linejoin="round"/>
<polygon points="245.8,69.1 266.2,58.9 266.2,-9.2 245.8,1.0" fill="#593627" stroke="#1e0702" stroke-width="2.6" stroke-linejoin="round"/>
<polygon points="208.6,-38.0 266.2,-9.2 245.8,1.0 188.2,-27.8" fill="#9b7c68" stroke="#1e0702" stroke-width="2.6" stroke-linejoin="round"/>
<line x1="208.6" y1="15.3" x2="266.2" y2="44.1" stroke="#3f1c0d" stroke-width="1.6" stroke-linecap="round"/>
<polygon points="211.2,18.1 225.2,18.1 225.2,-1.9 211.2,-1.9" fill="#3f1c0d" stroke="#1e0702" stroke-width="1.6" stroke-linejoin="round"/>
<polygon points="230.4,27.7 244.4,27.7 244.4,7.7 230.4,7.7" fill="#3f1c0d" stroke="#1e0702" stroke-width="1.6" stroke-linejoin="round"/>
<polygon points="249.6,37.3 263.6,37.3 263.6,17.3 249.6,17.3" fill="#3f1c0d" stroke="#1e0702" stroke-width="1.6" stroke-linejoin="round"/>
<circle cx="218.2" cy="8.1" r="4.5" fill="#fadfba" stroke="#1e0702" stroke-width="1.6"/>
<circle cx="237.4" cy="17.7" r="4.5" fill="#fadfba" stroke="#1e0702" stroke-width="1.6"/>
<circle cx="256.6" cy="27.3" r="4.5" fill="#fadfba" stroke="#1e0702" stroke-width="1.6"/>
<line x1="208.6" y1="-9.9" x2="266.2" y2="18.9" stroke="#3f1c0d" stroke-width="1.6" stroke-linecap="round"/>
<polygon points="211.2,-7.1 225.2,-7.1 225.2,-27.1 211.2,-27.1" fill="#3f1c0d" stroke="#1e0702" stroke-width="1.6" stroke-linejoin="round"/>
<polygon points="230.4,2.5 244.4,2.5 244.4,-17.5 230.4,-17.5" fill="#3f1c0d" stroke="#1e0702" stroke-width="1.6" stroke-linejoin="round"/>
<polygon points="249.6,12.1 263.6,12.1 263.6,-7.9 249.6,-7.9" fill="#3f1c0d" stroke="#1e0702" stroke-width="1.6" stroke-linejoin="round"/>
<circle cx="218.2" cy="-17.1" r="4.5" fill="#fadfba" stroke="#1e0702" stroke-width="1.6"/>
<circle cx="237.4" cy="-7.5" r="4.5" fill="#fadfba" stroke="#1e0702" stroke-width="1.6"/>
<circle cx="256.6" cy="2.1" r="4.5" fill="#fadfba" stroke="#1e0702" stroke-width="1.6"/>
<polygon points="-121.6,-28.8 83.2,73.6 83.2,51.4 -121.6,-51.0" fill="#ad8c75" stroke="#1e0702" stroke-width="5.0" stroke-linejoin="round"/>
<polygon points="83.2,73.6 230.4,0.0 230.4,-22.2 83.2,51.4" fill="#846859" stroke="#1e0702" stroke-width="5.0" stroke-linejoin="round"/>
<polygon points="25.6,-124.6 230.4,-22.2 83.2,51.4 -121.6,-51.0" fill="#d7b791" stroke="#1e0702" stroke-width="5.0" stroke-linejoin="round"/>
<line x1="-70.4" y1="-3.2" x2="-70.4" y2="-25.4" stroke="#745b4e" stroke-width="1.6" stroke-linecap="round"/>
<line x1="193.6" y1="18.4" x2="193.6" y2="-3.8" stroke="#745b4e" stroke-width="1.6" stroke-linecap="round"/>
<line x1="-19.2" y1="22.4" x2="-19.2" y2="0.2" stroke="#745b4e" stroke-width="1.6" stroke-linecap="round"/>
<line x1="156.8" y1="36.8" x2="156.8" y2="14.6" stroke="#745b4e" stroke-width="1.6" stroke-linecap="round"/>
<line x1="32.0" y1="48.0" x2="32.0" y2="25.8" stroke="#745b4e" stroke-width="1.6" stroke-linecap="round"/>
<line x1="120.0" y1="55.2" x2="120.0" y2="33.0" stroke="#745b4e" stroke-width="1.6" stroke-linecap="round"/>
<polygon points="-51.2,-67.0 115.2,16.2 115.2,-61.5 -51.2,-144.7" fill="#e7ccab" stroke="#1e0702" stroke-width="5.0" stroke-linejoin="round"/>
<polygon points="115.2,16.2 198.4,-25.4 198.4,-103.1 115.2,-61.5" fill="#cfa278" stroke="#1e0702" stroke-width="5.0" stroke-linejoin="round"/>
<polygon points="32.0,-186.3 198.4,-103.1 115.2,-61.5 -51.2,-144.7" fill="#fadfba" stroke="#1e0702" stroke-width="5.0" stroke-linejoin="round"/>
<line x1="-51.2" y1="-92.9" x2="115.2" y2="-9.7" stroke="#765d50" stroke-width="1.6" stroke-linecap="round"/>
<line x1="115.2" y1="-9.7" x2="198.4" y2="-51.3" stroke="#765d50" stroke-width="1.6" stroke-linecap="round"/>
<line x1="-51.2" y1="-118.8" x2="115.2" y2="-35.6" stroke="#765d50" stroke-width="1.6" stroke-linecap="round"/>
<line x1="115.2" y1="-35.6" x2="198.4" y2="-77.2" stroke="#765d50" stroke-width="1.6" stroke-linecap="round"/>
<polygon points="13.4,-34.7 13.4,-60.0 13.4,-60.0 14.6,-69.2 17.8,-77.3 22.7,-83.3 28.8,-86.5 35.2,-86.5 41.3,-83.3 46.2,-77.3 49.4,-69.2 50.6,-60.0 50.6,-60.0 50.6,-16.1" fill="#3f1c0d" stroke="#1e0702" stroke-width="2.6" stroke-linejoin="round"/>
<polyline points="13.4,-60.0 13.4,-60.0 14.6,-69.2 17.8,-77.3 22.7,-83.3 28.8,-86.5 35.2,-86.5 41.3,-83.3 46.2,-77.3 49.4,-69.2 50.6,-60.0 50.6,-60.0" fill="none" stroke="#d7b791" stroke-width="2.6" stroke-linejoin="round" stroke-linecap="round"/>
<polygon points="-88.3,-41.4 -52.5,-41.4 -52.5,-119.1 -88.3,-119.1" fill="#ad8c75" stroke="#1e0702" stroke-width="2.6" stroke-linejoin="round"/>
<polygon points="-70.4,-41.4 -52.5,-41.4 -52.5,-119.1 -70.4,-119.1" fill="#846859" stroke="none"/>
<line x1="-78.5" y1="-45.4" x2="-78.5" y2="-113.1" stroke="#8d725f" stroke-width="1.6" stroke-linecap="round"/>
<line x1="-68.6" y1="-45.4" x2="-68.6" y2="-113.1" stroke="#8d725f" stroke-width="1.6" stroke-linecap="round"/>
<ellipse cx="-70.4" cy="-119.1" rx="18.8" ry="7.5" fill="#d7b791" stroke="#1e0702" stroke-width="2.6"/>
<polygon points="-93.7,-122.7 -47.1,-122.7 -47.1,-132.5 -93.7,-132.5" fill="#d7b791" stroke="#1e0702" stroke-width="2.6" stroke-linejoin="round"/>
<polygon points="-92.8,-37.8 -48.0,-37.8 -48.0,-46.8 -92.8,-46.8" fill="#ad8c75" stroke="#1e0702" stroke-width="2.6" stroke-linejoin="round"/>
<polygon points="-17.9,-6.2 17.9,-6.2 17.9,-83.9 -17.9,-83.9" fill="#ad8c75" stroke="#1e0702" stroke-width="2.6" stroke-linejoin="round"/>
<polygon points="0.0,-6.2 17.9,-6.2 17.9,-83.9 0.0,-83.9" fill="#846859" stroke="none"/>
<line x1="-8.1" y1="-10.2" x2="-8.1" y2="-77.9" stroke="#8d725f" stroke-width="1.6" stroke-linecap="round"/>
<line x1="1.8" y1="-10.2" x2="1.8" y2="-77.9" stroke="#8d725f" stroke-width="1.6" stroke-linecap="round"/>
<ellipse cx="0.0" cy="-83.9" rx="18.8" ry="7.5" fill="#d7b791" stroke="#1e0702" stroke-width="2.6"/>
<polygon points="-23.3,-87.5 23.3,-87.5 23.3,-97.3 -23.3,-97.3" fill="#d7b791" stroke="#1e0702" stroke-width="2.6" stroke-linejoin="round"/>
<polygon points="-22.4,-2.6 22.4,-2.6 22.4,-11.6 -22.4,-11.6" fill="#ad8c75" stroke="#1e0702" stroke-width="2.6" stroke-linejoin="round"/>
<polygon points="52.5,29.0 88.3,29.0 88.3,-48.7 52.5,-48.7" fill="#ad8c75" stroke="#1e0702" stroke-width="2.6" stroke-linejoin="round"/>
<polygon points="70.4,29.0 88.3,29.0 88.3,-48.7 70.4,-48.7" fill="#846859" stroke="none"/>
<line x1="62.3" y1="25.0" x2="62.3" y2="-42.7" stroke="#8d725f" stroke-width="1.6" stroke-linecap="round"/>
<line x1="72.2" y1="25.0" x2="72.2" y2="-42.7" stroke="#8d725f" stroke-width="1.6" stroke-linecap="round"/>
<ellipse cx="70.4" cy="-48.7" rx="18.8" ry="7.5" fill="#d7b791" stroke="#1e0702" stroke-width="2.6"/>
<polygon points="47.1,-52.3 93.7,-52.3 93.7,-62.1 47.1,-62.1" fill="#d7b791" stroke="#1e0702" stroke-width="2.6" stroke-linejoin="round"/>
<polygon points="48.0,32.6 92.8,32.6 92.8,23.6 48.0,23.6" fill="#ad8c75" stroke="#1e0702" stroke-width="2.6" stroke-linejoin="round"/>
<polygon points="32.0,-204.2 234.2,-103.1 152.3,-99.1 -49.9,-200.3" fill="#95583e" stroke="#1e0702" stroke-width="5.0" stroke-linejoin="round"/>
<line x1="11.5" y1="-203.2" x2="213.8" y2="-102.1" stroke="#7a4531" stroke-width="1.6" stroke-linecap="round"/>
<line x1="-9.0" y1="-202.2" x2="193.3" y2="-101.1" stroke="#7a4531" stroke-width="1.6" stroke-linecap="round"/>
<line x1="-29.4" y1="-201.2" x2="172.8" y2="-100.1" stroke="#7a4531" stroke-width="1.6" stroke-linecap="round"/>
<line x1="48.9" y1="-195.8" x2="-33.1" y2="-191.8" stroke="#7a4531" stroke-width="1.6" stroke-linecap="round"/>
<line x1="65.7" y1="-187.4" x2="-16.2" y2="-183.4" stroke="#7a4531" stroke-width="1.6" stroke-linecap="round"/>
<line x1="82.6" y1="-178.9" x2="0.6" y2="-175.0" stroke="#7a4531" stroke-width="1.6" stroke-linecap="round"/>
<line x1="99.4" y1="-170.5" x2="17.5" y2="-166.6" stroke="#7a4531" stroke-width="1.6" stroke-linecap="round"/>
<line x1="116.3" y1="-162.1" x2="34.3" y2="-158.1" stroke="#7a4531" stroke-width="1.6" stroke-linecap="round"/>
<line x1="133.1" y1="-153.7" x2="51.2" y2="-149.7" stroke="#7a4531" stroke-width="1.6" stroke-linecap="round"/>
<line x1="150.0" y1="-145.2" x2="68.1" y2="-141.3" stroke="#7a4531" stroke-width="1.6" stroke-linecap="round"/>
<line x1="166.8" y1="-136.8" x2="84.9" y2="-132.8" stroke="#7a4531" stroke-width="1.6" stroke-linecap="round"/>
<line x1="183.7" y1="-128.4" x2="101.8" y2="-124.4" stroke="#7a4531" stroke-width="1.6" stroke-linecap="round"/>
<line x1="200.5" y1="-120.0" x2="118.6" y2="-116.0" stroke="#7a4531" stroke-width="1.6" stroke-linecap="round"/>
<line x1="217.4" y1="-111.5" x2="135.5" y2="-107.6" stroke="#7a4531" stroke-width="1.6" stroke-linecap="round"/>
<polygon points="-131.8,-122.3 70.4,-21.2 152.3,-99.1 -49.9,-200.3" fill="#e98f5d" stroke="#1e0702" stroke-width="5.0" stroke-linejoin="round"/>
<line x1="-115.5" y1="-137.9" x2="86.8" y2="-36.8" stroke="#7a4531" stroke-width="1.6" stroke-linecap="round"/>
<line x1="-99.1" y1="-153.5" x2="103.2" y2="-52.4" stroke="#7a4531" stroke-width="1.6" stroke-linecap="round"/>
<line x1="-82.7" y1="-169.1" x2="119.6" y2="-68.0" stroke="#7a4531" stroke-width="1.6" stroke-linecap="round"/>
<line x1="-66.3" y1="-184.7" x2="135.9" y2="-83.5" stroke="#7a4531" stroke-width="1.6" stroke-linecap="round"/>
<line x1="-117.4" y1="-115.1" x2="-35.5" y2="-193.0" stroke="#7a4531" stroke-width="1.6" stroke-linecap="round"/>
<line x1="-102.9" y1="-107.9" x2="-21.0" y2="-185.8" stroke="#7a4531" stroke-width="1.6" stroke-linecap="round"/>
<line x1="-88.5" y1="-100.6" x2="-6.6" y2="-178.6" stroke="#7a4531" stroke-width="1.6" stroke-linecap="round"/>
<line x1="-74.1" y1="-93.4" x2="7.9" y2="-171.4" stroke="#7a4531" stroke-width="1.6" stroke-linecap="round"/>
<line x1="-59.6" y1="-86.2" x2="22.3" y2="-164.1" stroke="#7a4531" stroke-width="1.6" stroke-linecap="round"/>
<line x1="-45.2" y1="-79.0" x2="36.8" y2="-156.9" stroke="#7a4531" stroke-width="1.6" stroke-linecap="round"/>
<line x1="-30.7" y1="-71.7" x2="51.2" y2="-149.7" stroke="#7a4531" stroke-width="1.6" stroke-linecap="round"/>
<line x1="-16.3" y1="-64.5" x2="65.6" y2="-142.5" stroke="#7a4531" stroke-width="1.6" stroke-linecap="round"/>
<line x1="-1.8" y1="-57.3" x2="80.1" y2="-135.3" stroke="#7a4531" stroke-width="1.6" stroke-linecap="round"/>
<line x1="12.6" y1="-50.1" x2="94.5" y2="-128.0" stroke="#7a4531" stroke-width="1.6" stroke-linecap="round"/>
<line x1="27.1" y1="-42.8" x2="109.0" y2="-120.8" stroke="#7a4531" stroke-width="1.6" stroke-linecap="round"/>
<line x1="41.5" y1="-35.6" x2="123.4" y2="-113.6" stroke="#7a4531" stroke-width="1.6" stroke-linecap="round"/>
<line x1="56.0" y1="-28.4" x2="137.9" y2="-106.4" stroke="#7a4531" stroke-width="1.6" stroke-linecap="round"/>
<polygon points="32.0,-204.2 -131.8,-122.3 -49.9,-200.3" fill="#e7ccab" stroke="#1e0702" stroke-width="5.0" stroke-linejoin="round"/>
<polygon points="234.2,-103.1 70.4,-21.2 152.3,-99.1" fill="#cfa278" stroke="#1e0702" stroke-width="5.0" stroke-linejoin="round"/>
<line x1="-49.9" y1="-200.3" x2="152.3" y2="-99.1" stroke="#7a4531" stroke-width="2.6" stroke-linecap="round"/>
<line x1="-287.6" y1="89.6" x2="-290.6" y2="76.6" stroke="#6e7d48" stroke-width="1.6" stroke-linecap="round"/>
<line x1="-281.6" y1="89.6" x2="-281.6" y2="71.6" stroke="#6e7d48" stroke-width="1.6" stroke-linecap="round"/>
<line x1="-275.6" y1="89.6" x2="-272.6" y2="77.6" stroke="#6e7d48" stroke-width="1.6" stroke-linecap="round"/>
<line x1="269.2" y1="99.2" x2="266.2" y2="86.2" stroke="#6e7d48" stroke-width="1.6" stroke-linecap="round"/>
<line x1="275.2" y1="99.2" x2="275.2" y2="81.2" stroke="#6e7d48" stroke-width="1.6" stroke-linecap="round"/>
<line x1="281.2" y1="99.2" x2="284.2" y2="87.2" stroke="#6e7d48" stroke-width="1.6" stroke-linecap="round"/>
<polygon points="83.2,105.6 71.7,92.3 74.6,82.5 79.7,76.0 86.7,76.0 91.8,82.5 94.7,92.3" fill="#c4724c" stroke="#1e0702" stroke-width="2.6" stroke-linejoin="round"/>
<polyline points="78.6,80.0 70.5,84.3 74.9,90.8" fill="none" stroke="#95583e" stroke-width="1.6" stroke-linejoin="round" stroke-linecap="round"/>
<polyline points="87.8,80.0 95.9,84.3 91.5,90.8" fill="none" stroke="#95583e" stroke-width="1.6" stroke-linejoin="round" stroke-linecap="round"/>
<circle cx="38.4" cy="72.3" r="16.6" fill="#6e7d48" stroke="#1e0702" stroke-width="2.6"/>
<circle cx="28.4" cy="77.3" r="11.6" fill="#4d5a36" stroke="#1e0702" stroke-width="1.6"/>
<circle cx="47.6" cy="75.6" r="10.3" fill="#8a9a5c" stroke="#1e0702" stroke-width="1.6"/>
<circle cx="147.2" cy="144.6" r="11.6" fill="#6e7d48" stroke="#1e0702" stroke-width="2.6"/>
<circle cx="140.2" cy="148.1" r="8.2" fill="#4d5a36" stroke="#1e0702" stroke-width="1.6"/>
<circle cx="153.6" cy="146.9" r="7.2" fill="#8a9a5c" stroke="#1e0702" stroke-width="1.6"/>
<line x1="-114.8" y1="182.4" x2="-117.8" y2="169.4" stroke="#6e7d48" stroke-width="1.6" stroke-linecap="round"/>
<line x1="-108.8" y1="182.4" x2="-108.8" y2="164.4" stroke="#6e7d48" stroke-width="1.6" stroke-linecap="round"/>
<line x1="-102.8" y1="182.4" x2="-99.8" y2="170.4" stroke="#6e7d48" stroke-width="1.6" stroke-linecap="round"/>
<line x1="45.2" y1="204.8" x2="42.2" y2="191.8" stroke="#6e7d48" stroke-width="1.6" stroke-linecap="round"/>
<line x1="51.2" y1="204.8" x2="51.2" y2="186.8" stroke="#6e7d48" stroke-width="1.6" stroke-linecap="round"/>
<line x1="57.2" y1="204.8" x2="60.2" y2="192.8" stroke="#6e7d48" stroke-width="1.6" stroke-linecap="round"/>
</svg>
