<svg xmlns="http://www.w3.org/2000/svg" viewBox="-640 -760 1280 1120" width="1280" height="1120">
<rect x="-640" y="-760" width="1280" height="1120" fill="#ffffff"/>
<polygon points="-512.0,0.0 0.0,256.0 0.0,263.4 -512.0,7.4" fill="#947864" stroke="#1e0702" stroke-width="5.0" stroke-linejoin="round"/>
<polygon points="0.0,256.0 512.0,0.0 512.0,7.4 0.0,263.4" fill="#6c5548" stroke="#1e0702" stroke-width="5.0" stroke-linejoin="round"/>
<polygon points="0.0,-256.0 512.0,0.0 0.0,256.0 -512.0,0.0" fill="#cfa278" stroke="#1e0702" stroke-width="5.0" stroke-linejoin="round"/>
<ellipse cx="-204.8" cy="-12.8" rx="59.1" ry="29.6" fill="#b7947c" stroke="none" fill-opacity="0.35"/>
<ellipse cx="204.8" cy="0.0" rx="48.4" ry="24.2" fill="#b7947c" stroke="none" fill-opacity="0.35"/>
<ellipse cx="-140.8" cy="70.4" rx="37.6" ry="18.8" fill="#b7947c" stroke="none" fill-opacity="0.35"/>
<ellipse cx="51.2" cy="128.0" rx="43.0" ry="21.5" fill="#b7947c" stroke="none" fill-opacity="0.35"/>
<polygon points="-336.0,-65.6 -224.0,-9.6 -345.6,51.2 -457.6,-4.8" fill="#d7b791" stroke="#1e0702" stroke-width="2.6" stroke-linejoin="round"/>
<line x1="-298.7" y1="-46.9" x2="-420.3" y2="13.9" stroke="#846859" stroke-width="1.6" stroke-linecap="round"/>
<line x1="-261.3" y1="-28.3" x2="-382.9" y2="32.5" stroke="#846859" stroke-width="1.6" stroke-linecap="round"/>
<line x1="-366.4" y1="-50.4" x2="-254.4" y2="5.6" stroke="#846859" stroke-width="1.6" stroke-linecap="round"/>
<line x1="-396.8" y1="-35.2" x2="-284.8" y2="20.8" stroke="#846859" stroke-width="1.6" stroke-linecap="round"/>
<line x1="-427.2" y1="-20.0" x2="-315.2" y2="36.0" stroke="#846859" stroke-width="1.6" stroke-linecap="round"/>
<line x1="-50.8" y1="-201.6" x2="-53.8" y2="-214.6" stroke="#6e7d48" stroke-width="1.6" stroke-linecap="round"/>
<line x1="-44.8" y1="-201.6" x2="-44.8" y2="-219.6" stroke="#6e7d48" stroke-width="1.6" stroke-linecap="round"/>
<line x1="-38.8" y1="-201.6" x2="-35.8" y2="-213.6" stroke="#6e7d48" stroke-width="1.6" stroke-linecap="round"/>
<circle cx="-115.2" cy="-160.3" r="13.3" fill="#6e7d48" stroke="#1e0702" stroke-width="2.6"/>
<circle cx="-123.2" cy="-156.3" r="9.3" fill="#4d5a36" stroke="#1e0702" stroke-width="1.6"/>
<circle cx="-107.9" cy="-157.6" r="8.3" fill="#8a9a5c" stroke="#1e0702" stroke-width="1.6"/>
<line x1="-70.0" y1="-140.8" x2="-73.0" y2="-153.8" stroke="#6e7d48" stroke-width="1.6" stroke-linecap="round"/>
<line x1="-64.0" y1="-140.8" x2="-64.0" y2="-158.8" stroke="#6e7d48" stroke-width="1.6" stroke-linecap="round"/>
<line x1="-58.0" y1="-140.8" x2="-55.0" y2="-152.8" stroke="#6e7d48" stroke-width="1.6" stroke-linecap="round"/>
<line x1="-230.0" y1="-118.4" x2="-233.0" y2="-131.4" stroke="#6e7d48" stroke-width="1.6" stroke-linecap="round"/>
<line x1="-224.0" y1="-118.4" x2="-224.0" y2="-136.4" stroke="#6e7d48" stroke-width="1.6" stroke-linecap="round"/>
<line x1="-218.0" y1="-118.4" x2="-215.0" y2="-130.4" stroke="#6e7d48" stroke-width="1.6" stroke-linecap="round"/>
<ellipse cx="-102.4" cy="-115.2" rx="30.7" ry="15.4" fill="#3f1c0d" stroke="#1e0702" stroke-width="2.6"/>
<line x1="-116.5" y1="-122.3" x2="-116.5" y2="-174.3" stroke="#6d4d3d" stroke-width="2.6" stroke-linecap="round"/>
<line x1="-88.3" y1="-108.2" x2="-88.3" y2="-160.2" stroke="#6d4d3d" stroke-width="2.6" stroke-linecap="round"/>
<line x1="-116.5" y1="-174.3" x2="-88.3" y2="-160.2" stroke="#6d4d3d" stroke-width="2.6" stroke-linecap="round"/>
<polygon points="-138.2,-96.0 -102.4,-78.1 -102.4,-97.3 -138.2,-115.2" fill="#ad8c75" stroke="#1e0702" stroke-width="2.6" stroke-linejoin="round"/>
<polygon points="-102.4,-78.1 -66.6,-96.0 -66.6,-115.2 -102.4,-97.3" fill="#846859" stroke="#1e0702" stroke-width="2.6" stroke-linejoin="round"/>
<polygon points="-102.4,-133.2 -66.6,-115.2 -102.4,-97.3 -138.2,-115.2" fill="#d7b791" stroke="#1e0702" stroke-width="2.6" stroke-linejoin="round"/>
<line x1="-217.6" y1="-25.6" x2="-217.6" y2="-65.6" stroke="#593627" stroke-width="2.6" stroke-linecap="round"/>
<polygon points="-239.6,-61.6 -195.6,-71.6 -197.6,-79.6 -241.6,-69.6" fill="#6d4d3d" stroke="#1e0702" stroke-width="2.6" stroke-linejoin="round"/>
<polygon points="-235.6,-67.6 -201.6,-75.6 -202.6,-80.6 -236.6,-72.6" fill="#fadfba" stroke="#1e0702" stroke-width="1.6" stroke-linejoin="round"/>
<line x1="-409.2" y1="9.6" x2="-412.2" y2="-3.4" stroke="#6e7d48" stroke-width="1.6" stroke-linecap="round"/>
<line x1="-403.2" y1="9.6" x2="-403.2" y2="-8.4" stroke="#6e7d48" stroke-width="1.6" stroke-linecap="round"/>
<line x1="-397.2" y1="9.6" x2="-394.2" y2="-2.4" stroke="#6e7d48" stroke-width="1.6" stroke-linecap="round"/>
<line x1="403.6" y1="12.8" x2="400.6" y2="-0.2" stroke="#6e7d48" stroke-width="1.6" stroke-linecap="round"/>
<line x1="409.6" y1="12.8" x2="409.6" y2="-5.2" stroke="#6e7d48" stroke-width="1.6" stroke-linecap="round"/>
<line x1="415.6" y1="12.8" x2="418.6" y2="0.8" stroke="#6e7d48" stroke-width="1.6" stroke-linecap="round"/>
<line x1="-275.2" y1="22.4" x2="-256.0" y2="12.8" stroke="#3f1c0d" stroke-width="1.6" stroke-linecap="round"/>
<line x1="-275.2" y1="3.2" x2="-256.0" y2="32.0" stroke="#3f1c0d" stroke-width="1.6" stroke-linecap="round"/>
<polygon points="-275.2,22.4 -256.0,32.0 -256.0,12.8 -275.2,3.2" fill="#6d4d3d" stroke="#1e0702" stroke-width="2.6" stroke-linejoin="round"/>
<polygon points="-256.0,32.0 -236.8,22.4 -236.8,3.2 -256.0,12.8" fill="#593627" stroke="#1e0702" stroke-width="2.6" stroke-linejoin="round"/>
<polygon points="-256.0,-6.4 -236.8,3.2 -256.0,12.8 -275.2,3.2" fill="#9b7c68" stroke="#1e0702" stroke-width="2.6" stroke-linejoin="round"/>
<polygon points="233.0,37.1 297.0,69.1 297.0,-24.1 233.0,-56.1" fill="#6d4d3d" stroke="#1e0702" stroke-width="2.6" stroke-linejoin="round"/>
<polygon points="297.0,69.1 317.4,58.9 317.4,-34.4 297.0,-24.1" fill="#593627" stroke="#1e0702" stroke-width="2.6" stroke-linejoin="round"/>
<polygon points="253.4,-66.4 317.4,-34.4 297.0,-24.1 233.0,-56.1" fill="#9b7c68" stroke="#1e0702" stroke-width="2.6" stroke-linejoin="round"/>
<line x1="253.4" y1="12.1" x2="317.4" y2="44.1" stroke="#3f1c0d" stroke-width="1.6" stroke-linecap="round"/>
<polygon points="254.4,14.1 268.4,14.1 268.4,-5.9 254.4,-5.9" fill="#3f1c0d" stroke="#1e0702" stroke-width="1.6" stroke-linejoin="round"/>
<polygon points="270.4,22.1 284.4,22.1 284.4,2.1 270.4,2.1" fill="#3f1c0d" stroke="#1e0702" stroke-width="1.6" stroke-linejoin="round"/>
<polygon points="286.4,30.1 300.4,30.1 300.4,10.1 286.4,10.1" fill="#3f1c0d" stroke="#1e0702" stroke-width="1.6" stroke-linejoin="round"/>
<polygon points="302.4,38.1 316.4,38.1 316.4,18.1 302.4,18.1" fill="#3f1c0d" stroke="#1e0702" stroke-width="1.6" stroke-linejoin="round"/>
<circle cx="261.4" cy="4.1" r="4.5" fill="#fadfba" stroke="#1e0702" stroke-width="1.6"/>
<circle cx="277.4" cy="12.1" r="4.5" fill="#fadfba" stroke="#1e0702" stroke-width="1.6"/>
<circle cx="293.4" cy="20.1" r="4.5" fill="#fadfba" stroke="#1e0702" stroke-width="1.6"/>
<circle cx="309.4" cy="28.1" r="4.5" fill="#fadfba" stroke="#1e0702" stroke-width="1.6"/>
<line x1="253.4" y1="-13.1" x2="317.4" y2="18.9" stroke="#3f1c0d" stroke-width="1.6" stroke-linecap="round"/>
<polygon points="254.4,-11.1 268.4,-11.1 268.4,-31.1 254.4,-31.1" fill="#3f1c0d" stroke="#1e0702" stroke-width="1.6" stroke-linejoin="round"/>
<polygon points="270.4,-3.1 284.4,-3.1 284.4,-23.1 270.4,-23.1" fill="#3f1c0d" stroke="#1e0702" stroke-width="1.6" stroke-linejoin="round"/>
<polygon points="286.4,4.9 300.4,4.9 300.4,-15.1 286.4,-15.1" fill="#3f1c0d" stroke="#1e0702" stroke-width="1.6" stroke-linejoin="round"/>
<polygon points="302.4,12.9 316.4,12.9 316.4,-7.1 302.4,-7.1" fill="#3f1c0d" stroke="#1e0702" stroke-width="1.6" stroke-linejoin="round"/>
<circle cx="261.4" cy="-21.1" r="4.5" fill="#fadfba" stroke="#1e0702" stroke-width="1.6"/>
<circle cx="277.4" cy="-13.1" r="4.5" fill="#fadfba" stroke="#1e0702" stroke-width="1.6"/>
<circle cx="293.4" cy="-5.1" r="4.5" fill="#fadfba" stroke="#1e0702" stroke-width="1.6"/>
<circle cx="309.4" cy="2.9" r="4.5" fill="#fadfba" stroke="#1e0702" stroke-width="1.6"/>
<line x1="253.4" y1="-38.2" x2="317.4" y2="-6.2" stroke="#3f1c0d" stroke-width="1.6" stroke-linecap="round"/>
<polygon points="254.4,-36.2 268.4,-36.2 268.4,-56.2 254.4,-56.2" fill="#3f1c0d" stroke="#1e0702" stroke-width="1.6" stroke-linejoin="round"/>
<polygon points="270.4,-28.2 284.4,-28.2 284.4,-48.2 270.4,-48.2" fill="#3f1c0d" stroke="#1e0702" stroke-width="1.6" stroke-linejoin="round"/>
<polygon points="286.4,-20.2 300.4,-20.2 300.4,-40.2 286.4,-40.2" fill="#3f1c0d" stroke="#1e0702" stroke-width="1.6" stroke-linejoin="round"/>
<polygon points="302.4,-12.2 316.4,-12.2 316.4,-32.2 302.4,-32.2" fill="#3f1c0d" stroke="#1e0702" stroke-width="1.6" stroke-linejoin="round"/>
<circle cx="261.4" cy="-46.2" r="4.5" fill="#fadfba" stroke="#1e0702" stroke-width="1.6"/>
<circle cx="277.4" cy="-38.2" r="4.5" fill="#fadfba" stroke="#1e0702" stroke-width="1.6"/>
<circle cx="293.4" cy="-30.2" r="4.5" fill="#fadfba" stroke="#1e0702" stroke-width="1.6"/>
<circle cx="309.4" cy="-22.2" r="4.5" fill="#fadfba" stroke="#1e0702" stroke-width="1.6"/>
<polygon points="-125.9,11.7 -4.3,72.5 -4.3,32.6 -125.9,-28.2" fill="#ad8c75" stroke="#1e0702" stroke-width="2.6" stroke-linejoin="round"/>
<polygon points="-4.3,72.5 9.6,65.6 9.6,25.6 -4.3,32.6" fill="#846859" stroke="#1e0702" stroke-width="2.6" stroke-linejoin="round"/>
<polygon points="-112.0,-35.2 9.6,25.6 -4.3,32.6 -125.9,-28.2" fill="#d7b791" stroke="#1e0702" stroke-width="2.6" stroke-linejoin="round"/>
<polygon points="-139.7,18.7 -18.1,79.5 -18.1,52.8 -139.7,-8.0" fill="#ad8c75" stroke="#1e0702" stroke-width="2.6" stroke-linejoin="round"/>
<polygon points="-18.1,79.5 -4.3,72.5 -4.3,45.9 -18.1,52.8" fill="#846859" stroke="#1e0702" stroke-width="2.6" stroke-linejoin="round"/>
<polygon points="-125.9,-14.9 -4.3,45.9 -18.1,52.8 -139.7,-8.0" fill="#d7b791" stroke="#1e0702" stroke-width="2.6" stroke-linejoin="round"/>
<polygon points="-153.6,25.6 -32.0,86.4 -32.0,73.1 -153.6,12.3" fill="#ad8c75" stroke="#1e0702" stroke-width="2.6" stroke-linejoin="round"/>
<polygon points="-32.0,86.4 -18.1,79.5 -18.1,66.1 -32.0,73.1" fill="#846859" stroke="#1e0702" stroke-width="2.6" stroke-linejoin="round"/>
<polygon points="-139.7,5.3 -18.1,66.1 -32.0,73.1 -153.6,12.3" fill="#d7b791" stroke="#1e0702" stroke-width="2.6" stroke-linejoin="round"/>
<line x1="-287.6" y1="89.6" x2="-290.6" y2="76.6" stroke="#6e7d48" stroke-width="1.6" stroke-linecap="round"/>
<line x1="-281.6" y1="89.6" x2="-281.6" y2="71.6" stroke="#6e7d48" stroke-width="1.6" stroke-linecap="round"/>
<line x1="-275.6" y1="89.6" x2="-272.6" y2="77.6" stroke="#6e7d48" stroke-width="1.6" stroke-linecap="round"/>
<polygon points="-172.8,-28.8 76.8,96.0 76.8,55.3 -172.8,-69.5" fill="#ad8c75" stroke="#1e0702" stroke-width="5.0" stroke-linejoin="round"/>
<polygon points="76.8,96.0 275.2,-3.2 275.2,-43.9 76.8,55.3" fill="#846859" stroke="#1e0702" stroke-width="5.0" stroke-linejoin="round"/>
<polygon points="25.6,-168.7 275.2,-43.9 76.8,55.3 -172.8,-69.5" fill="#d7b791" stroke="#1e0702" stroke-width="5.0" stroke-linejoin="round"/>
<line x1="-110.4" y1="2.4" x2="-110.4" y2="-18.0" stroke="#745b4e" stroke-width="1.6" stroke-linecap="round"/>
<line x1="225.6" y1="21.6" x2="225.6" y2="1.2" stroke="#745b4e" stroke-width="1.6" stroke-linecap="round"/>
<line x1="-48.0" y1="33.6" x2="-48.0" y2="13.2" stroke="#745b4e" stroke-width="1.6" stroke-linecap="round"/>
<line x1="176.0" y1="46.4" x2="176.0" y2="26.0" stroke="#745b4e" stroke-width="1.6" stroke-linecap="round"/>
<line x1="14.4" y1="64.8" x2="14.4" y2="44.4" stroke="#745b4e" stroke-width="1.6" stroke-linecap="round"/>
<line x1="126.4" y1="71.2" x2="126.4" y2="50.8" stroke="#745b4e" stroke-width="1.6" stroke-linecap="round"/>
<line x1="-172.8" y1="-49.1" x2="76.8" y2="75.6" stroke="#745b4e" stroke-width="1.6" stroke-linecap="round"/>
<line x1="76.8" y1="75.6" x2="275.2" y2="-23.6" stroke="#745b4e" stroke-width="1.6" stroke-linecap="round"/>
<line x1="-79.2" y1="-2.3" x2="-79.2" y2="-22.7" stroke="#745b4e" stroke-width="1.6" stroke-linecap="round"/>
<line x1="200.8" y1="13.6" x2="200.8" y2="-6.7" stroke="#745b4e" stroke-width="1.6" stroke-linecap="round"/>
<line x1="-16.8" y1="28.8" x2="-16.8" y2="8.5" stroke="#745b4e" stroke-width="1.6" stroke-linecap="round"/>
<line x1="151.2" y1="38.4" x2="151.2" y2="18.1" stroke="#745b4e" stroke-width="1.6" stroke-linecap="round"/>
<line x1="45.6" y1="60.0" x2="45.6" y2="39.7" stroke="#745b4e" stroke-width="1.6" stroke-linecap="round"/>
<line x1="101.6" y1="63.2" x2="101.6" y2="42.9" stroke="#745b4e" stroke-width="1.6" stroke-linecap="round"/>
<polygon points="-64.0,-98.3 134.4,0.9 134.4,-87.9 -64.0,-187.1" fill="#e7ccab" stroke="#1e0702" stroke-width="5.0" stroke-linejoin="round"/>
<polygon points="134.4,0.9 236.8,-50.3 236.8,-139.1 134.4,-87.9" fill="#cfa278" stroke="#1e0702" stroke-width="5.0" stroke-linejoin="round"/>
<polygon points="38.4,-238.3 236.8,-139.1 134.4,-87.9 -64.0,-187.1" fill="#fadfba" stroke="#1e0702" stroke-width="5.0" stroke-linejoin="round"/>
<line x1="-64.0" y1="-120.5" x2="134.4" y2="-21.3" stroke="#765d50" stroke-width="1.6" stroke-linecap="round"/>
<line x1="134.4" y1="-21.3" x2="236.8" y2="-72.5" stroke="#765d50" stroke-width="1.6" stroke-linecap="round"/>
<line x1="-64.0" y1="-142.7" x2="134.4" y2="-43.5" stroke="#765d50" stroke-width="1.6" stroke-linecap="round"/>
<line x1="134.4" y1="-43.5" x2="236.8" y2="-94.7" stroke="#765d50" stroke-width="1.6" stroke-linecap="round"/>
<line x1="-64.0" y1="-164.9" x2="134.4" y2="-65.7" stroke="#765d50" stroke-width="1.6" stroke-linecap="round"/>
<line x1="134.4" y1="-65.7" x2="236.8" y2="-116.9" stroke="#765d50" stroke-width="1.6" stroke-linecap="round"/>
<polygon points="-32.0,-183.9 128.0,-103.9 128.0,-148.3 -32.0,-228.3" fill="#f0d4b1" stroke="#1e0702" stroke-width="5.0" stroke-linejoin="round"/>
<polygon points="128.0,-103.9 204.8,-142.3 204.8,-186.7 128.0,-148.3" fill="#d7a87c" stroke="#1e0702" stroke-width="5.0" stroke-linejoin="round"/>
<polygon points="44.8,-266.7 204.8,-186.7 128.0,-148.3 -32.0,-228.3" fill="#ffe7c1" stroke="#1e0702" stroke-width="5.0" stroke-linejoin="round"/>
<polygon points="-28.2,-196.0 -10.2,-196.0 -10.2,-222.0 -28.2,-222.0" fill="#3f1c0d" stroke="#1e0702" stroke-width="1.6" stroke-linejoin="round"/>
<polygon points="16.6,-173.6 34.6,-173.6 34.6,-199.6 16.6,-199.6" fill="#3f1c0d" stroke="#1e0702" stroke-width="1.6" stroke-linejoin="round"/>
<polygon points="61.4,-151.2 79.4,-151.2 79.4,-177.2 61.4,-177.2" fill="#3f1c0d" stroke="#1e0702" stroke-width="1.6" stroke-linejoin="round"/>
<polygon points="106.2,-128.8 124.2,-128.8 124.2,-154.8 106.2,-154.8" fill="#3f1c0d" stroke="#1e0702" stroke-width="1.6" stroke-linejoin="round"/>
<polygon points="15.4,-58.6 15.4,-87.4 15.4,-87.4 16.6,-97.6 20.0,-106.7 25.3,-113.4 31.8,-117.0 38.6,-117.0 45.1,-113.4 50.4,-106.7 53.8,-97.6 55.0,-87.4 55.0,-87.4 55.0,-38.8" fill="#3f1c0d" stroke="#1e0702" stroke-width="2.6" stroke-linejoin="round"/>
<polyline points="15.4,-87.4 15.4,-87.4 16.6,-97.6 20.0,-106.7 25.3,-113.4 31.8,-117.0 38.6,-117.0 45.1,-113.4 50.4,-106.7 53.8,-97.6 55.0,-87.4 55.0,-87.4" fill="none" stroke="#d7b791" stroke-width="2.6" stroke-linejoin="round" stroke-linecap="round"/>
<polygon points="-134.4,-63.1 -96.0,-63.1 -96.0,-151.9 -134.4,-151.9" fill="#ad8c75" stroke="#1e0702" stroke-width="2.6" stroke-linejoin="round"/>
<polygon points="-115.2,-63.1 -96.0,-63.1 -96.0,-151.9 -115.2,-151.9" fill="#846859" stroke="none"/>
<line x1="-123.8" y1="-67.1" x2="-123.8" y2="-145.9" stroke="#8d725f" stroke-width="1.6" stroke-linecap="round"/>
<line x1="-113.3" y1="-67.1" x2="-113.3" y2="-145.9" stroke="#8d725f" stroke-width="1.6" stroke-linecap="round"/>
<ellipse cx="-115.2" cy="-151.9" rx="20.2" ry="8.1" fill="#d7b791" stroke="#1e0702" stroke-width="2.6"/>
<polygon points="-140.2,-155.7 -90.2,-155.7 -90.2,-166.3 -140.2,-166.3" fill="#d7b791" stroke="#1e0702" stroke-width="2.6" stroke-linejoin="round"/>
<polygon points="-139.2,-59.3 -91.2,-59.3 -91.2,-68.9 -139.2,-68.9" fill="#ad8c75" stroke="#1e0702" stroke-width="2.6" stroke-linejoin="round"/>
<polygon points="-88.3,-40.1 -49.9,-40.1 -49.9,-128.9 -88.3,-128.9" fill="#ad8c75" stroke="#1e0702" stroke-width="2.6" stroke-linejoin="round"/>
<polygon points="-69.1,-40.1 -49.9,-40.1 -49.9,-128.9 -69.1,-128.9" fill="#846859" stroke="none"/>
<line x1="-77.8" y1="-44.1" x2="-77.8" y2="-122.9" stroke="#8d725f" stroke-width="1.6" stroke-linecap="round"/>
<line x1="-67.2" y1="-44.1" x2="-67.2" y2="-122.9" stroke="#8d725f" stroke-width="1.6" stroke-linecap="round"/>
<ellipse cx="-69.1" cy="-128.9" rx="20.2" ry="8.1" fill="#d7b791" stroke="#1e0702" stroke-width="2.6"/>
<polygon points="-94.1,-132.7 -44.2,-132.7 -44.2,-143.3 -94.1,-143.3" fill="#d7b791" stroke="#1e0702" stroke-width="2.6" stroke-linejoin="round"/>
<polygon points="-93.1,-36.2 -45.1,-36.2 -45.1,-45.8 -93.1,-45.8" fill="#ad8c75" stroke="#1e0702" stroke-width="2.6" stroke-linejoin="round"/>
<polygon points="-42.2,-17.0 -3.8,-17.0 -3.8,-105.8 -42.2,-105.8" fill="#ad8c75" stroke="#1e0702" stroke-width="2.6" stroke-linejoin="round"/>
<polygon points="-23.0,-17.0 -3.8,-17.0 -3.8,-105.8 -23.0,-105.8" fill="#846859" stroke="none"/>
<line x1="-31.7" y1="-21.0" x2="-31.7" y2="-99.8" stroke="#8d725f" stroke-width="1.6" stroke-linecap="round"/>
<line x1="-21.1" y1="-21.0" x2="-21.1" y2="-99.8" stroke="#8d725f" stroke-width="1.6" stroke-linecap="round"/>
<ellipse cx="-23.0" cy="-105.8" rx="20.2" ry="8.1" fill="#d7b791" stroke="#1e0702" stroke-width="2.6"/>
<polygon points="-48.0,-109.7 1.9,-109.7 1.9,-120.2 -48.0,-120.2" fill="#d7b791" stroke="#1e0702" stroke-width="2.6" stroke-linejoin="round"/>
<polygon points="-47.0,-13.2 1.0,-13.2 1.0,-22.8 -47.0,-22.8" fill="#ad8c75" stroke="#1e0702" stroke-width="2.6" stroke-linejoin="round"/>
<polygon points="3.8,6.0 42.2,6.0 42.2,-82.8 3.8,-82.8" fill="#ad8c75" stroke="#1e0702" stroke-width="2.6" stroke-linejoin="round"/>
<polygon points="23.0,6.0 42.2,6.0 42.2,-82.8 23.0,-82.8" fill="#846859" stroke="none"/>
<line x1="14.4" y1="2.0" x2="14.4" y2="-76.8" stroke="#8d725f" stroke-width="1.6" stroke-linecap="round"/>
<line x1="25.0" y1="2.0" x2="25.0" y2="-76.8" stroke="#8d725f" stroke-width="1.6" stroke-linecap="round"/>
<ellipse cx="23.0" cy="-82.8" rx="20.2" ry="8.1" fill="#d7b791" stroke="#1e0702" stroke-width="2.6"/>
<polygon points="-1.9,-86.6 48.0,-86.6 48.0,-97.2 -1.9,-97.2" fill="#d7b791" stroke="#1e0702" stroke-width="2.6" stroke-linejoin="round"/>
<polygon points="-1.0,9.9 47.0,9.9 47.0,0.3 -1.0,0.3" fill="#ad8c75" stroke="#1e0702" stroke-width="2.6" stroke-linejoin="round"/>
<polygon points="49.9,29.1 88.3,29.1 88.3,-59.7 49.9,-59.7" fill="#ad8c75" stroke="#1e0702" stroke-width="2.6" stroke-linejoin="round"/>
<polygon points="69.1,29.1 88.3,29.1 88.3,-59.7 69.1,-59.7" fill="#846859" stroke="none"/>
<line x1="60.5" y1="25.1" x2="60.5" y2="-53.7" stroke="#8d725f" stroke-width="1.6" stroke-linecap="round"/>
<line x1="71.0" y1="25.1" x2="71.0" y2="-53.7" stroke="#8d725f" stroke-width="1.6" stroke-linecap="round"/>
<ellipse cx="69.1" cy="-59.7" rx="20.2" ry="8.1" fill="#d7b791" stroke="#1e0702" stroke-width="2.6"/>
<polygon points="44.2,-63.6 94.1,-63.6 94.1,-74.1 44.2,-74.1" fill="#d7b791" stroke="#1e0702" stroke-width="2.6" stroke-linejoin="round"/>
<polygon points="45.1,32.9 93.1,32.9 93.1,23.3 45.1,23.3" fill="#ad8c75" stroke="#1e0702" stroke-width="2.6" stroke-linejoin="round"/>
<polygon points="-96.0,-82.3 -57.6,-82.3 -57.6,-171.1 -96.0,-171.1" fill="#ad8c75" stroke="#1e0702" stroke-width="2.6" stroke-linejoin="round"/>
<polygon points="-76.8,-82.3 -57.6,-82.3 -57.6,-171.1 -76.8,-171.1" fill="#846859" stroke="none"/>
<line x1="-85.4" y1="-86.3" x2="-85.4" y2="-165.1" stroke="#8d725f" stroke-width="1.6" stroke-linecap="round"/>
<line x1="-74.9" y1="-86.3" x2="-74.9" y2="-165.1" stroke="#8d725f" stroke-width="1.6" stroke-linecap="round"/>
<ellipse cx="-76.8" cy="-171.1" rx="20.2" ry="8.1" fill="#d7b791" stroke="#1e0702" stroke-width="2.6"/>
<polygon points="-101.8,-174.9 -51.8,-174.9 -51.8,-185.5 -101.8,-185.5" fill="#d7b791" stroke="#1e0702" stroke-width="2.6" stroke-linejoin="round"/>
<polygon points="-100.8,-78.5 -52.8,-78.5 -52.8,-88.1 -100.8,-88.1" fill="#ad8c75" stroke="#1e0702" stroke-width="2.6" stroke-linejoin="round"/>
<polygon points="88.3,9.9 126.7,9.9 126.7,-78.9 88.3,-78.9" fill="#ad8c75" stroke="#1e0702" stroke-width="2.6" stroke-linejoin="round"/>
<polygon points="107.5,9.9 126.7,9.9 126.7,-78.9 107.5,-78.9" fill="#846859" stroke="none"/>
<line x1="98.9" y1="5.9" x2="98.9" y2="-72.9" stroke="#8d725f" stroke-width="1.6" stroke-linecap="round"/>
<line x1="109.4" y1="5.9" x2="109.4" y2="-72.9" stroke="#8d725f" stroke-width="1.6" stroke-linecap="round"/>
<ellipse cx="107.5" cy="-78.9" rx="20.2" ry="8.1" fill="#d7b791" stroke="#1e0702" stroke-width="2.6"/>
<polygon points="82.6,-82.8 132.5,-82.8 132.5,-93.3 82.6,-93.3" fill="#d7b791" stroke="#1e0702" stroke-width="2.6" stroke-linejoin="round"/>
<polygon points="83.5,13.7 131.5,13.7 131.5,4.1 83.5,4.1" fill="#ad8c75" stroke="#1e0702" stroke-width="2.6" stroke-linejoin="round"/>
<polygon points="38.4,-251.1 262.4,-139.1 164.8,-106.6 -59.2,-218.6" fill="#95583e" stroke="#1e0702" stroke-width="5.0" stroke-linejoin="round"/>
<line x1="14.0" y1="-243.0" x2="238.0" y2="-131.0" stroke="#7a4531" stroke-width="1.6" stroke-linecap="round"/>
<line x1="-10.4" y1="-234.8" x2="213.6" y2="-122.8" stroke="#7a4531" stroke-width="1.6" stroke-linecap="round"/>
<line x1="-34.8" y1="-226.7" x2="189.2" y2="-114.7" stroke="#7a4531" stroke-width="1.6" stroke-linecap="round"/>
<line x1="57.1" y1="-241.8" x2="-40.5" y2="-209.2" stroke="#7a4531" stroke-width="1.6" stroke-linecap="round"/>
<line x1="75.7" y1="-232.4" x2="-21.9" y2="-199.9" stroke="#7a4531" stroke-width="1.6" stroke-linecap="round"/>
<line x1="94.4" y1="-223.1" x2="-3.2" y2="-190.6" stroke="#7a4531" stroke-width="1.6" stroke-linecap="round"/>
<line x1="113.1" y1="-213.8" x2="15.5" y2="-181.2" stroke="#7a4531" stroke-width="1.6" stroke-linecap="round"/>
<line x1="131.7" y1="-204.4" x2="34.1" y2="-171.9" stroke="#7a4531" stroke-width="1.6" stroke-linecap="round"/>
<line x1="150.4" y1="-195.1" x2="52.8" y2="-162.6" stroke="#7a4531" stroke-width="1.6" stroke-linecap="round"/>
<line x1="169.1" y1="-185.8" x2="71.5" y2="-153.2" stroke="#7a4531" stroke-width="1.6" stroke-linecap="round"/>
<line x1="187.7" y1="-176.4" x2="90.1" y2="-143.9" stroke="#7a4531" stroke-width="1.6" stroke-linecap="round"/>
<line x1="206.4" y1="-167.1" x2="108.8" y2="-134.6" stroke="#7a4531" stroke-width="1.6" stroke-linecap="round"/>
<line x1="225.1" y1="-157.8" x2="127.5" y2="-125.2" stroke="#7a4531" stroke-width="1.6" stroke-linecap="round"/>
<line x1="243.7" y1="-148.4" x2="146.1" y2="-115.9" stroke="#7a4531" stroke-width="1.6" stroke-linecap="round"/>
<polygon points="-156.8,-153.5 67.2,-41.5 164.8,-106.6 -59.2,-218.6" fill="#e98f5d" stroke="#1e0702" stroke-width="5.0" stroke-linejoin="round"/>
<line x1="-137.3" y1="-166.5" x2="86.7" y2="-54.5" stroke="#7a4531" stroke-width="1.6" stroke-linecap="round"/>
<line x1="-117.8" y1="-179.5" x2="106.2" y2="-67.5" stroke="#7a4531" stroke-width="1.6" stroke-linecap="round"/>
<line x1="-98.2" y1="-192.5" x2="125.8" y2="-80.5" stroke="#7a4531" stroke-width="1.6" stroke-linecap="round"/>
<line x1="-78.7" y1="-205.6" x2="145.3" y2="-93.6" stroke="#7a4531" stroke-width="1.6" stroke-linecap="round"/>
<line x1="-140.8" y1="-145.5" x2="-43.2" y2="-210.6" stroke="#7a4531" stroke-width="1.6" stroke-linecap="round"/>
<line x1="-124.8" y1="-137.5" x2="-27.2" y2="-202.6" stroke="#7a4531" stroke-width="1.6" stroke-linecap="round"/>
<line x1="-108.8" y1="-129.5" x2="-11.2" y2="-194.6" stroke="#7a4531" stroke-width="1.6" stroke-linecap="round"/>
<line x1="-92.8" y1="-121.5" x2="4.8" y2="-186.6" stroke="#7a4531" stroke-width="1.6" stroke-linecap="round"/>
<line x1="-76.8" y1="-113.5" x2="20.8" y2="-178.6" stroke="#7a4531" stroke-width="1.6" stroke-linecap="round"/>
<line x1="-60.8" y1="-105.5" x2="36.8" y2="-170.6" stroke="#7a4531" stroke-width="1.6" stroke-linecap="round"/>
<line x1="-44.8" y1="-97.5" x2="52.8" y2="-162.6" stroke="#7a4531" stroke-width="1.6" stroke-linecap="round"/>
<line x1="-28.8" y1="-89.5" x2="68.8" y2="-154.6" stroke="#7a4531" stroke-width="1.6" stroke-linecap="round"/>
<line x1="-12.8" y1="-81.5" x2="84.8" y2="-146.6" stroke="#7a4531" stroke-width="1.6" stroke-linecap="round"/>
<line x1="3.2" y1="-73.5" x2="100.8" y2="-138.6" stroke="#7a4531" stroke-width="1.6" stroke-linecap="round"/>
<line x1="19.2" y1="-65.5" x2="116.8" y2="-130.6" stroke="#7a4531" stroke-width="1.6" stroke-linecap="round"/>
<line x1="35.2" y1="-57.5" x2="132.8" y2="-122.6" stroke="#7a4531" stroke-width="1.6" stroke-linecap="round"/>
<line x1="51.2" y1="-49.5" x2="148.8" y2="-114.6" stroke="#7a4531" stroke-width="1.6" stroke-linecap="round"/>
<polygon points="38.4,-251.1 -156.8,-153.5 -59.2,-218.6" fill="#c4724c" stroke="#1e0702" stroke-width="5.0" stroke-linejoin="round"/>
<polygon points="262.4,-139.1 67.2,-41.5 164.8,-106.6" fill="#95583e" stroke="#1e0702" stroke-width="5.0" stroke-linejoin="round"/>
<line x1="-59.2" y1="-218.6" x2="164.8" y2="-106.6" stroke="#7a4531" stroke-width="2.6" stroke-linecap="round"/>
<polygon points="44.8,-284.6 240.6,-186.7 144.3,-182.9 -51.5,-280.9" fill="#95583e" stroke="#1e0702" stroke-width="5.0" stroke-linejoin="round"/>
<line x1="20.7" y1="-283.7" x2="216.6" y2="-185.8" stroke="#7a4531" stroke-width="1.6" stroke-linecap="round"/>
<line x1="-3.4" y1="-282.7" x2="192.5" y2="-184.8" stroke="#7a4531" stroke-width="1.6" stroke-linecap="round"/>
<line x1="-27.4" y1="-281.8" x2="168.4" y2="-183.9" stroke="#7a4531" stroke-width="1.6" stroke-linecap="round"/>
<line x1="61.1" y1="-276.5" x2="-35.2" y2="-272.7" stroke="#7a4531" stroke-width="1.6" stroke-linecap="round"/>
<line x1="77.4" y1="-268.3" x2="-18.9" y2="-264.5" stroke="#7a4531" stroke-width="1.6" stroke-linecap="round"/>
<line x1="93.8" y1="-260.1" x2="-2.6" y2="-256.4" stroke="#7a4531" stroke-width="1.6" stroke-linecap="round"/>
<line x1="110.1" y1="-252.0" x2="13.8" y2="-248.2" stroke="#7a4531" stroke-width="1.6" stroke-linecap="round"/>
<line x1="126.4" y1="-243.8" x2="30.1" y2="-240.1" stroke="#7a4531" stroke-width="1.6" stroke-linecap="round"/>
<line x1="142.7" y1="-235.7" x2="46.4" y2="-231.9" stroke="#7a4531" stroke-width="1.6" stroke-linecap="round"/>
<line x1="159.0" y1="-227.5" x2="62.7" y2="-223.7" stroke="#7a4531" stroke-width="1.6" stroke-linecap="round"/>
<line x1="175.4" y1="-219.3" x2="79.0" y2="-215.6" stroke="#7a4531" stroke-width="1.6" stroke-linecap="round"/>
<line x1="191.7" y1="-211.2" x2="95.4" y2="-207.4" stroke="#7a4531" stroke-width="1.6" stroke-linecap="round"/>
<line x1="208.0" y1="-203.0" x2="111.7" y2="-199.3" stroke="#7a4531" stroke-width="1.6" stroke-linecap="round"/>
<line x1="224.3" y1="-194.9" x2="128.0" y2="-191.1" stroke="#7a4531" stroke-width="1.6" stroke-linecap="round"/>
<polygon points="-147.8,-188.3 48.0,-90.4 144.3,-182.9 -51.5,-280.9" fill="#e98f5d" stroke="#1e0702" stroke-width="5.0" stroke-linejoin="round"/>
<line x1="-128.6" y1="-206.8" x2="67.3" y2="-108.9" stroke="#7a4531" stroke-width="1.6" stroke-linecap="round"/>
<line x1="-109.3" y1="-225.3" x2="86.5" y2="-127.4" stroke="#7a4531" stroke-width="1.6" stroke-linecap="round"/>
<line x1="-90.0" y1="-243.8" x2="105.8" y2="-145.9" stroke="#7a4531" stroke-width="1.6" stroke-linecap="round"/>
<line x1="-70.8" y1="-262.3" x2="125.1" y2="-164.4" stroke="#7a4531" stroke-width="1.6" stroke-linecap="round"/>
<line x1="-133.9" y1="-181.3" x2="-37.5" y2="-273.9" stroke="#7a4531" stroke-width="1.6" stroke-linecap="round"/>
<line x1="-119.9" y1="-174.3" x2="-23.5" y2="-266.9" stroke="#7a4531" stroke-width="1.6" stroke-linecap="round"/>
<line x1="-105.9" y1="-167.3" x2="-9.6" y2="-259.9" stroke="#7a4531" stroke-width="1.6" stroke-linecap="round"/>
<line x1="-91.9" y1="-160.3" x2="4.4" y2="-252.9" stroke="#7a4531" stroke-width="1.6" stroke-linecap="round"/>
<line x1="-77.9" y1="-153.3" x2="18.4" y2="-245.9" stroke="#7a4531" stroke-width="1.6" stroke-linecap="round"/>
<line x1="-63.9" y1="-146.3" x2="32.4" y2="-238.9" stroke="#7a4531" stroke-width="1.6" stroke-linecap="round"/>
<line x1="-49.9" y1="-139.3" x2="46.4" y2="-231.9" stroke="#7a4531" stroke-width="1.6" stroke-linecap="round"/>
<line x1="-35.9" y1="-132.3" x2="60.4" y2="-224.9" stroke="#7a4531" stroke-width="1.6" stroke-linecap="round"/>
<line x1="-21.9" y1="-125.4" x2="74.4" y2="-217.9" stroke="#7a4531" stroke-width="1.6" stroke-linecap="round"/>
<line x1="-8.0" y1="-118.4" x2="88.4" y2="-210.9" stroke="#7a4531" stroke-width="1.6" stroke-linecap="round"/>
<line x1="6.0" y1="-111.4" x2="102.4" y2="-203.9" stroke="#7a4531" stroke-width="1.6" stroke-linecap="round"/>
<line x1="20.0" y1="-104.4" x2="116.3" y2="-196.9" stroke="#7a4531" stroke-width="1.6" stroke-linecap="round"/>
<line x1="34.0" y1="-97.4" x2="130.3" y2="-189.9" stroke="#7a4531" stroke-width="1.6" stroke-linecap="round"/>
<polygon points="44.8,-284.6 -147.8,-188.3 -51.5,-280.9" fill="#e7ccab" stroke="#1e0702" stroke-width="5.0" stroke-linejoin="round"/>
<polygon points="240.6,-186.7 48.0,-90.4 144.3,-182.9" fill="#cfa278" stroke="#1e0702" stroke-width="5.0" stroke-linejoin="round"/>
<line x1="-51.5" y1="-280.9" x2="144.3" y2="-182.9" stroke="#7a4531" stroke-width="2.6" stroke-linecap="round"/>
<line x1="269.2" y1="99.2" x2="266.2" y2="86.2" stroke="#6e7d48" stroke-width="1.6" stroke-linecap="round"/>
<line x1="275.2" y1="99.2" x2="275.2" y2="81.2" stroke="#6e7d48" stroke-width="1.6" stroke-linecap="round"/>
<line x1="281.2" y1="99.2" x2="284.2" y2="87.2" stroke="#6e7d48" stroke-width="1.6" stroke-linecap="round"/>
<polygon points="137.0,85.1 194.6,113.9 194.6,45.8 137.0,17.0" fill="#6d4d3d" stroke="#1e0702" stroke-width="2.6" stroke-linejoin="round"/>
<polygon points="194.6,113.9 215.0,103.7 215.0,35.6 194.6,45.8" fill="#593627" stroke="#1e0702" stroke-width="2.6" stroke-linejoin="round"/>
<polygon points="157.4,6.8 215.0,35.6 194.6,45.8 137.0,17.0" fill="#9b7c68" stroke="#1e0702" stroke-width="2.6" stroke-linejoin="round"/>
<line x1="157.4" y1="60.1" x2="215.0" y2="88.9" stroke="#3f1c0d" stroke-width="1.6" stroke-linecap="round"/>
<polygon points="157.6,61.7 171.6,61.7 171.6,41.7 157.6,41.7" fill="#3f1c0d" stroke="#1e0702" stroke-width="1.6" stroke-linejoin="round"/>
<polygon points="172.0,68.9 186.0,68.9 186.0,48.9 172.0,48.9" fill="#3f1c0d" stroke="#1e0702" stroke-width="1.6" stroke-linejoin="round"/>
<polygon points="186.4,76.1 200.4,76.1 200.4,56.1 186.4,56.1" fill="#3f1c0d" stroke="#1e0702" stroke-width="1.6" stroke-linejoin="round"/>
<polygon points="200.8,83.3 214.8,83.3 214.8,63.3 200.8,63.3" fill="#3f1c0d" stroke="#1e0702" stroke-width="1.6" stroke-linejoin="round"/>
<circle cx="164.6" cy="51.7" r="4.5" fill="#fadfba" stroke="#1e0702" stroke-width="1.6"/>
<circle cx="179.0" cy="58.9" r="4.5" fill="#fadfba" stroke="#1e0702" stroke-width="1.6"/>
<circle cx="193.4" cy="66.1" r="4.5" fill="#fadfba" stroke="#1e0702" stroke-width="1.6"/>
<circle cx="207.8" cy="73.3" r="4.5" fill="#fadfba" stroke="#1e0702" stroke-width="1.6"/>
<line x1="157.4" y1="34.9" x2="215.0" y2="63.7" stroke="#3f1c0d" stroke-width="1.6" stroke-linecap="round"/>
<polygon points="157.6,36.5 171.6,36.5 171.6,16.5 157.6,16.5" fill="#3f1c0d" stroke="#1e0702" stroke-width="1.6" stroke-linejoin="round"/>
<polygon points="172.0,43.7 186.0,43.7 186.0,23.7 172.0,23.7" fill="#3f1c0d" stroke="#1e0702" stroke-width="1.6" stroke-linejoin="round"/>
<polygon points="186.4,50.9 200.4,50.9 200.4,30.9 186.4,30.9" fill="#3f1c0d" stroke="#1e0702" stroke-width="1.6" stroke-linejoin="round"/>
<polygon points="200.8,58.1 214.8,58.1 214.8,38.1 200.8,38.1" fill="#3f1c0d" stroke="#1e0702" stroke-width="1.6" stroke-linejoin="round"/>
<circle cx="164.6" cy="26.5" r="4.5" fill="#fadfba" stroke="#1e0702" stroke-width="1.6"/>
<circle cx="179.0" cy="33.7" r="4.5" fill="#fadfba" stroke="#1e0702" stroke-width="1.6"/>
<circle cx="193.4" cy="40.9" r="4.5" fill="#fadfba" stroke="#1e0702" stroke-width="1.6"/>
<circle cx="207.8" cy="48.1" r="4.5" fill="#fadfba" stroke="#1e0702" stroke-width="1.6"/>
<polygon points="76.8,128.0 65.3,114.7 68.2,104.9 73.3,98.4 80.3,98.4 85.4,104.9 88.3,114.7" fill="#c4724c" stroke="#1e0702" stroke-width="2.6" stroke-linejoin="round"/>
<polyline points="72.2,102.4 64.1,106.7 68.5,113.2" fill="none" stroke="#95583e" stroke-width="1.6" stroke-linejoin="round" stroke-linecap="round"/>
<polyline points="81.4,102.4 89.5,106.7 85.1,113.2" fill="none" stroke="#95583e" stroke-width="1.6" stroke-linejoin="round" stroke-linecap="round"/>
<polygon points="76.8,144.0 65.3,130.7 68.2,120.9 73.3,114.4 80.3,114.4 85.4,120.9 88.3,130.7" fill="#c4724c" stroke="#1e0702" stroke-width="2.6" stroke-linejoin="round"/>
<polyline points="72.2,118.4 64.1,122.7 68.5,129.2" fill="none" stroke="#95583e" stroke-width="1.6" stroke-linejoin="round" stroke-linecap="round"/>
<polyline points="81.4,118.4 89.5,122.7 85.1,129.2" fill="none" stroke="#95583e" stroke-width="1.6" stroke-linejoin="round" stroke-linecap="round"/>
<circle cx="147.2" cy="144.6" r="11.6" fill="#6e7d48" stroke="#1e0702" stroke-width="2.6"/>
<circle cx="140.2" cy="148.1" r="8.2" fill="#4d5a36" stroke="#1e0702" stroke-width="1.6"/>
<circle cx="153.6" cy="146.9" r="7.2" fill="#8a9a5c" stroke="#1e0702" stroke-width="1.6"/>
<circle cx="44.8" cy="80.9" r="16.6" fill="#6e7d48" stroke="#1e0702" stroke-width="2.6"/>
<circle cx="34.8" cy="85.9" r="11.6" fill="#4d5a36" stroke="#1e0702" stroke-width="1.6"/>
<circle cx="54.0" cy="84.2" r="10.3" fill="#8a9a5c" stroke="#1e0702" stroke-width="1.6"/>
<line x1="-114.8" y1="182.4" x2="-117.8" y2="169.4" stroke="#6e7d48" stroke-width="1.6" stroke-linecap="round"/>
<line x1="-108.8" y1="182.4" x2="-108.8" y2="164.4" stroke="#6e7d48" stroke-width="1.6" stroke-linecap="round"/>
<line x1="-102.8" y1="182.4" x2="-99.8" y2="170.4" stroke="#6e7d48" stroke-width="1.6" stroke-linecap="round"/>
<line x1="45.2" y1="204.8" x2="42.2" y2="191.8" stroke="#6e7d48" stroke-width="1.6" stroke-linecap="round"/>
<line x1="51.2" y1="204.8" x2="51.2" y2="186.8" stroke="#6e7d48" stroke-width="1.6" stroke-linecap="round"/>
<line x1="57.2" y1="204.8" x2="60.2" y2="192.8" stroke="#6e7d48" stroke-width="1.6" stroke-linecap="round"/>
</svg>
