<svg xmlns="http://www.w3.org/2000/svg" viewBox="-640 -760 1280 1120" width="1280" height="1120">
<rect x="-640" y="-760" width="1280" height="1120" fill="#ffffff"/>
<polygon points="-512.0,0.0 0.0,256.0 0.0,263.4 -512.0,7.4" fill="#a2836d" stroke="#765d50" stroke-width="1.6" stroke-linejoin="round"/>
<polygon points="0.0,256.0 512.0,0.0 512.0,7.4 0.0,263.4" fill="#765d50" stroke="#765d50" stroke-width="1.6" stroke-linejoin="round"/>
<polygon points="0.0,-256.0 512.0,0.0 0.0,256.0 -512.0,0.0" fill="#cfa278" stroke="#9b7e69" stroke-width="1.6" stroke-linejoin="round"/>
<ellipse cx="-204.8" cy="-12.8" rx="59.1" ry="29.6" fill="#b7947c" stroke="none" fill-opacity="0.35"/>
<ellipse cx="204.8" cy="0.0" rx="48.4" ry="24.2" fill="#b7947c" stroke="none" fill-opacity="0.35"/>
<ellipse cx="-140.8" cy="70.4" rx="37.6" ry="18.8" fill="#b7947c" stroke="none" fill-opacity="0.35"/>
<ellipse cx="51.2" cy="128.0" rx="43.0" ry="21.5" fill="#b7947c" stroke="none" fill-opacity="0.35"/>
<polygon points="-336.0,-65.6 -224.0,-9.6 -345.6,51.2 -457.6,-4.8" fill="#d7b791" stroke="#1e0702" stroke-width="2.6" stroke-linejoin="round"/>
<line x1="-298.7" y1="-46.9" x2="-420.3" y2="13.9" stroke="#846859" stroke-width="1.6" stroke-linecap="round"/>
<line x1="-261.3" y1="-28.3" x2="-382.9" y2="32.5" stroke="#846859" stroke-width="1.6" stroke-linecap="round"/>
<line x1="-366.4" y1="-50.4" x2="-254.4" y2="5.6" stroke="#846859" stroke-width="1.6" stroke-linecap="round"/>
<line x1="-396.8" y1="-35.2" x2="-284.8" y2="20.8" stroke="#846859" stroke-width="1.6" stroke-linecap="round"/>
<line x1="-427.2" y1="-20.0" x2="-315.2" y2="36.0" stroke="#846859" stroke-width="1.6" stroke-linecap="round"/>
<line x1="-50.8" y1="-201.6" x2="-53.8" y2="-214.6" stroke="#6e7d48" stroke-width="1.6" stroke-linecap="round"/>
<line x1="-44.8" y1="-201.6" x2="-44.8" y2="-219.6" stroke="#6e7d48" stroke-width="1.6" stroke-linecap="round"/>
<line x1="-38.8" y1="-201.6" x2="-35.8" y2="-213.6" stroke="#6e7d48" stroke-width="1.6" stroke-linecap="round"/>
<line x1="-70.0" y1="-153.6" x2="-73.0" y2="-166.6" stroke="#6e7d48" stroke-width="1.6" stroke-linecap="round"/>
<line x1="-64.0" y1="-153.6" x2="-64.0" y2="-171.6" stroke="#6e7d48" stroke-width="1.6" stroke-linecap="round"/>
<line x1="-58.0" y1="-153.6" x2="-55.0" y2="-165.6" stroke="#6e7d48" stroke-width="1.6" stroke-linecap="round"/>
<circle cx="-115.2" cy="-160.3" r="13.3" fill="#6e7d48" stroke="#1e0702" stroke-width="2.6"/>
<circle cx="-123.2" cy="-156.3" r="9.3" fill="#4d5a36" stroke="#1e0702" stroke-width="1.6"/>
<circle cx="-107.9" cy="-157.6" r="8.3" fill="#8a9a5c" stroke="#1e0702" stroke-width="1.6"/>
<line x1="-230.0" y1="-118.4" x2="-233.0" y2="-131.4" stroke="#6e7d48" stroke-width="1.6" stroke-linecap="round"/>
<line x1="-224.0" y1="-118.4" x2="-224.0" y2="-136.4" stroke="#6e7d48" stroke-width="1.6" stroke-linecap="round"/>
<line x1="-218.0" y1="-118.4" x2="-215.0" y2="-130.4" stroke="#6e7d48" stroke-width="1.6" stroke-linecap="round"/>
<ellipse cx="-108.8" cy="-131.2" rx="30.7" ry="15.4" fill="#3f1c0d" stroke="#1e0702" stroke-width="2.6"/>
<line x1="-122.9" y1="-138.3" x2="-122.9" y2="-190.3" stroke="#6d4d3d" stroke-width="2.6" stroke-linecap="round"/>
<line x1="-94.7" y1="-124.2" x2="-94.7" y2="-176.2" stroke="#6d4d3d" stroke-width="2.6" stroke-linecap="round"/>
<line x1="-122.9" y1="-190.3" x2="-94.7" y2="-176.2" stroke="#6d4d3d" stroke-width="2.6" stroke-linecap="round"/>
<polygon points="-144.6,-112.0 -108.8,-94.1 -108.8,-113.3 -144.6,-131.2" fill="#ad8c75" stroke="#1e0702" stroke-width="2.6" stroke-linejoin="round"/>
<polygon points="-108.8,-94.1 -73.0,-112.0 -73.0,-131.2 -108.8,-113.3" fill="#846859" stroke="#1e0702" stroke-width="2.6" stroke-linejoin="round"/>
<polygon points="-108.8,-149.2 -73.0,-131.2 -108.8,-113.3 -144.6,-131.2" fill="#d7b791" stroke="#1e0702" stroke-width="2.6" stroke-linejoin="round"/>
<line x1="-198.4" y1="-167.6" x2="-198.4" y2="-230.5" stroke="#3f1c0d" stroke-width="2.6" stroke-linecap="round"/>
<polygon points="-198.4,-230.5 -152.4,-222.5 -158.4,-196.5 -198.4,-190.5" fill="#95583e" stroke="#1e0702" stroke-width="2.6" stroke-linejoin="round"/>
<line x1="-249.6" y1="-35.2" x2="-249.6" y2="-75.2" stroke="#593627" stroke-width="2.6" stroke-linecap="round"/>
<polygon points="-271.6,-71.2 -227.6,-81.2 -229.6,-89.2 -273.6,-79.2" fill="#6d4d3d" stroke="#1e0702" stroke-width="2.6" stroke-linejoin="round"/>
<polygon points="-267.6,-77.2 -233.6,-85.2 -234.6,-90.2 -268.6,-82.2" fill="#fadfba" stroke="#1e0702" stroke-width="1.6" stroke-linejoin="round"/>
<line x1="-262.4" y1="-3.2" x2="-262.4" y2="-43.2" stroke="#593627" stroke-width="2.6" stroke-linecap="round"/>
<polygon points="-284.4,-39.2 -240.4,-49.2 -242.4,-57.2 -286.4,-47.2" fill="#6d4d3d" stroke="#1e0702" stroke-width="2.6" stroke-linejoin="round"/>
<line x1="-409.2" y1="9.6" x2="-412.2" y2="-3.4" stroke="#6e7d48" stroke-width="1.6" stroke-linecap="round"/>
<line x1="-403.2" y1="9.6" x2="-403.2" y2="-8.4" stroke="#6e7d48" stroke-width="1.6" stroke-linecap="round"/>
<line x1="-397.2" y1="9.6" x2="-394.2" y2="-2.4" stroke="#6e7d48" stroke-width="1.6" stroke-linecap="round"/>
<line x1="403.6" y1="12.8" x2="400.6" y2="-0.2" stroke="#6e7d48" stroke-width="1.6" stroke-linecap="round"/>
<line x1="409.6" y1="12.8" x2="409.6" y2="-5.2" stroke="#6e7d48" stroke-width="1.6" stroke-linecap="round"/>
<line x1="415.6" y1="12.8" x2="418.6" y2="0.8" stroke="#6e7d48" stroke-width="1.6" stroke-linecap="round"/>
<polygon points="-307.4,-13.8 -281.4,-13.8 -285.4,-59.8 -303.4,-59.8" fill="#fadfba" stroke="#1e0702" stroke-width="2.6" stroke-linejoin="round"/>
<circle cx="-294.4" cy="-69.8" r="11.0" fill="#fadfba" stroke="#1e0702" stroke-width="2.6"/>
<polygon points="-322.6,12.8 -294.4,26.9 -294.4,0.2 -322.6,-13.8" fill="#ad8c75" stroke="#1e0702" stroke-width="2.6" stroke-linejoin="round"/>
<polygon points="-294.4,26.9 -266.2,12.8 -266.2,-13.8 -294.4,0.2" fill="#846859" stroke="#1e0702" stroke-width="2.6" stroke-linejoin="round"/>
<polygon points="-294.4,-27.9 -266.2,-13.8 -294.4,0.2 -322.6,-13.8" fill="#d7b791" stroke="#1e0702" stroke-width="2.6" stroke-linejoin="round"/>
<line x1="-227.2" y1="63.8" x2="-183.2" y2="77.8" stroke="#6d4d3d" stroke-width="2.6" stroke-linecap="round"/>
<circle cx="-297.0" cy="52.2" r="17.0" fill="#6d4d3d" stroke="#1e0702" stroke-width="2.6"/>
<circle cx="-252.2" cy="74.6" r="17.0" fill="#6d4d3d" stroke="#1e0702" stroke-width="2.6"/>
<circle cx="-297.0" cy="52.2" r="5.0" fill="#3f1c0d" stroke="#1e0702" stroke-width="1.6"/>
<circle cx="-252.2" cy="74.6" r="5.0" fill="#3f1c0d" stroke="#1e0702" stroke-width="1.6"/>
<polygon points="271.4,37.1 338.6,70.7 338.6,-22.5 271.4,-56.1" fill="#6d4d3d" stroke="#1e0702" stroke-width="2.6" stroke-linejoin="round"/>
<polygon points="338.6,70.7 359.0,60.5 359.0,-32.8 338.6,-22.5" fill="#593627" stroke="#1e0702" stroke-width="2.6" stroke-linejoin="round"/>
<polygon points="291.8,-66.4 359.0,-32.8 338.6,-22.5 271.4,-56.1" fill="#9b7c68" stroke="#1e0702" stroke-width="2.6" stroke-linejoin="round"/>
<line x1="291.8" y1="12.1" x2="359.0" y2="45.7" stroke="#3f1c0d" stroke-width="1.6" stroke-linecap="round"/>
<polygon points="293.2,14.3 307.2,14.3 307.2,-5.7 293.2,-5.7" fill="#3f1c0d" stroke="#1e0702" stroke-width="1.6" stroke-linejoin="round"/>
<polygon points="310.0,22.7 324.0,22.7 324.0,2.7 310.0,2.7" fill="#3f1c0d" stroke="#1e0702" stroke-width="1.6" stroke-linejoin="round"/>
<polygon points="326.8,31.1 340.8,31.1 340.8,11.1 326.8,11.1" fill="#3f1c0d" stroke="#1e0702" stroke-width="1.6" stroke-linejoin="round"/>
<polygon points="343.6,39.5 357.6,39.5 357.6,19.5 343.6,19.5" fill="#3f1c0d" stroke="#1e0702" stroke-width="1.6" stroke-linejoin="round"/>
<circle cx="300.2" cy="4.3" r="4.5" fill="#fadfba" stroke="#1e0702" stroke-width="1.6"/>
<circle cx="317.0" cy="12.7" r="4.5" fill="#fadfba" stroke="#1e0702" stroke-width="1.6"/>
<circle cx="333.8" cy="21.1" r="4.5" fill="#fadfba" stroke="#1e0702" stroke-width="1.6"/>
<circle cx="350.6" cy="29.5" r="4.5" fill="#fadfba" stroke="#1e0702" stroke-width="1.6"/>
<line x1="291.8" y1="-13.1" x2="359.0" y2="20.5" stroke="#3f1c0d" stroke-width="1.6" stroke-linecap="round"/>
<polygon points="293.2,-10.9 307.2,-10.9 307.2,-30.9 293.2,-30.9" fill="#3f1c0d" stroke="#1e0702" stroke-width="1.6" stroke-linejoin="round"/>
<polygon points="310.0,-2.5 324.0,-2.5 324.0,-22.5 310.0,-22.5" fill="#3f1c0d" stroke="#1e0702" stroke-width="1.6" stroke-linejoin="round"/>
<polygon points="326.8,5.9 340.8,5.9 340.8,-14.1 326.8,-14.1" fill="#3f1c0d" stroke="#1e0702" stroke-width="1.6" stroke-linejoin="round"/>
<polygon points="343.6,14.3 357.6,14.3 357.6,-5.7 343.6,-5.7" fill="#3f1c0d" stroke="#1e0702" stroke-width="1.6" stroke-linejoin="round"/>
<circle cx="300.2" cy="-20.9" r="4.5" fill="#fadfba" stroke="#1e0702" stroke-width="1.6"/>
<circle cx="317.0" cy="-12.5" r="4.5" fill="#fadfba" stroke="#1e0702" stroke-width="1.6"/>
<circle cx="333.8" cy="-4.1" r="4.5" fill="#fadfba" stroke="#1e0702" stroke-width="1.6"/>
<circle cx="350.6" cy="4.3" r="4.5" fill="#fadfba" stroke="#1e0702" stroke-width="1.6"/>
<line x1="291.8" y1="-38.2" x2="359.0" y2="-4.6" stroke="#3f1c0d" stroke-width="1.6" stroke-linecap="round"/>
<polygon points="293.2,-36.0 307.2,-36.0 307.2,-56.0 293.2,-56.0" fill="#3f1c0d" stroke="#1e0702" stroke-width="1.6" stroke-linejoin="round"/>
<polygon points="310.0,-27.6 324.0,-27.6 324.0,-47.6 310.0,-47.6" fill="#3f1c0d" stroke="#1e0702" stroke-width="1.6" stroke-linejoin="round"/>
<polygon points="326.8,-19.2 340.8,-19.2 340.8,-39.2 326.8,-39.2" fill="#3f1c0d" stroke="#1e0702" stroke-width="1.6" stroke-linejoin="round"/>
<polygon points="343.6,-10.8 357.6,-10.8 357.6,-30.8 343.6,-30.8" fill="#3f1c0d" stroke="#1e0702" stroke-width="1.6" stroke-linejoin="round"/>
<circle cx="300.2" cy="-46.0" r="4.5" fill="#fadfba" stroke="#1e0702" stroke-width="1.6"/>
<circle cx="317.0" cy="-37.6" r="4.5" fill="#fadfba" stroke="#1e0702" stroke-width="1.6"/>
<circle cx="333.8" cy="-29.2" r="4.5" fill="#fadfba" stroke="#1e0702" stroke-width="1.6"/>
<circle cx="350.6" cy="-20.8" r="4.5" fill="#fadfba" stroke="#1e0702" stroke-width="1.6"/>
<polygon points="-300.8,50.4 -243.2,79.2 -243.2,60.0 -300.8,31.2" fill="#6d4d3d" stroke="#1e0702" stroke-width="2.6" stroke-linejoin="round"/>
<polygon points="-243.2,79.2 -211.2,63.2 -211.2,44.0 -243.2,60.0" fill="#593627" stroke="#1e0702" stroke-width="2.6" stroke-linejoin="round"/>
<polygon points="-268.8,15.2 -211.2,44.0 -243.2,60.0 -300.8,31.2" fill="#9b7c68" stroke="#1e0702" stroke-width="2.6" stroke-linejoin="round"/>
<line x1="-287.6" y1="89.6" x2="-290.6" y2="76.6" stroke="#6e7d48" stroke-width="1.6" stroke-linecap="round"/>
<line x1="-281.6" y1="89.6" x2="-281.6" y2="71.6" stroke="#6e7d48" stroke-width="1.6" stroke-linecap="round"/>
<line x1="-275.6" y1="89.6" x2="-272.6" y2="77.6" stroke="#6e7d48" stroke-width="1.6" stroke-linecap="round"/>
<polygon points="-165.6,12.4 -5.6,92.4 -5.6,33.2 -165.6,-46.8" fill="#ad8c75" stroke="#1e0702" stroke-width="2.6" stroke-linejoin="round"/>
<polygon points="-5.6,92.4 9.6,84.8 9.6,25.6 -5.6,33.2" fill="#846859" stroke="#1e0702" stroke-width="2.6" stroke-linejoin="round"/>
<polygon points="-150.4,-54.4 9.6,25.6 -5.6,33.2 -165.6,-46.8" fill="#d7b791" stroke="#1e0702" stroke-width="2.6" stroke-linejoin="round"/>
<polygon points="-180.8,20.0 -20.8,100.0 -20.8,55.6 -180.8,-24.4" fill="#ad8c75" stroke="#1e0702" stroke-width="2.6" stroke-linejoin="round"/>
<polygon points="-20.8,100.0 -5.6,92.4 -5.6,48.0 -20.8,55.6" fill="#846859" stroke="#1e0702" stroke-width="2.6" stroke-linejoin="round"/>
<polygon points="-165.6,-32.0 -5.6,48.0 -20.8,55.6 -180.8,-24.4" fill="#d7b791" stroke="#1e0702" stroke-width="2.6" stroke-linejoin="round"/>
<line x1="269.2" y1="99.2" x2="266.2" y2="86.2" stroke="#6e7d48" stroke-width="1.6" stroke-linecap="round"/>
<line x1="275.2" y1="99.2" x2="275.2" y2="81.2" stroke="#6e7d48" stroke-width="1.6" stroke-linecap="round"/>
<line x1="281.2" y1="99.2" x2="284.2" y2="87.2" stroke="#6e7d48" stroke-width="1.6" stroke-linecap="round"/>
<polygon points="-196.0,27.6 -36.0,107.6 -36.0,78.0 -196.0,-2.0" fill="#ad8c75" stroke="#1e0702" stroke-width="2.6" stroke-linejoin="round"/>
<polygon points="-36.0,107.6 -20.8,100.0 -20.8,70.4 -36.0,78.0" fill="#846859" stroke="#1e0702" stroke-width="2.6" stroke-linejoin="round"/>
<polygon points="-180.8,-9.6 -20.8,70.4 -36.0,78.0 -196.0,-2.0" fill="#d7b791" stroke="#1e0702" stroke-width="2.6" stroke-linejoin="round"/>
<line x1="128.0" y1="-4.4" x2="128.0" y2="-67.3" stroke="#3f1c0d" stroke-width="2.6" stroke-linecap="round"/>
<polygon points="128.0,-67.3 174.0,-59.3 168.0,-33.3 128.0,-27.3" fill="#95583e" stroke="#1e0702" stroke-width="2.6" stroke-linejoin="round"/>
<polygon points="-217.6,-32.0 76.8,115.2 76.8,56.0 -217.6,-91.2" fill="#ad8c75" stroke="#1e0702" stroke-width="5.0" stroke-linejoin="round"/>
<polygon points="76.8,115.2 313.6,-3.2 313.6,-62.4 76.8,56.0" fill="#846859" stroke="#1e0702" stroke-width="5.0" stroke-linejoin="round"/>
<polygon points="19.2,-209.6 313.6,-62.4 76.8,56.0 -217.6,-91.2" fill="#d7b791" stroke="#1e0702" stroke-width="5.0" stroke-linejoin="round"/>
<line x1="-144.0" y1="4.8" x2="-144.0" y2="-14.9" stroke="#745b4e" stroke-width="1.6" stroke-linecap="round"/>
<line x1="254.4" y1="26.4" x2="254.4" y2="6.7" stroke="#745b4e" stroke-width="1.6" stroke-linecap="round"/>
<line x1="-70.4" y1="41.6" x2="-70.4" y2="21.9" stroke="#745b4e" stroke-width="1.6" stroke-linecap="round"/>
<line x1="195.2" y1="56.0" x2="195.2" y2="36.3" stroke="#745b4e" stroke-width="1.6" stroke-linecap="round"/>
<line x1="3.2" y1="78.4" x2="3.2" y2="58.7" stroke="#745b4e" stroke-width="1.6" stroke-linecap="round"/>
<line x1="136.0" y1="85.6" x2="136.0" y2="65.9" stroke="#745b4e" stroke-width="1.6" stroke-linecap="round"/>
<line x1="-217.6" y1="-51.7" x2="76.8" y2="95.5" stroke="#745b4e" stroke-width="1.6" stroke-linecap="round"/>
<line x1="76.8" y1="95.5" x2="313.6" y2="-22.9" stroke="#745b4e" stroke-width="1.6" stroke-linecap="round"/>
<line x1="-107.2" y1="3.5" x2="-107.2" y2="-16.3" stroke="#745b4e" stroke-width="1.6" stroke-linecap="round"/>
<line x1="224.8" y1="21.5" x2="224.8" y2="1.7" stroke="#745b4e" stroke-width="1.6" stroke-linecap="round"/>
<line x1="-33.6" y1="40.3" x2="-33.6" y2="20.5" stroke="#745b4e" stroke-width="1.6" stroke-linecap="round"/>
<line x1="165.6" y1="51.1" x2="165.6" y2="31.3" stroke="#745b4e" stroke-width="1.6" stroke-linecap="round"/>
<line x1="40.0" y1="77.1" x2="40.0" y2="57.3" stroke="#745b4e" stroke-width="1.6" stroke-linecap="round"/>
<line x1="106.4" y1="80.7" x2="106.4" y2="60.9" stroke="#745b4e" stroke-width="1.6" stroke-linecap="round"/>
<line x1="-217.6" y1="-71.5" x2="76.8" y2="75.7" stroke="#745b4e" stroke-width="1.6" stroke-linecap="round"/>
<line x1="76.8" y1="75.7" x2="313.6" y2="-42.7" stroke="#745b4e" stroke-width="1.6" stroke-linecap="round"/>
<line x1="-144.0" y1="-34.7" x2="-144.0" y2="-54.4" stroke="#745b4e" stroke-width="1.6" stroke-linecap="round"/>
<line x1="254.4" y1="-13.1" x2="254.4" y2="-32.8" stroke="#745b4e" stroke-width="1.6" stroke-linecap="round"/>
<line x1="-70.4" y1="2.1" x2="-70.4" y2="-17.6" stroke="#745b4e" stroke-width="1.6" stroke-linecap="round"/>
<line x1="195.2" y1="16.5" x2="195.2" y2="-3.2" stroke="#745b4e" stroke-width="1.6" stroke-linecap="round"/>
<line x1="3.2" y1="38.9" x2="3.2" y2="19.2" stroke="#745b4e" stroke-width="1.6" stroke-linecap="round"/>
<line x1="136.0" y1="46.1" x2="136.0" y2="26.4" stroke="#745b4e" stroke-width="1.6" stroke-linecap="round"/>
<polygon points="-78.1,-129.0 -94.7,-140.8 -94.7,-229.6 -78.1,-217.8" fill="#846859" stroke="#1e0702" stroke-width="1.6" stroke-linejoin="round"/>
<polygon points="-94.7,-140.8 -102.2,-154.8 -102.2,-243.6 -94.7,-229.6" fill="#ad8c75" stroke="#1e0702" stroke-width="1.6" stroke-linejoin="round"/>
<polygon points="-102.2,-154.8 -99.6,-169.2 -99.6,-258.0 -102.2,-243.6" fill="#846859" stroke="#1e0702" stroke-width="1.6" stroke-linejoin="round"/>
<polygon points="-99.6,-169.2 -87.4,-182.3 -87.4,-271.1 -99.6,-258.0" fill="#ad8c75" stroke="#1e0702" stroke-width="1.6" stroke-linejoin="round"/>
<polygon points="-87.4,-182.3 -67.0,-192.5 -67.0,-281.3 -87.4,-271.1" fill="#846859" stroke="#1e0702" stroke-width="1.6" stroke-linejoin="round"/>
<polygon points="-67.0,-192.5 -40.8,-198.6 -40.8,-287.4 -67.0,-281.3" fill="#ad8c75" stroke="#1e0702" stroke-width="1.6" stroke-linejoin="round"/>
<polygon points="-40.8,-198.6 -11.9,-199.9 -11.9,-288.7 -40.8,-287.4" fill="#846859" stroke="#1e0702" stroke-width="1.6" stroke-linejoin="round"/>
<polygon points="-11.9,-199.9 16.0,-196.1 16.0,-284.9 -11.9,-288.7" fill="#ad8c75" stroke="#1e0702" stroke-width="1.6" stroke-linejoin="round"/>
<polygon points="16.0,-196.1 39.7,-187.8 39.7,-276.6 16.0,-284.9" fill="#846859" stroke="#1e0702" stroke-width="1.6" stroke-linejoin="round"/>
<polygon points="-78.1,-217.8 -94.7,-229.6 -102.2,-243.6 -99.6,-258.0 -87.4,-271.1 -67.0,-281.3 -40.8,-287.4 -11.9,-288.7 16.0,-284.9 39.7,-276.6 -19.2,-247.2" fill="#d7b791" stroke="#1e0702" stroke-width="2.6" stroke-linejoin="round"/>
<polygon points="-78.1,-217.8 -94.7,-229.6 -19.2,-296.2" fill="#95583e" stroke="#1e0702" stroke-width="1.6" stroke-linejoin="round"/>
<polygon points="-94.7,-229.6 -102.2,-243.6 -19.2,-296.2" fill="#c4724c" stroke="#1e0702" stroke-width="1.6" stroke-linejoin="round"/>
<polygon points="-102.2,-243.6 -99.6,-258.0 -19.2,-296.2" fill="#95583e" stroke="#1e0702" stroke-width="1.6" stroke-linejoin="round"/>
<polygon points="-99.6,-258.0 -87.4,-271.1 -19.2,-296.2" fill="#c4724c" stroke="#1e0702" stroke-width="1.6" stroke-linejoin="round"/>
<polygon points="-87.4,-271.1 -67.0,-281.3 -19.2,-296.2" fill="#95583e" stroke="#1e0702" stroke-width="1.6" stroke-linejoin="round"/>
<polygon points="-67.0,-281.3 -40.8,-287.4 -19.2,-296.2" fill="#c4724c" stroke="#1e0702" stroke-width="1.6" stroke-linejoin="round"/>
<polygon points="-40.8,-287.4 -11.9,-288.7 -19.2,-296.2" fill="#95583e" stroke="#1e0702" stroke-width="1.6" stroke-linejoin="round"/>
<polygon points="-11.9,-288.7 16.0,-284.9 -19.2,-296.2" fill="#c4724c" stroke="#1e0702" stroke-width="1.6" stroke-linejoin="round"/>
<polygon points="16.0,-284.9 39.7,-276.6 -19.2,-296.2" fill="#95583e" stroke="#1e0702" stroke-width="1.6" stroke-linejoin="round"/>
<polygon points="-76.8,-129.6 160.0,-11.2 160.0,-122.2 -76.8,-240.6" fill="#e7ccab" stroke="#1e0702" stroke-width="5.0" stroke-linejoin="round"/>
<polygon points="160.0,-11.2 275.2,-68.8 275.2,-179.8 160.0,-122.2" fill="#cfa278" stroke="#1e0702" stroke-width="5.0" stroke-linejoin="round"/>
<polygon points="38.4,-298.2 275.2,-179.8 160.0,-122.2 -76.8,-240.6" fill="#fadfba" stroke="#1e0702" stroke-width="5.0" stroke-linejoin="round"/>
<line x1="-76.8" y1="-151.8" x2="160.0" y2="-33.4" stroke="#765d50" stroke-width="1.6" stroke-linecap="round"/>
<line x1="160.0" y1="-33.4" x2="275.2" y2="-91.0" stroke="#765d50" stroke-width="1.6" stroke-linecap="round"/>
<line x1="-76.8" y1="-174.0" x2="160.0" y2="-55.6" stroke="#765d50" stroke-width="1.6" stroke-linecap="round"/>
<line x1="160.0" y1="-55.6" x2="275.2" y2="-113.2" stroke="#765d50" stroke-width="1.6" stroke-linecap="round"/>
<line x1="-76.8" y1="-196.2" x2="160.0" y2="-77.8" stroke="#765d50" stroke-width="1.6" stroke-linecap="round"/>
<line x1="160.0" y1="-77.8" x2="275.2" y2="-135.4" stroke="#765d50" stroke-width="1.6" stroke-linecap="round"/>
<line x1="-76.8" y1="-218.4" x2="160.0" y2="-100.0" stroke="#765d50" stroke-width="1.6" stroke-linecap="round"/>
<line x1="160.0" y1="-100.0" x2="275.2" y2="-157.6" stroke="#765d50" stroke-width="1.6" stroke-linecap="round"/>
<polygon points="-44.8,-237.4 153.6,-138.2 153.6,-197.4 -44.8,-296.6" fill="#f2d6b3" stroke="#1e0702" stroke-width="5.0" stroke-linejoin="round"/>
<polygon points="153.6,-138.2 243.2,-183.0 243.2,-242.2 153.6,-197.4" fill="#d9aa7e" stroke="#1e0702" stroke-width="5.0" stroke-linejoin="round"/>
<polygon points="44.8,-341.4 243.2,-242.2 153.6,-197.4 -44.8,-296.6" fill="#ffeac3" stroke="#1e0702" stroke-width="5.0" stroke-linejoin="round"/>
<polygon points="-38.8,-253.1 -18.8,-253.1 -18.8,-283.1 -38.8,-283.1" fill="#3f1c0d" stroke="#1e0702" stroke-width="1.6" stroke-linejoin="round"/>
<polygon points="3.4,-232.0 23.4,-232.0 23.4,-262.0 3.4,-262.0" fill="#3f1c0d" stroke="#1e0702" stroke-width="1.6" stroke-linejoin="round"/>
<polygon points="45.7,-210.8 65.7,-210.8 65.7,-240.8 45.7,-240.8" fill="#3f1c0d" stroke="#1e0702" stroke-width="1.6" stroke-linejoin="round"/>
<polygon points="87.9,-189.7 107.9,-189.7 107.9,-219.7 87.9,-219.7" fill="#3f1c0d" stroke="#1e0702" stroke-width="1.6" stroke-linejoin="round"/>
<polygon points="130.2,-168.6 150.2,-168.6 150.2,-198.6 130.2,-198.6" fill="#3f1c0d" stroke="#1e0702" stroke-width="1.6" stroke-linejoin="round"/>
<polygon points="19.2,-81.6 19.2,-119.2 19.2,-119.2 20.6,-132.2 24.4,-143.6 30.4,-152.1 37.7,-156.6 45.5,-156.6 52.8,-152.1 58.8,-143.6 62.6,-132.2 64.0,-119.2 64.0,-119.2 64.0,-59.2" fill="#3f1c0d" stroke="#1e0702" stroke-width="2.6" stroke-linejoin="round"/>
<polyline points="19.2,-119.2 19.2,-119.2 20.6,-132.2 24.4,-143.6 30.4,-152.1 37.7,-156.6 45.5,-156.6 52.8,-152.1 58.8,-143.6 62.6,-132.2 64.0,-119.2 64.0,-119.2" fill="none" stroke="#d7b791" stroke-width="2.6" stroke-linejoin="round" stroke-linecap="round"/>
<polygon points="-177.3,-80.0 -136.3,-80.0 -136.3,-191.0 -177.3,-191.0" fill="#ad8c75" stroke="#1e0702" stroke-width="2.6" stroke-linejoin="round"/>
<polygon points="-156.8,-80.0 -136.3,-80.0 -136.3,-191.0 -156.8,-191.0" fill="#846859" stroke="none"/>
<line x1="-166.0" y1="-84.0" x2="-166.0" y2="-185.0" stroke="#8d725f" stroke-width="1.6" stroke-linecap="round"/>
<line x1="-154.8" y1="-84.0" x2="-154.8" y2="-185.0" stroke="#8d725f" stroke-width="1.6" stroke-linecap="round"/>
<ellipse cx="-156.8" cy="-191.0" rx="21.5" ry="8.6" fill="#d7b791" stroke="#1e0702" stroke-width="2.6"/>
<polygon points="-183.4,-195.1 -130.2,-195.1 -130.2,-206.4 -183.4,-206.4" fill="#d7b791" stroke="#1e0702" stroke-width="2.6" stroke-linejoin="round"/>
<polygon points="-182.4,-75.9 -131.2,-75.9 -131.2,-86.1 -182.4,-86.1" fill="#ad8c75" stroke="#1e0702" stroke-width="2.6" stroke-linejoin="round"/>
<polygon points="-132.5,-57.6 -91.5,-57.6 -91.5,-168.6 -132.5,-168.6" fill="#ad8c75" stroke="#1e0702" stroke-width="2.6" stroke-linejoin="round"/>
<polygon points="-112.0,-57.6 -91.5,-57.6 -91.5,-168.6 -112.0,-168.6" fill="#846859" stroke="none"/>
<line x1="-121.2" y1="-61.6" x2="-121.2" y2="-162.6" stroke="#8d725f" stroke-width="1.6" stroke-linecap="round"/>
<line x1="-110.0" y1="-61.6" x2="-110.0" y2="-162.6" stroke="#8d725f" stroke-width="1.6" stroke-linecap="round"/>
<ellipse cx="-112.0" cy="-168.6" rx="21.5" ry="8.6" fill="#d7b791" stroke="#1e0702" stroke-width="2.6"/>
<polygon points="-138.6,-172.7 -85.4,-172.7 -85.4,-184.0 -138.6,-184.0" fill="#d7b791" stroke="#1e0702" stroke-width="2.6" stroke-linejoin="round"/>
<polygon points="-137.6,-53.5 -86.4,-53.5 -86.4,-63.7 -137.6,-63.7" fill="#ad8c75" stroke="#1e0702" stroke-width="2.6" stroke-linejoin="round"/>
<polygon points="-87.7,-35.2 -46.7,-35.2 -46.7,-146.2 -87.7,-146.2" fill="#ad8c75" stroke="#1e0702" stroke-width="2.6" stroke-linejoin="round"/>
<polygon points="-67.2,-35.2 -46.7,-35.2 -46.7,-146.2 -67.2,-146.2" fill="#846859" stroke="none"/>
<line x1="-76.4" y1="-39.2" x2="-76.4" y2="-140.2" stroke="#8d725f" stroke-width="1.6" stroke-linecap="round"/>
<line x1="-65.2" y1="-39.2" x2="-65.2" y2="-140.2" stroke="#8d725f" stroke-width="1.6" stroke-linecap="round"/>
<ellipse cx="-67.2" cy="-146.2" rx="21.5" ry="8.6" fill="#d7b791" stroke="#1e0702" stroke-width="2.6"/>
<polygon points="-93.8,-150.3 -40.6,-150.3 -40.6,-161.6 -93.8,-161.6" fill="#d7b791" stroke="#1e0702" stroke-width="2.6" stroke-linejoin="round"/>
<polygon points="-92.8,-31.1 -41.6,-31.1 -41.6,-41.3 -92.8,-41.3" fill="#ad8c75" stroke="#1e0702" stroke-width="2.6" stroke-linejoin="round"/>
<polygon points="-42.9,-12.8 -1.9,-12.8 -1.9,-123.8 -42.9,-123.8" fill="#ad8c75" stroke="#1e0702" stroke-width="2.6" stroke-linejoin="round"/>
<polygon points="-22.4,-12.8 -1.9,-12.8 -1.9,-123.8 -22.4,-123.8" fill="#846859" stroke="none"/>
<line x1="-31.6" y1="-16.8" x2="-31.6" y2="-117.8" stroke="#8d725f" stroke-width="1.6" stroke-linecap="round"/>
<line x1="-20.4" y1="-16.8" x2="-20.4" y2="-117.8" stroke="#8d725f" stroke-width="1.6" stroke-linecap="round"/>
<ellipse cx="-22.4" cy="-123.8" rx="21.5" ry="8.6" fill="#d7b791" stroke="#1e0702" stroke-width="2.6"/>
<polygon points="-49.0,-127.9 4.2,-127.9 4.2,-139.2 -49.0,-139.2" fill="#d7b791" stroke="#1e0702" stroke-width="2.6" stroke-linejoin="round"/>
<polygon points="-48.0,-8.7 3.2,-8.7 3.2,-18.9 -48.0,-18.9" fill="#ad8c75" stroke="#1e0702" stroke-width="2.6" stroke-linejoin="round"/>
<polygon points="1.9,9.6 42.9,9.6 42.9,-101.4 1.9,-101.4" fill="#ad8c75" stroke="#1e0702" stroke-width="2.6" stroke-linejoin="round"/>
<polygon points="22.4,9.6 42.9,9.6 42.9,-101.4 22.4,-101.4" fill="#846859" stroke="none"/>
<line x1="13.2" y1="5.6" x2="13.2" y2="-95.4" stroke="#8d725f" stroke-width="1.6" stroke-linecap="round"/>
<line x1="24.4" y1="5.6" x2="24.4" y2="-95.4" stroke="#8d725f" stroke-width="1.6" stroke-linecap="round"/>
<ellipse cx="22.4" cy="-101.4" rx="21.5" ry="8.6" fill="#d7b791" stroke="#1e0702" stroke-width="2.6"/>
<polygon points="-4.2,-105.5 49.0,-105.5 49.0,-116.8 -4.2,-116.8" fill="#d7b791" stroke="#1e0702" stroke-width="2.6" stroke-linejoin="round"/>
<polygon points="-3.2,13.7 48.0,13.7 48.0,3.5 -3.2,3.5" fill="#ad8c75" stroke="#1e0702" stroke-width="2.6" stroke-linejoin="round"/>
<polygon points="46.7,32.0 87.7,32.0 87.7,-79.0 46.7,-79.0" fill="#ad8c75" stroke="#1e0702" stroke-width="2.6" stroke-linejoin="round"/>
<polygon points="67.2,32.0 87.7,32.0 87.7,-79.0 67.2,-79.0" fill="#846859" stroke="none"/>
<line x1="58.0" y1="28.0" x2="58.0" y2="-73.0" stroke="#8d725f" stroke-width="1.6" stroke-linecap="round"/>
<line x1="69.2" y1="28.0" x2="69.2" y2="-73.0" stroke="#8d725f" stroke-width="1.6" stroke-linecap="round"/>
<ellipse cx="67.2" cy="-79.0" rx="21.5" ry="8.6" fill="#d7b791" stroke="#1e0702" stroke-width="2.6"/>
<polygon points="40.6,-83.1 93.8,-83.1 93.8,-94.4 40.6,-94.4" fill="#d7b791" stroke="#1e0702" stroke-width="2.6" stroke-linejoin="round"/>
<polygon points="41.6,36.1 92.8,36.1 92.8,25.9 41.6,25.9" fill="#ad8c75" stroke="#1e0702" stroke-width="2.6" stroke-linejoin="round"/>
<polygon points="-103.7,-116.8 -62.7,-116.8 -62.7,-227.8 -103.7,-227.8" fill="#ad8c75" stroke="#1e0702" stroke-width="2.6" stroke-linejoin="round"/>
<polygon points="-83.2,-116.8 -62.7,-116.8 -62.7,-227.8 -83.2,-227.8" fill="#846859" stroke="none"/>
<line x1="-92.4" y1="-120.8" x2="-92.4" y2="-221.8" stroke="#8d725f" stroke-width="1.6" stroke-linecap="round"/>
<line x1="-81.2" y1="-120.8" x2="-81.2" y2="-221.8" stroke="#8d725f" stroke-width="1.6" stroke-linecap="round"/>
<ellipse cx="-83.2" cy="-227.8" rx="21.5" ry="8.6" fill="#d7b791" stroke="#1e0702" stroke-width="2.6"/>
<polygon points="-109.8,-231.9 -56.6,-231.9 -56.6,-243.2 -109.8,-243.2" fill="#d7b791" stroke="#1e0702" stroke-width="2.6" stroke-linejoin="round"/>
<polygon points="-108.8,-112.7 -57.6,-112.7 -57.6,-122.9 -108.8,-122.9" fill="#ad8c75" stroke="#1e0702" stroke-width="2.6" stroke-linejoin="round"/>
<polygon points="120.3,-4.8 161.3,-4.8 161.3,-115.8 120.3,-115.8" fill="#ad8c75" stroke="#1e0702" stroke-width="2.6" stroke-linejoin="round"/>
<polygon points="140.8,-4.8 161.3,-4.8 161.3,-115.8 140.8,-115.8" fill="#846859" stroke="none"/>
<line x1="131.6" y1="-8.8" x2="131.6" y2="-109.8" stroke="#8d725f" stroke-width="1.6" stroke-linecap="round"/>
<line x1="142.8" y1="-8.8" x2="142.8" y2="-109.8" stroke="#8d725f" stroke-width="1.6" stroke-linecap="round"/>
<ellipse cx="140.8" cy="-115.8" rx="21.5" ry="8.6" fill="#d7b791" stroke="#1e0702" stroke-width="2.6"/>
<polygon points="114.2,-119.9 167.4,-119.9 167.4,-131.2 114.2,-131.2" fill="#d7b791" stroke="#1e0702" stroke-width="2.6" stroke-linejoin="round"/>
<polygon points="115.2,-0.7 166.4,-0.7 166.4,-10.9 115.2,-10.9" fill="#ad8c75" stroke="#1e0702" stroke-width="2.6" stroke-linejoin="round"/>
<polygon points="-140.8,-98.2 -99.8,-98.2 -99.8,-209.2 -140.8,-209.2" fill="#ad8c75" stroke="#1e0702" stroke-width="2.6" stroke-linejoin="round"/>
<polygon points="-120.3,-98.2 -99.8,-98.2 -99.8,-209.2 -120.3,-209.2" fill="#846859" stroke="none"/>
<line x1="-129.5" y1="-102.2" x2="-129.5" y2="-203.2" stroke="#8d725f" stroke-width="1.6" stroke-linecap="round"/>
<line x1="-118.3" y1="-102.2" x2="-118.3" y2="-203.2" stroke="#8d725f" stroke-width="1.6" stroke-linecap="round"/>
<ellipse cx="-120.3" cy="-209.2" rx="21.5" ry="8.6" fill="#d7b791" stroke="#1e0702" stroke-width="2.6"/>
<polygon points="-146.9,-213.3 -93.7,-213.3 -93.7,-224.6 -146.9,-224.6" fill="#d7b791" stroke="#1e0702" stroke-width="2.6" stroke-linejoin="round"/>
<polygon points="-145.9,-94.1 -94.7,-94.1 -94.7,-104.4 -145.9,-104.4" fill="#ad8c75" stroke="#1e0702" stroke-width="2.6" stroke-linejoin="round"/>
<polygon points="83.2,13.8 124.2,13.8 124.2,-97.2 83.2,-97.2" fill="#ad8c75" stroke="#1e0702" stroke-width="2.6" stroke-linejoin="round"/>
<polygon points="103.7,13.8 124.2,13.8 124.2,-97.2 103.7,-97.2" fill="#846859" stroke="none"/>
<line x1="94.5" y1="9.8" x2="94.5" y2="-91.2" stroke="#8d725f" stroke-width="1.6" stroke-linecap="round"/>
<line x1="105.7" y1="9.8" x2="105.7" y2="-91.2" stroke="#8d725f" stroke-width="1.6" stroke-linecap="round"/>
<ellipse cx="103.7" cy="-97.2" rx="21.5" ry="8.6" fill="#d7b791" stroke="#1e0702" stroke-width="2.6"/>
<polygon points="77.1,-101.3 130.3,-101.3 130.3,-112.6 77.1,-112.6" fill="#d7b791" stroke="#1e0702" stroke-width="2.6" stroke-linejoin="round"/>
<polygon points="78.1,17.9 129.3,17.9 129.3,7.6 78.1,7.6" fill="#ad8c75" stroke="#1e0702" stroke-width="2.6" stroke-linejoin="round"/>
<polygon points="-177.9,-79.7 -137.0,-79.7 -137.0,-190.7 -177.9,-190.7" fill="#ad8c75" stroke="#1e0702" stroke-width="2.6" stroke-linejoin="round"/>
<polygon points="-157.4,-79.7 -137.0,-79.7 -137.0,-190.7 -157.4,-190.7" fill="#846859" stroke="none"/>
<line x1="-166.7" y1="-83.7" x2="-166.7" y2="-184.7" stroke="#8d725f" stroke-width="1.6" stroke-linecap="round"/>
<line x1="-155.4" y1="-83.7" x2="-155.4" y2="-184.7" stroke="#8d725f" stroke-width="1.6" stroke-linecap="round"/>
<ellipse cx="-157.4" cy="-190.7" rx="21.5" ry="8.6" fill="#d7b791" stroke="#1e0702" stroke-width="2.6"/>
<polygon points="-184.1,-194.8 -130.8,-194.8 -130.8,-206.0 -184.1,-206.0" fill="#d7b791" stroke="#1e0702" stroke-width="2.6" stroke-linejoin="round"/>
<polygon points="-183.0,-75.6 -131.8,-75.6 -131.8,-85.8 -183.0,-85.8" fill="#ad8c75" stroke="#1e0702" stroke-width="2.6" stroke-linejoin="round"/>
<polygon points="46.1,32.3 87.0,32.3 87.0,-78.7 46.1,-78.7" fill="#ad8c75" stroke="#1e0702" stroke-width="2.6" stroke-linejoin="round"/>
<polygon points="66.6,32.3 87.0,32.3 87.0,-78.7 66.6,-78.7" fill="#846859" stroke="none"/>
<line x1="57.3" y1="28.3" x2="57.3" y2="-72.7" stroke="#8d725f" stroke-width="1.6" stroke-linecap="round"/>
<line x1="68.6" y1="28.3" x2="68.6" y2="-72.7" stroke="#8d725f" stroke-width="1.6" stroke-linecap="round"/>
<ellipse cx="66.6" cy="-78.7" rx="21.5" ry="8.6" fill="#d7b791" stroke="#1e0702" stroke-width="2.6"/>
<polygon points="39.9,-82.8 93.2,-82.8 93.2,-94.0 39.9,-94.0" fill="#d7b791" stroke="#1e0702" stroke-width="2.6" stroke-linejoin="round"/>
<polygon points="41.0,36.4 92.2,36.4 92.2,26.2 41.0,26.2" fill="#ad8c75" stroke="#1e0702" stroke-width="2.6" stroke-linejoin="round"/>
<polygon points="38.4,-312.3 303.4,-179.8 183.7,-139.2 -81.3,-271.7" fill="#95583e" stroke="#1e0702" stroke-width="5.0" stroke-linejoin="round"/>
<line x1="8.5" y1="-302.1" x2="273.4" y2="-169.7" stroke="#7a4531" stroke-width="1.6" stroke-linecap="round"/>
<line x1="-21.4" y1="-292.0" x2="243.5" y2="-159.5" stroke="#7a4531" stroke-width="1.6" stroke-linecap="round"/>
<line x1="-51.4" y1="-281.8" x2="213.6" y2="-149.3" stroke="#7a4531" stroke-width="1.6" stroke-linecap="round"/>
<line x1="60.5" y1="-301.2" x2="-59.2" y2="-260.6" stroke="#7a4531" stroke-width="1.6" stroke-linecap="round"/>
<line x1="82.6" y1="-290.2" x2="-37.1" y2="-249.6" stroke="#7a4531" stroke-width="1.6" stroke-linecap="round"/>
<line x1="104.6" y1="-279.2" x2="-15.0" y2="-238.6" stroke="#7a4531" stroke-width="1.6" stroke-linecap="round"/>
<line x1="126.7" y1="-268.1" x2="7.0" y2="-227.5" stroke="#7a4531" stroke-width="1.6" stroke-linecap="round"/>
<line x1="148.8" y1="-257.1" x2="29.1" y2="-216.5" stroke="#7a4531" stroke-width="1.6" stroke-linecap="round"/>
<line x1="170.9" y1="-246.0" x2="51.2" y2="-205.4" stroke="#7a4531" stroke-width="1.6" stroke-linecap="round"/>
<line x1="193.0" y1="-235.0" x2="73.3" y2="-194.4" stroke="#7a4531" stroke-width="1.6" stroke-linecap="round"/>
<line x1="215.0" y1="-224.0" x2="95.4" y2="-183.4" stroke="#7a4531" stroke-width="1.6" stroke-linecap="round"/>
<line x1="237.1" y1="-212.9" x2="117.4" y2="-172.3" stroke="#7a4531" stroke-width="1.6" stroke-linecap="round"/>
<line x1="259.2" y1="-201.9" x2="139.5" y2="-161.3" stroke="#7a4531" stroke-width="1.6" stroke-linecap="round"/>
<line x1="281.3" y1="-190.8" x2="161.6" y2="-150.2" stroke="#7a4531" stroke-width="1.6" stroke-linecap="round"/>
<polygon points="-201.0,-192.6 64.0,-60.1 183.7,-139.2 -81.3,-271.7" fill="#e98f5d" stroke="#1e0702" stroke-width="5.0" stroke-linejoin="round"/>
<line x1="-177.0" y1="-208.4" x2="87.9" y2="-75.9" stroke="#7a4531" stroke-width="1.6" stroke-linecap="round"/>
<line x1="-153.1" y1="-224.2" x2="111.9" y2="-91.8" stroke="#7a4531" stroke-width="1.6" stroke-linecap="round"/>
<line x1="-129.2" y1="-240.0" x2="135.8" y2="-107.6" stroke="#7a4531" stroke-width="1.6" stroke-linecap="round"/>
<line x1="-105.2" y1="-255.9" x2="159.7" y2="-123.4" stroke="#7a4531" stroke-width="1.6" stroke-linecap="round"/>
<line x1="-182.0" y1="-183.1" x2="-62.4" y2="-262.2" stroke="#7a4531" stroke-width="1.6" stroke-linecap="round"/>
<line x1="-163.1" y1="-173.7" x2="-43.4" y2="-252.8" stroke="#7a4531" stroke-width="1.6" stroke-linecap="round"/>
<line x1="-144.2" y1="-164.2" x2="-24.5" y2="-243.3" stroke="#7a4531" stroke-width="1.6" stroke-linecap="round"/>
<line x1="-125.3" y1="-154.7" x2="-5.6" y2="-233.8" stroke="#7a4531" stroke-width="1.6" stroke-linecap="round"/>
<line x1="-106.3" y1="-145.3" x2="13.3" y2="-224.4" stroke="#7a4531" stroke-width="1.6" stroke-linecap="round"/>
<line x1="-87.4" y1="-135.8" x2="32.3" y2="-214.9" stroke="#7a4531" stroke-width="1.6" stroke-linecap="round"/>
<line x1="-68.5" y1="-126.4" x2="51.2" y2="-205.4" stroke="#7a4531" stroke-width="1.6" stroke-linecap="round"/>
<line x1="-49.6" y1="-116.9" x2="70.1" y2="-196.0" stroke="#7a4531" stroke-width="1.6" stroke-linecap="round"/>
<line x1="-30.6" y1="-107.4" x2="89.1" y2="-186.5" stroke="#7a4531" stroke-width="1.6" stroke-linecap="round"/>
<line x1="-11.7" y1="-98.0" x2="108.0" y2="-177.1" stroke="#7a4531" stroke-width="1.6" stroke-linecap="round"/>
<line x1="7.2" y1="-88.5" x2="126.9" y2="-167.6" stroke="#7a4531" stroke-width="1.6" stroke-linecap="round"/>
<line x1="26.1" y1="-79.0" x2="145.8" y2="-158.1" stroke="#7a4531" stroke-width="1.6" stroke-linecap="round"/>
<line x1="45.1" y1="-69.6" x2="164.8" y2="-148.7" stroke="#7a4531" stroke-width="1.6" stroke-linecap="round"/>
<polygon points="38.4,-312.3 -201.0,-192.6 -81.3,-271.7" fill="#c4724c" stroke="#1e0702" stroke-width="5.0" stroke-linejoin="round"/>
<polygon points="303.4,-179.8 64.0,-60.1 183.7,-139.2" fill="#95583e" stroke="#1e0702" stroke-width="5.0" stroke-linejoin="round"/>
<line x1="-81.3" y1="-271.7" x2="183.7" y2="-139.2" stroke="#7a4531" stroke-width="2.6" stroke-linecap="round"/>
<polygon points="44.8,-359.3 279.0,-242.2 161.9,-241.4 -72.3,-358.5" fill="#95583e" stroke="#1e0702" stroke-width="5.0" stroke-linejoin="round"/>
<line x1="15.5" y1="-359.1" x2="249.8" y2="-242.0" stroke="#7a4531" stroke-width="1.6" stroke-linecap="round"/>
<line x1="-13.8" y1="-358.9" x2="220.5" y2="-241.8" stroke="#7a4531" stroke-width="1.6" stroke-linecap="round"/>
<line x1="-43.0" y1="-358.7" x2="191.2" y2="-241.6" stroke="#7a4531" stroke-width="1.6" stroke-linecap="round"/>
<line x1="64.3" y1="-349.6" x2="-52.8" y2="-348.7" stroke="#7a4531" stroke-width="1.6" stroke-linecap="round"/>
<line x1="83.8" y1="-339.8" x2="-33.3" y2="-339.0" stroke="#7a4531" stroke-width="1.6" stroke-linecap="round"/>
<line x1="103.4" y1="-330.0" x2="-13.8" y2="-329.2" stroke="#7a4531" stroke-width="1.6" stroke-linecap="round"/>
<line x1="122.9" y1="-320.3" x2="5.8" y2="-319.4" stroke="#7a4531" stroke-width="1.6" stroke-linecap="round"/>
<line x1="142.4" y1="-310.5" x2="25.3" y2="-309.7" stroke="#7a4531" stroke-width="1.6" stroke-linecap="round"/>
<line x1="161.9" y1="-300.8" x2="44.8" y2="-299.9" stroke="#7a4531" stroke-width="1.6" stroke-linecap="round"/>
<line x1="181.4" y1="-291.0" x2="64.3" y2="-290.2" stroke="#7a4531" stroke-width="1.6" stroke-linecap="round"/>
<line x1="201.0" y1="-281.2" x2="83.8" y2="-280.4" stroke="#7a4531" stroke-width="1.6" stroke-linecap="round"/>
<line x1="220.5" y1="-271.5" x2="103.4" y2="-270.6" stroke="#7a4531" stroke-width="1.6" stroke-linecap="round"/>
<line x1="240.0" y1="-261.7" x2="122.9" y2="-260.9" stroke="#7a4531" stroke-width="1.6" stroke-linecap="round"/>
<line x1="259.5" y1="-252.0" x2="142.4" y2="-251.1" stroke="#7a4531" stroke-width="1.6" stroke-linecap="round"/>
<polygon points="-189.4,-242.2 44.8,-125.1 161.9,-241.4 -72.3,-358.5" fill="#e98f5d" stroke="#1e0702" stroke-width="5.0" stroke-linejoin="round"/>
<line x1="-166.0" y1="-265.5" x2="68.2" y2="-148.3" stroke="#7a4531" stroke-width="1.6" stroke-linecap="round"/>
<line x1="-142.6" y1="-288.7" x2="91.6" y2="-171.6" stroke="#7a4531" stroke-width="1.6" stroke-linecap="round"/>
<line x1="-119.2" y1="-312.0" x2="115.1" y2="-194.8" stroke="#7a4531" stroke-width="1.6" stroke-linecap="round"/>
<line x1="-95.7" y1="-335.2" x2="138.5" y2="-218.1" stroke="#7a4531" stroke-width="1.6" stroke-linecap="round"/>
<line x1="-172.7" y1="-233.8" x2="-55.6" y2="-350.1" stroke="#7a4531" stroke-width="1.6" stroke-linecap="round"/>
<line x1="-156.0" y1="-225.5" x2="-38.9" y2="-341.7" stroke="#7a4531" stroke-width="1.6" stroke-linecap="round"/>
<line x1="-139.2" y1="-217.1" x2="-22.1" y2="-333.4" stroke="#7a4531" stroke-width="1.6" stroke-linecap="round"/>
<line x1="-122.5" y1="-208.7" x2="-5.4" y2="-325.0" stroke="#7a4531" stroke-width="1.6" stroke-linecap="round"/>
<line x1="-105.8" y1="-200.4" x2="11.3" y2="-316.7" stroke="#7a4531" stroke-width="1.6" stroke-linecap="round"/>
<line x1="-89.1" y1="-192.0" x2="28.1" y2="-308.3" stroke="#7a4531" stroke-width="1.6" stroke-linecap="round"/>
<line x1="-72.3" y1="-183.6" x2="44.8" y2="-299.9" stroke="#7a4531" stroke-width="1.6" stroke-linecap="round"/>
<line x1="-55.6" y1="-175.3" x2="61.5" y2="-291.6" stroke="#7a4531" stroke-width="1.6" stroke-linecap="round"/>
<line x1="-38.9" y1="-166.9" x2="78.3" y2="-283.2" stroke="#7a4531" stroke-width="1.6" stroke-linecap="round"/>
<line x1="-22.1" y1="-158.5" x2="95.0" y2="-274.8" stroke="#7a4531" stroke-width="1.6" stroke-linecap="round"/>
<line x1="-5.4" y1="-150.2" x2="111.7" y2="-266.5" stroke="#7a4531" stroke-width="1.6" stroke-linecap="round"/>
<line x1="11.3" y1="-141.8" x2="128.5" y2="-258.1" stroke="#7a4531" stroke-width="1.6" stroke-linecap="round"/>
<line x1="28.1" y1="-133.4" x2="145.2" y2="-249.7" stroke="#7a4531" stroke-width="1.6" stroke-linecap="round"/>
<polygon points="44.8,-359.3 -189.4,-242.2 -72.3,-358.5" fill="#e7ccab" stroke="#1e0702" stroke-width="5.0" stroke-linejoin="round"/>
<polygon points="279.0,-242.2 44.8,-125.1 161.9,-241.4" fill="#cfa278" stroke="#1e0702" stroke-width="5.0" stroke-linejoin="round"/>
<line x1="-72.3" y1="-358.5" x2="161.9" y2="-241.4" stroke="#7a4531" stroke-width="2.6" stroke-linecap="round"/>
<polygon points="-211.2,35.2 -51.2,115.2 -51.2,100.4 -211.2,20.4" fill="#ad8c75" stroke="#1e0702" stroke-width="2.6" stroke-linejoin="round"/>
<polygon points="-51.2,115.2 -36.0,107.6 -36.0,92.8 -51.2,100.4" fill="#846859" stroke="#1e0702" stroke-width="2.6" stroke-linejoin="round"/>
<polygon points="-196.0,12.8 -36.0,92.8 -51.2,100.4 -211.2,20.4" fill="#d7b791" stroke="#1e0702" stroke-width="2.6" stroke-linejoin="round"/>
<polygon points="175.4,85.1 242.6,118.7 242.6,25.5 175.4,-8.1" fill="#6d4d3d" stroke="#1e0702" stroke-width="2.6" stroke-linejoin="round"/>
<polygon points="242.6,118.7 263.0,108.5 263.0,15.2 242.6,25.5" fill="#593627" stroke="#1e0702" stroke-width="2.6" stroke-linejoin="round"/>
<polygon points="195.8,-18.4 263.0,15.2 242.6,25.5 175.4,-8.1" fill="#9b7c68" stroke="#1e0702" stroke-width="2.6" stroke-linejoin="round"/>
<line x1="195.8" y1="60.1" x2="263.0" y2="93.7" stroke="#3f1c0d" stroke-width="1.6" stroke-linecap="round"/>
<polygon points="197.2,62.3 211.2,62.3 211.2,42.3 197.2,42.3" fill="#3f1c0d" stroke="#1e0702" stroke-width="1.6" stroke-linejoin="round"/>
<polygon points="214.0,70.7 228.0,70.7 228.0,50.7 214.0,50.7" fill="#3f1c0d" stroke="#1e0702" stroke-width="1.6" stroke-linejoin="round"/>
<polygon points="230.8,79.1 244.8,79.1 244.8,59.1 230.8,59.1" fill="#3f1c0d" stroke="#1e0702" stroke-width="1.6" stroke-linejoin="round"/>
<polygon points="247.6,87.5 261.6,87.5 261.6,67.5 247.6,67.5" fill="#3f1c0d" stroke="#1e0702" stroke-width="1.6" stroke-linejoin="round"/>
<circle cx="204.2" cy="52.3" r="4.5" fill="#fadfba" stroke="#1e0702" stroke-width="1.6"/>
<circle cx="221.0" cy="60.7" r="4.5" fill="#fadfba" stroke="#1e0702" stroke-width="1.6"/>
<circle cx="237.8" cy="69.1" r="4.5" fill="#fadfba" stroke="#1e0702" stroke-width="1.6"/>
<circle cx="254.6" cy="77.5" r="4.5" fill="#fadfba" stroke="#1e0702" stroke-width="1.6"/>
<line x1="195.8" y1="34.9" x2="263.0" y2="68.5" stroke="#3f1c0d" stroke-width="1.6" stroke-linecap="round"/>
<polygon points="197.2,37.1 211.2,37.1 211.2,17.1 197.2,17.1" fill="#3f1c0d" stroke="#1e0702" stroke-width="1.6" stroke-linejoin="round"/>
<polygon points="214.0,45.5 228.0,45.5 228.0,25.5 214.0,25.5" fill="#3f1c0d" stroke="#1e0702" stroke-width="1.6" stroke-linejoin="round"/>
<polygon points="230.8,53.9 244.8,53.9 244.8,33.9 230.8,33.9" fill="#3f1c0d" stroke="#1e0702" stroke-width="1.6" stroke-linejoin="round"/>
<polygon points="247.6,62.3 261.6,62.3 261.6,42.3 247.6,42.3" fill="#3f1c0d" stroke="#1e0702" stroke-width="1.6" stroke-linejoin="round"/>
<circle cx="204.2" cy="27.1" r="4.5" fill="#fadfba" stroke="#1e0702" stroke-width="1.6"/>
<circle cx="221.0" cy="35.5" r="4.5" fill="#fadfba" stroke="#1e0702" stroke-width="1.6"/>
<circle cx="237.8" cy="43.9" r="4.5" fill="#fadfba" stroke="#1e0702" stroke-width="1.6"/>
<circle cx="254.6" cy="52.3" r="4.5" fill="#fadfba" stroke="#1e0702" stroke-width="1.6"/>
<line x1="195.8" y1="9.8" x2="263.0" y2="43.4" stroke="#3f1c0d" stroke-width="1.6" stroke-linecap="round"/>
<polygon points="197.2,12.0 211.2,12.0 211.2,-8.0 197.2,-8.0" fill="#3f1c0d" stroke="#1e0702" stroke-width="1.6" stroke-linejoin="round"/>
<polygon points="214.0,20.4 228.0,20.4 228.0,0.4 214.0,0.4" fill="#3f1c0d" stroke="#1e0702" stroke-width="1.6" stroke-linejoin="round"/>
<polygon points="230.8,28.8 244.8,28.8 244.8,8.8 230.8,8.8" fill="#3f1c0d" stroke="#1e0702" stroke-width="1.6" stroke-linejoin="round"/>
<polygon points="247.6,37.2 261.6,37.2 261.6,17.2 247.6,17.2" fill="#3f1c0d" stroke="#1e0702" stroke-width="1.6" stroke-linejoin="round"/>
<circle cx="204.2" cy="2.0" r="4.5" fill="#fadfba" stroke="#1e0702" stroke-width="1.6"/>
<circle cx="221.0" cy="10.4" r="4.5" fill="#fadfba" stroke="#1e0702" stroke-width="1.6"/>
<circle cx="237.8" cy="18.8" r="4.5" fill="#fadfba" stroke="#1e0702" stroke-width="1.6"/>
<circle cx="254.6" cy="27.2" r="4.5" fill="#fadfba" stroke="#1e0702" stroke-width="1.6"/>
<ellipse cx="38.4" cy="103.8" rx="33.3" ry="16.6" fill="#d7b791" stroke="#1e0702" stroke-width="2.6"/>
<line x1="38.4" y1="103.8" x2="42.4" y2="83.8" stroke="#6b6258" stroke-width="2.6" stroke-linecap="round"/>
<polygon points="12.8,140.8 38.4,153.6 38.4,116.6 12.8,103.8" fill="#ad8c75" stroke="#1e0702" stroke-width="2.6" stroke-linejoin="round"/>
<polygon points="38.4,153.6 64.0,140.8 64.0,103.8 38.4,116.6" fill="#846859" stroke="#1e0702" stroke-width="2.6" stroke-linejoin="round"/>
<polygon points="38.4,91.0 64.0,103.8 38.4,116.6 12.8,103.8" fill="#d7b791" stroke="#1e0702" stroke-width="2.6" stroke-linejoin="round"/>
<circle cx="147.2" cy="144.6" r="11.6" fill="#6e7d48" stroke="#1e0702" stroke-width="2.6"/>
<circle cx="140.2" cy="148.1" r="8.2" fill="#4d5a36" stroke="#1e0702" stroke-width="1.6"/>
<circle cx="153.6" cy="146.9" r="7.2" fill="#8a9a5c" stroke="#1e0702" stroke-width="1.6"/>
<circle cx="32.0" cy="93.7" r="16.6" fill="#6e7d48" stroke="#1e0702" stroke-width="2.6"/>
<circle cx="22.0" cy="98.7" r="11.6" fill="#4d5a36" stroke="#1e0702" stroke-width="1.6"/>
<circle cx="41.2" cy="97.0" r="10.3" fill="#8a9a5c" stroke="#1e0702" stroke-width="1.6"/>
<line x1="-114.8" y1="182.4" x2="-117.8" y2="169.4" stroke="#6e7d48" stroke-width="1.6" stroke-linecap="round"/>
<line x1="-108.8" y1="182.4" x2="-108.8" y2="164.4" stroke="#6e7d48" stroke-width="1.6" stroke-linecap="round"/>
<line x1="-102.8" y1="182.4" x2="-99.8" y2="170.4" stroke="#6e7d48" stroke-width="1.6" stroke-linecap="round"/>
<line x1="45.2" y1="204.8" x2="42.2" y2="191.8" stroke="#6e7d48" stroke-width="1.6" stroke-linecap="round"/>
<line x1="51.2" y1="204.8" x2="51.2" y2="186.8" stroke="#6e7d48" stroke-width="1.6" stroke-linecap="round"/>
<line x1="57.2" y1="204.8" x2="60.2" y2="192.8" stroke="#6e7d48" stroke-width="1.6" stroke-linecap="round"/>
</svg>
