<svg xmlns="http://www.w3.org/2000/svg" viewBox="-640 -760 1280 1120" width="1280" height="1120">
<rect x="-640" y="-760" width="1280" height="1120" fill="#ffffff"/>
<polygon points="-512.0,0.0 0.0,256.0 0.0,263.4 -512.0,7.4" fill="#947864" stroke="#1e0702" stroke-width="5.0" stroke-linejoin="round"/>
<polygon points="0.0,256.0 512.0,0.0 512.0,7.4 0.0,263.4" fill="#6c5548" stroke="#1e0702" stroke-width="5.0" stroke-linejoin="round"/>
<polygon points="0.0,-256.0 512.0,0.0 0.0,256.0 -512.0,0.0" fill="#cfa278" stroke="#1e0702" stroke-width="5.0" stroke-linejoin="round"/>
<ellipse cx="-204.8" cy="-12.8" rx="59.1" ry="29.6" fill="#b7947c" stroke="none" fill-opacity="0.35"/>
<ellipse cx="204.8" cy="0.0" rx="48.4" ry="24.2" fill="#b7947c" stroke="none" fill-opacity="0.35"/>
<ellipse cx="-140.8" cy="70.4" rx="37.6" ry="18.8" fill="#b7947c" stroke="none" fill-opacity="0.35"/>
<ellipse cx="51.2" cy="128.0" rx="43.0" ry="21.5" fill="#b7947c" stroke="none" fill-opacity="0.35"/>
<polygon points="-336.0,-65.6 -224.0,-9.6 -345.6,51.2 -457.6,-4.8" fill="#d7b791" stroke="#1e0702" stroke-width="2.6" stroke-linejoin="round"/>
<polygon points="-384.0,-64.0 128.0,192.0 51.2,230.4 -460.8,-25.6" fill="#b7947c" stroke="#1e0702" stroke-width="2.6" stroke-linejoin="round"/>
<line x1="-298.7" y1="-46.9" x2="-420.3" y2="13.9" stroke="#846859" stroke-width="1.6" stroke-linecap="round"/>
<line x1="-261.3" y1="-28.3" x2="-382.9" y2="32.5" stroke="#846859" stroke-width="1.6" stroke-linecap="round"/>
<line x1="-366.4" y1="-50.4" x2="-254.4" y2="5.6" stroke="#846859" stroke-width="1.6" stroke-linecap="round"/>
<line x1="-396.8" y1="-35.2" x2="-284.8" y2="20.8" stroke="#846859" stroke-width="1.6" stroke-linecap="round"/>
<line x1="-427.2" y1="-20.0" x2="-315.2" y2="36.0" stroke="#846859" stroke-width="1.6" stroke-linecap="round"/>
<line x1="-320.0" y1="-32.0" x2="-396.8" y2="6.4" stroke="#846859" stroke-width="1.6" stroke-linecap="round"/>
<line x1="-256.0" y1="0.0" x2="-332.8" y2="38.4" stroke="#846859" stroke-width="1.6" stroke-linecap="round"/>
<line x1="-192.0" y1="32.0" x2="-268.8" y2="70.4" stroke="#846859" stroke-width="1.6" stroke-linecap="round"/>
<line x1="-128.0" y1="64.0" x2="-204.8" y2="102.4" stroke="#846859" stroke-width="1.6" stroke-linecap="round"/>
<line x1="-64.0" y1="96.0" x2="-140.8" y2="134.4" stroke="#846859" stroke-width="1.6" stroke-linecap="round"/>
<line x1="0.0" y1="128.0" x2="-76.8" y2="166.4" stroke="#846859" stroke-width="1.6" stroke-linecap="round"/>
<line x1="64.0" y1="160.0" x2="-12.8" y2="198.4" stroke="#846859" stroke-width="1.6" stroke-linecap="round"/>
<line x1="128.0" y1="192.0" x2="51.2" y2="230.4" stroke="#846859" stroke-width="1.6" stroke-linecap="round"/>
<line x1="-50.8" y1="-201.6" x2="-53.8" y2="-214.6" stroke="#6e7d48" stroke-width="1.6" stroke-linecap="round"/>
<line x1="-44.8" y1="-201.6" x2="-44.8" y2="-219.6" stroke="#6e7d48" stroke-width="1.6" stroke-linecap="round"/>
<line x1="-38.8" y1="-201.6" x2="-35.8" y2="-213.6" stroke="#6e7d48" stroke-width="1.6" stroke-linecap="round"/>
<circle cx="-115.2" cy="-160.3" r="13.3" fill="#6e7d48" stroke="#1e0702" stroke-width="2.6"/>
<circle cx="-123.2" cy="-156.3" r="9.3" fill="#4d5a36" stroke="#1e0702" stroke-width="1.6"/>
<circle cx="-107.9" cy="-157.6" r="8.3" fill="#8a9a5c" stroke="#1e0702" stroke-width="1.6"/>
<line x1="-230.0" y1="-118.4" x2="-233.0" y2="-131.4" stroke="#6e7d48" stroke-width="1.6" stroke-linecap="round"/>
<line x1="-224.0" y1="-118.4" x2="-224.0" y2="-136.4" stroke="#6e7d48" stroke-width="1.6" stroke-linecap="round"/>
<line x1="-218.0" y1="-118.4" x2="-215.0" y2="-130.4" stroke="#6e7d48" stroke-width="1.6" stroke-linecap="round"/>
<line x1="-163.2" y1="-6.6" x2="-119.2" y2="7.4" stroke="#6d4d3d" stroke-width="2.6" stroke-linecap="round"/>
<circle cx="-233.0" cy="-18.2" r="17.0" fill="#6d4d3d" stroke="#1e0702" stroke-width="2.6"/>
<circle cx="-188.2" cy="4.2" r="17.0" fill="#6d4d3d" stroke="#1e0702" stroke-width="2.6"/>
<circle cx="-233.0" cy="-18.2" r="5.0" fill="#3f1c0d" stroke="#1e0702" stroke-width="1.6"/>
<circle cx="-188.2" cy="4.2" r="5.0" fill="#3f1c0d" stroke="#1e0702" stroke-width="1.6"/>
<line x1="-409.2" y1="9.6" x2="-412.2" y2="-3.4" stroke="#6e7d48" stroke-width="1.6" stroke-linecap="round"/>
<line x1="-403.2" y1="9.6" x2="-403.2" y2="-8.4" stroke="#6e7d48" stroke-width="1.6" stroke-linecap="round"/>
<line x1="-397.2" y1="9.6" x2="-394.2" y2="-2.4" stroke="#6e7d48" stroke-width="1.6" stroke-linecap="round"/>
<line x1="403.6" y1="12.8" x2="400.6" y2="-0.2" stroke="#6e7d48" stroke-width="1.6" stroke-linecap="round"/>
<line x1="409.6" y1="12.8" x2="409.6" y2="-5.2" stroke="#6e7d48" stroke-width="1.6" stroke-linecap="round"/>
<line x1="415.6" y1="12.8" x2="418.6" y2="0.8" stroke="#6e7d48" stroke-width="1.6" stroke-linecap="round"/>
<polygon points="-236.8,-20.0 -179.2,8.8 -179.2,-10.4 -236.8,-39.2" fill="#6d4d3d" stroke="#1e0702" stroke-width="2.6" stroke-linejoin="round"/>
<polygon points="-179.2,8.8 -147.2,-7.2 -147.2,-26.4 -179.2,-10.4" fill="#593627" stroke="#1e0702" stroke-width="2.6" stroke-linejoin="round"/>
<polygon points="-204.8,-55.2 -147.2,-26.4 -179.2,-10.4 -236.8,-39.2" fill="#9b7c68" stroke="#1e0702" stroke-width="2.6" stroke-linejoin="round"/>
<line x1="-70.4" y1="73.6" x2="-51.2" y2="64.0" stroke="#3f1c0d" stroke-width="1.6" stroke-linecap="round"/>
<line x1="-70.4" y1="54.4" x2="-51.2" y2="83.2" stroke="#3f1c0d" stroke-width="1.6" stroke-linecap="round"/>
<polygon points="-70.4,73.6 -51.2,83.2 -51.2,64.0 -70.4,54.4" fill="#6d4d3d" stroke="#1e0702" stroke-width="2.6" stroke-linejoin="round"/>
<polygon points="-51.2,83.2 -32.0,73.6 -32.0,54.4 -51.2,64.0" fill="#593627" stroke="#1e0702" stroke-width="2.6" stroke-linejoin="round"/>
<polygon points="-51.2,44.8 -32.0,54.4 -51.2,64.0 -70.4,54.4" fill="#9b7c68" stroke="#1e0702" stroke-width="2.6" stroke-linejoin="round"/>
<line x1="-287.6" y1="89.6" x2="-290.6" y2="76.6" stroke="#6e7d48" stroke-width="1.6" stroke-linecap="round"/>
<line x1="-281.6" y1="89.6" x2="-281.6" y2="71.6" stroke="#6e7d48" stroke-width="1.6" stroke-linecap="round"/>
<line x1="-275.6" y1="89.6" x2="-272.6" y2="77.6" stroke="#6e7d48" stroke-width="1.6" stroke-linecap="round"/>
<polygon points="-115.2,-44.8 51.2,38.4 51.2,-46.7 -115.2,-129.9" fill="#e7ccab" stroke="#1e0702" stroke-width="5.0" stroke-linejoin="round"/>
<polygon points="51.2,38.4 192.0,-32.0 192.0,-117.1 51.2,-46.7" fill="#cfa278" stroke="#1e0702" stroke-width="5.0" stroke-linejoin="round"/>
<polygon points="25.6,-200.3 192.0,-117.1 51.2,-46.7 -115.2,-129.9" fill="#fadfba" stroke="#1e0702" stroke-width="5.0" stroke-linejoin="round"/>
<line x1="-73.6" y1="-24.0" x2="-73.6" y2="-45.3" stroke="#745b4e" stroke-width="1.6" stroke-linecap="round"/>
<line x1="156.8" y1="-14.4" x2="156.8" y2="-35.7" stroke="#745b4e" stroke-width="1.6" stroke-linecap="round"/>
<line x1="-32.0" y1="-3.2" x2="-32.0" y2="-24.5" stroke="#745b4e" stroke-width="1.6" stroke-linecap="round"/>
<line x1="121.6" y1="3.2" x2="121.6" y2="-18.1" stroke="#745b4e" stroke-width="1.6" stroke-linecap="round"/>
<line x1="9.6" y1="17.6" x2="9.6" y2="-3.7" stroke="#745b4e" stroke-width="1.6" stroke-linecap="round"/>
<line x1="86.4" y1="20.8" x2="86.4" y2="-0.5" stroke="#745b4e" stroke-width="1.6" stroke-linecap="round"/>
<line x1="-115.2" y1="-66.1" x2="51.2" y2="17.1" stroke="#745b4e" stroke-width="1.6" stroke-linecap="round"/>
<line x1="51.2" y1="17.1" x2="192.0" y2="-53.3" stroke="#745b4e" stroke-width="1.6" stroke-linecap="round"/>
<line x1="-52.8" y1="-34.9" x2="-52.8" y2="-56.1" stroke="#745b4e" stroke-width="1.6" stroke-linecap="round"/>
<line x1="139.2" y1="-26.9" x2="139.2" y2="-48.1" stroke="#745b4e" stroke-width="1.6" stroke-linecap="round"/>
<line x1="-11.2" y1="-14.1" x2="-11.2" y2="-35.3" stroke="#745b4e" stroke-width="1.6" stroke-linecap="round"/>
<line x1="104.0" y1="-9.3" x2="104.0" y2="-30.6" stroke="#745b4e" stroke-width="1.6" stroke-linecap="round"/>
<line x1="30.4" y1="6.7" x2="30.4" y2="-14.6" stroke="#745b4e" stroke-width="1.6" stroke-linecap="round"/>
<line x1="68.8" y1="8.3" x2="68.8" y2="-12.9" stroke="#745b4e" stroke-width="1.6" stroke-linecap="round"/>
<line x1="-115.2" y1="-87.4" x2="51.2" y2="-4.2" stroke="#745b4e" stroke-width="1.6" stroke-linecap="round"/>
<line x1="51.2" y1="-4.2" x2="192.0" y2="-74.6" stroke="#745b4e" stroke-width="1.6" stroke-linecap="round"/>
<line x1="-73.6" y1="-66.6" x2="-73.6" y2="-87.8" stroke="#745b4e" stroke-width="1.6" stroke-linecap="round"/>
<line x1="156.8" y1="-56.9" x2="156.8" y2="-78.2" stroke="#745b4e" stroke-width="1.6" stroke-linecap="round"/>
<line x1="-32.0" y1="-45.8" x2="-32.0" y2="-67.0" stroke="#745b4e" stroke-width="1.6" stroke-linecap="round"/>
<line x1="121.6" y1="-39.4" x2="121.6" y2="-60.6" stroke="#745b4e" stroke-width="1.6" stroke-linecap="round"/>
<line x1="9.6" y1="-24.9" x2="9.6" y2="-46.2" stroke="#745b4e" stroke-width="1.6" stroke-linecap="round"/>
<line x1="86.4" y1="-21.8" x2="86.4" y2="-43.0" stroke="#745b4e" stroke-width="1.6" stroke-linecap="round"/>
<line x1="-115.2" y1="-108.6" x2="51.2" y2="-25.4" stroke="#745b4e" stroke-width="1.6" stroke-linecap="round"/>
<line x1="51.2" y1="-25.4" x2="192.0" y2="-95.8" stroke="#745b4e" stroke-width="1.6" stroke-linecap="round"/>
<line x1="-52.8" y1="-77.4" x2="-52.8" y2="-98.7" stroke="#745b4e" stroke-width="1.6" stroke-linecap="round"/>
<line x1="139.2" y1="-69.4" x2="139.2" y2="-90.7" stroke="#745b4e" stroke-width="1.6" stroke-linecap="round"/>
<line x1="-11.2" y1="-56.6" x2="-11.2" y2="-77.9" stroke="#745b4e" stroke-width="1.6" stroke-linecap="round"/>
<line x1="104.0" y1="-51.8" x2="104.0" y2="-73.1" stroke="#745b4e" stroke-width="1.6" stroke-linecap="round"/>
<line x1="30.4" y1="-35.8" x2="30.4" y2="-57.1" stroke="#745b4e" stroke-width="1.6" stroke-linecap="round"/>
<line x1="68.8" y1="-34.2" x2="68.8" y2="-55.5" stroke="#745b4e" stroke-width="1.6" stroke-linecap="round"/>
<polygon points="-55.0,-14.7 -55.0,-50.0 -55.0,-50.0 -53.7,-62.4 -49.6,-73.4 -43.5,-81.5 -36.0,-85.8 -28.0,-85.8 -20.5,-81.5 -14.4,-73.4 -10.3,-62.4 -9.0,-50.0 -9.0,-50.0 -9.0,8.3" fill="#3f1c0d" stroke="#1e0702" stroke-width="2.6" stroke-linejoin="round"/>
<polyline points="-55.0,-50.0 -55.0,-50.0 -53.7,-62.4 -49.6,-73.4 -43.5,-81.5 -36.0,-85.8 -28.0,-85.8 -20.5,-81.5 -14.4,-73.4 -10.3,-62.4 -9.0,-50.0 -9.0,-50.0" fill="none" stroke="#d7b791" stroke-width="2.6" stroke-linejoin="round" stroke-linecap="round"/>
<polygon points="25.6,-218.2 227.8,-117.1 139.5,-117.3 -62.7,-218.5" fill="#95583e" stroke="#1e0702" stroke-width="5.0" stroke-linejoin="round"/>
<line x1="3.5" y1="-218.3" x2="205.8" y2="-117.2" stroke="#7a4531" stroke-width="1.6" stroke-linecap="round"/>
<line x1="-18.6" y1="-218.3" x2="183.7" y2="-117.2" stroke="#7a4531" stroke-width="1.6" stroke-linecap="round"/>
<line x1="-40.6" y1="-218.4" x2="161.6" y2="-117.3" stroke="#7a4531" stroke-width="1.6" stroke-linecap="round"/>
<line x1="42.5" y1="-209.8" x2="-45.9" y2="-210.0" stroke="#7a4531" stroke-width="1.6" stroke-linecap="round"/>
<line x1="59.3" y1="-201.4" x2="-29.0" y2="-201.6" stroke="#7a4531" stroke-width="1.6" stroke-linecap="round"/>
<line x1="76.2" y1="-192.9" x2="-12.2" y2="-193.2" stroke="#7a4531" stroke-width="1.6" stroke-linecap="round"/>
<line x1="93.0" y1="-184.5" x2="4.7" y2="-184.8" stroke="#7a4531" stroke-width="1.6" stroke-linecap="round"/>
<line x1="109.9" y1="-176.1" x2="21.5" y2="-176.3" stroke="#7a4531" stroke-width="1.6" stroke-linecap="round"/>
<line x1="126.7" y1="-167.7" x2="38.4" y2="-167.9" stroke="#7a4531" stroke-width="1.6" stroke-linecap="round"/>
<line x1="143.6" y1="-159.2" x2="55.3" y2="-159.5" stroke="#7a4531" stroke-width="1.6" stroke-linecap="round"/>
<line x1="160.4" y1="-150.8" x2="72.1" y2="-151.0" stroke="#7a4531" stroke-width="1.6" stroke-linecap="round"/>
<line x1="177.3" y1="-142.4" x2="89.0" y2="-142.6" stroke="#7a4531" stroke-width="1.6" stroke-linecap="round"/>
<line x1="194.1" y1="-134.0" x2="105.8" y2="-134.2" stroke="#7a4531" stroke-width="1.6" stroke-linecap="round"/>
<line x1="211.0" y1="-125.5" x2="122.7" y2="-125.8" stroke="#7a4531" stroke-width="1.6" stroke-linecap="round"/>
<polygon points="-151.0,-129.9 51.2,-28.8 139.5,-117.3 -62.7,-218.5" fill="#e98f5d" stroke="#1e0702" stroke-width="5.0" stroke-linejoin="round"/>
<line x1="-133.4" y1="-147.6" x2="68.9" y2="-46.5" stroke="#7a4531" stroke-width="1.6" stroke-linecap="round"/>
<line x1="-115.7" y1="-165.3" x2="86.5" y2="-64.2" stroke="#7a4531" stroke-width="1.6" stroke-linecap="round"/>
<line x1="-98.0" y1="-183.0" x2="104.2" y2="-81.9" stroke="#7a4531" stroke-width="1.6" stroke-linecap="round"/>
<line x1="-80.4" y1="-200.7" x2="121.9" y2="-99.6" stroke="#7a4531" stroke-width="1.6" stroke-linecap="round"/>
<line x1="-136.6" y1="-122.7" x2="-48.3" y2="-211.2" stroke="#7a4531" stroke-width="1.6" stroke-linecap="round"/>
<line x1="-122.1" y1="-115.5" x2="-33.8" y2="-204.0" stroke="#7a4531" stroke-width="1.6" stroke-linecap="round"/>
<line x1="-107.7" y1="-108.2" x2="-19.4" y2="-196.8" stroke="#7a4531" stroke-width="1.6" stroke-linecap="round"/>
<line x1="-93.3" y1="-101.0" x2="-4.9" y2="-189.6" stroke="#7a4531" stroke-width="1.6" stroke-linecap="round"/>
<line x1="-78.8" y1="-93.8" x2="9.5" y2="-182.3" stroke="#7a4531" stroke-width="1.6" stroke-linecap="round"/>
<line x1="-64.4" y1="-86.6" x2="24.0" y2="-175.1" stroke="#7a4531" stroke-width="1.6" stroke-linecap="round"/>
<line x1="-49.9" y1="-79.3" x2="38.4" y2="-167.9" stroke="#7a4531" stroke-width="1.6" stroke-linecap="round"/>
<line x1="-35.5" y1="-72.1" x2="52.8" y2="-160.7" stroke="#7a4531" stroke-width="1.6" stroke-linecap="round"/>
<line x1="-21.0" y1="-64.9" x2="67.3" y2="-153.5" stroke="#7a4531" stroke-width="1.6" stroke-linecap="round"/>
<line x1="-6.6" y1="-57.7" x2="81.7" y2="-146.2" stroke="#7a4531" stroke-width="1.6" stroke-linecap="round"/>
<line x1="7.9" y1="-50.4" x2="96.2" y2="-139.0" stroke="#7a4531" stroke-width="1.6" stroke-linecap="round"/>
<line x1="22.3" y1="-43.2" x2="110.6" y2="-131.8" stroke="#7a4531" stroke-width="1.6" stroke-linecap="round"/>
<line x1="36.8" y1="-36.0" x2="125.1" y2="-124.6" stroke="#7a4531" stroke-width="1.6" stroke-linecap="round"/>
<polygon points="25.6,-218.2 -151.0,-129.9 -62.7,-218.5" fill="#e7ccab" stroke="#1e0702" stroke-width="5.0" stroke-linejoin="round"/>
<polygon points="227.8,-117.1 51.2,-28.8 139.5,-117.3" fill="#cfa278" stroke="#1e0702" stroke-width="5.0" stroke-linejoin="round"/>
<line x1="-62.7" y1="-218.5" x2="139.5" y2="-117.3" stroke="#7a4531" stroke-width="2.6" stroke-linecap="round"/>
<polygon points="51.2,51.2 134.4,92.8 134.4,22.5 51.2,-19.1" fill="#593627" stroke="#1e0702" stroke-width="5.0" stroke-linejoin="round"/>
<polygon points="134.4,92.8 262.4,28.8 262.4,-41.5 134.4,22.5" fill="#3f1c0d" stroke="#1e0702" stroke-width="5.0" stroke-linejoin="round"/>
<polygon points="179.2,-83.1 262.4,-41.5 134.4,22.5 51.2,-19.1" fill="#6d4d3d" stroke="#1e0702" stroke-width="5.0" stroke-linejoin="round"/>
<line x1="72.0" y1="61.6" x2="72.0" y2="-8.7" stroke="#3f1c0d" stroke-width="1.6" stroke-linecap="round"/>
<line x1="230.4" y1="44.8" x2="230.4" y2="-25.5" stroke="#3f1c0d" stroke-width="1.6" stroke-linecap="round"/>
<line x1="92.8" y1="72.0" x2="92.8" y2="1.7" stroke="#3f1c0d" stroke-width="1.6" stroke-linecap="round"/>
<line x1="198.4" y1="60.8" x2="198.4" y2="-9.5" stroke="#3f1c0d" stroke-width="1.6" stroke-linecap="round"/>
<line x1="113.6" y1="82.4" x2="113.6" y2="12.1" stroke="#3f1c0d" stroke-width="1.6" stroke-linecap="round"/>
<line x1="166.4" y1="76.8" x2="166.4" y2="6.5" stroke="#3f1c0d" stroke-width="1.6" stroke-linecap="round"/>
<polygon points="179.2,-101.0 15.4,-19.1 74.9,-22.6 238.7,-104.6" fill="#c4724c" stroke="#1e0702" stroke-width="5.0" stroke-linejoin="round"/>
<line x1="194.1" y1="-101.9" x2="30.2" y2="-20.0" stroke="#7a4531" stroke-width="1.6" stroke-linecap="round"/>
<line x1="209.0" y1="-102.8" x2="45.1" y2="-20.9" stroke="#7a4531" stroke-width="1.6" stroke-linecap="round"/>
<line x1="223.8" y1="-103.7" x2="60.0" y2="-21.8" stroke="#7a4531" stroke-width="1.6" stroke-linecap="round"/>
<line x1="165.5" y1="-94.2" x2="225.1" y2="-97.7" stroke="#7a4531" stroke-width="1.6" stroke-linecap="round"/>
<line x1="151.9" y1="-87.4" x2="211.4" y2="-90.9" stroke="#7a4531" stroke-width="1.6" stroke-linecap="round"/>
<line x1="138.2" y1="-80.5" x2="197.8" y2="-84.1" stroke="#7a4531" stroke-width="1.6" stroke-linecap="round"/>
<line x1="124.6" y1="-73.7" x2="184.1" y2="-77.3" stroke="#7a4531" stroke-width="1.6" stroke-linecap="round"/>
<line x1="110.9" y1="-66.9" x2="170.5" y2="-70.4" stroke="#7a4531" stroke-width="1.6" stroke-linecap="round"/>
<line x1="97.3" y1="-60.1" x2="156.8" y2="-63.6" stroke="#7a4531" stroke-width="1.6" stroke-linecap="round"/>
<line x1="83.6" y1="-53.2" x2="143.1" y2="-56.8" stroke="#7a4531" stroke-width="1.6" stroke-linecap="round"/>
<line x1="70.0" y1="-46.4" x2="129.5" y2="-49.9" stroke="#7a4531" stroke-width="1.6" stroke-linecap="round"/>
<line x1="56.3" y1="-39.6" x2="115.8" y2="-43.1" stroke="#7a4531" stroke-width="1.6" stroke-linecap="round"/>
<line x1="42.7" y1="-32.8" x2="102.2" y2="-36.3" stroke="#7a4531" stroke-width="1.6" stroke-linecap="round"/>
<line x1="29.0" y1="-25.9" x2="88.5" y2="-29.5" stroke="#7a4531" stroke-width="1.6" stroke-linecap="round"/>
<polygon points="298.2,-41.5 134.4,40.4 74.9,-22.6 238.7,-104.6" fill="#95583e" stroke="#1e0702" stroke-width="5.0" stroke-linejoin="round"/>
<line x1="286.3" y1="-54.1" x2="122.5" y2="27.8" stroke="#7a4531" stroke-width="1.6" stroke-linecap="round"/>
<line x1="274.4" y1="-66.7" x2="110.6" y2="15.2" stroke="#7a4531" stroke-width="1.6" stroke-linecap="round"/>
<line x1="262.5" y1="-79.3" x2="98.7" y2="2.6" stroke="#7a4531" stroke-width="1.6" stroke-linecap="round"/>
<line x1="250.6" y1="-91.9" x2="86.8" y2="-10.0" stroke="#7a4531" stroke-width="1.6" stroke-linecap="round"/>
<line x1="286.5" y1="-35.6" x2="227.0" y2="-98.7" stroke="#7a4531" stroke-width="1.6" stroke-linecap="round"/>
<line x1="274.8" y1="-29.8" x2="215.3" y2="-92.9" stroke="#7a4531" stroke-width="1.6" stroke-linecap="round"/>
<line x1="263.1" y1="-23.9" x2="203.6" y2="-87.0" stroke="#7a4531" stroke-width="1.6" stroke-linecap="round"/>
<line x1="251.4" y1="-18.1" x2="191.9" y2="-81.2" stroke="#7a4531" stroke-width="1.6" stroke-linecap="round"/>
<line x1="239.7" y1="-12.2" x2="180.2" y2="-75.3" stroke="#7a4531" stroke-width="1.6" stroke-linecap="round"/>
<line x1="228.0" y1="-6.4" x2="168.5" y2="-69.5" stroke="#7a4531" stroke-width="1.6" stroke-linecap="round"/>
<line x1="216.3" y1="-0.5" x2="156.8" y2="-63.6" stroke="#7a4531" stroke-width="1.6" stroke-linecap="round"/>
<line x1="204.6" y1="5.3" x2="145.1" y2="-57.7" stroke="#7a4531" stroke-width="1.6" stroke-linecap="round"/>
<line x1="192.9" y1="11.2" x2="133.4" y2="-51.9" stroke="#7a4531" stroke-width="1.6" stroke-linecap="round"/>
<line x1="181.2" y1="17.0" x2="121.7" y2="-46.0" stroke="#7a4531" stroke-width="1.6" stroke-linecap="round"/>
<line x1="169.5" y1="22.9" x2="110.0" y2="-40.2" stroke="#7a4531" stroke-width="1.6" stroke-linecap="round"/>
<line x1="157.8" y1="28.7" x2="98.3" y2="-34.3" stroke="#7a4531" stroke-width="1.6" stroke-linecap="round"/>
<line x1="146.1" y1="34.6" x2="86.6" y2="-28.5" stroke="#7a4531" stroke-width="1.6" stroke-linecap="round"/>
<polygon points="179.2,-101.0 298.2,-41.5 238.7,-104.6" fill="#6d4d3d" stroke="#1e0702" stroke-width="5.0" stroke-linejoin="round"/>
<polygon points="15.4,-19.1 134.4,40.4 74.9,-22.6" fill="#593627" stroke="#1e0702" stroke-width="5.0" stroke-linejoin="round"/>
<line x1="238.7" y1="-104.6" x2="74.9" y2="-22.6" stroke="#7a4531" stroke-width="2.6" stroke-linecap="round"/>
<line x1="269.2" y1="99.2" x2="266.2" y2="86.2" stroke="#6e7d48" stroke-width="1.6" stroke-linecap="round"/>
<line x1="275.2" y1="99.2" x2="275.2" y2="81.2" stroke="#6e7d48" stroke-width="1.6" stroke-linecap="round"/>
<line x1="281.2" y1="99.2" x2="284.2" y2="87.2" stroke="#6e7d48" stroke-width="1.6" stroke-linecap="round"/>
<polygon points="54.4,107.2 76.8,118.4 76.8,66.6 54.4,55.4" fill="#ad8c75" stroke="#1e0702" stroke-width="2.6" stroke-linejoin="round"/>
<polygon points="76.8,118.4 99.2,107.2 99.2,55.4 76.8,66.6" fill="#846859" stroke="#1e0702" stroke-width="2.6" stroke-linejoin="round"/>
<polygon points="76.8,44.2 99.2,55.4 76.8,66.6 54.4,55.4" fill="#d7b791" stroke="#1e0702" stroke-width="2.6" stroke-linejoin="round"/>
<polygon points="56.8,131.2 53.8,118.6 56.8,106.0 84.0,106.0 87.0,118.6 84.0,131.2" fill="#9b7c68" stroke="#1e0702" stroke-width="2.6" stroke-linejoin="round"/>
<ellipse cx="70.4" cy="106.0" rx="13.6" ry="5.7" fill="#6d4d3d" stroke="#1e0702" stroke-width="2.6"/>
<line x1="54.4" y1="123.7" x2="86.4" y2="123.7" stroke="#6b6258" stroke-width="1.6" stroke-linecap="round"/>
<line x1="54.4" y1="113.6" x2="86.4" y2="113.6" stroke="#6b6258" stroke-width="1.6" stroke-linecap="round"/>
<circle cx="147.2" cy="144.6" r="11.6" fill="#6e7d48" stroke="#1e0702" stroke-width="2.6"/>
<circle cx="140.2" cy="148.1" r="8.2" fill="#4d5a36" stroke="#1e0702" stroke-width="1.6"/>
<circle cx="153.6" cy="146.9" r="7.2" fill="#8a9a5c" stroke="#1e0702" stroke-width="1.6"/>
<line x1="-114.8" y1="182.4" x2="-117.8" y2="169.4" stroke="#6e7d48" stroke-width="1.6" stroke-linecap="round"/>
<line x1="-108.8" y1="182.4" x2="-108.8" y2="164.4" stroke="#6e7d48" stroke-width="1.6" stroke-linecap="round"/>
<line x1="-102.8" y1="182.4" x2="-99.8" y2="170.4" stroke="#6e7d48" stroke-width="1.6" stroke-linecap="round"/>
<line x1="45.2" y1="204.8" x2="42.2" y2="191.8" stroke="#6e7d48" stroke-width="1.6" stroke-linecap="round"/>
<line x1="51.2" y1="204.8" x2="51.2" y2="186.8" stroke="#6e7d48" stroke-width="1.6" stroke-linecap="round"/>
<line x1="57.2" y1="204.8" x2="60.2" y2="192.8" stroke="#6e7d48" stroke-width="1.6" stroke-linecap="round"/>
</svg>
