<svg xmlns="http://www.w3.org/2000/svg" viewBox="-640 -760 1280 1120" width="1280" height="1120">
<rect x="-640" y="-760" width="1280" height="1120" fill="#ffffff"/>
<polygon points="-512.0,0.0 0.0,256.0 0.0,263.4 -512.0,7.4" fill="#a2836d" stroke="#765d50" stroke-width="1.6" stroke-linejoin="round"/>
<polygon points="0.0,256.0 512.0,0.0 512.0,7.4 0.0,263.4" fill="#765d50" stroke="#765d50" stroke-width="1.6" stroke-linejoin="round"/>
<polygon points="0.0,-256.0 512.0,0.0 0.0,256.0 -512.0,0.0" fill="#cfa278" stroke="#9b7e69" stroke-width="1.6" stroke-linejoin="round"/>
<ellipse cx="-204.8" cy="-12.8" rx="59.1" ry="29.6" fill="#b7947c" stroke="none" fill-opacity="0.35"/>
<ellipse cx="204.8" cy="0.0" rx="48.4" ry="24.2" fill="#b7947c" stroke="none" fill-opacity="0.35"/>
<ellipse cx="-140.8" cy="70.4" rx="37.6" ry="18.8" fill="#b7947c" stroke="none" fill-opacity="0.35"/>
<ellipse cx="51.2" cy="128.0" rx="43.0" ry="21.5" fill="#b7947c" stroke="none" fill-opacity="0.35"/>
<polygon points="-336.0,-65.6 -224.0,-9.6 -345.6,51.2 -457.6,-4.8" fill="#d7b791" stroke="#1e0702" stroke-width="2.6" stroke-linejoin="round"/>
<polygon points="-384.0,-64.0 128.0,192.0 51.2,230.4 -460.8,-25.6" fill="#b7947c" stroke="#1e0702" stroke-width="2.6" stroke-linejoin="round"/>
<line x1="-298.7" y1="-46.9" x2="-420.3" y2="13.9" stroke="#846859" stroke-width="1.6" stroke-linecap="round"/>
<line x1="-261.3" y1="-28.3" x2="-382.9" y2="32.5" stroke="#846859" stroke-width="1.6" stroke-linecap="round"/>
<line x1="-366.4" y1="-50.4" x2="-254.4" y2="5.6" stroke="#846859" stroke-width="1.6" stroke-linecap="round"/>
<line x1="-396.8" y1="-35.2" x2="-284.8" y2="20.8" stroke="#846859" stroke-width="1.6" stroke-linecap="round"/>
<line x1="-427.2" y1="-20.0" x2="-315.2" y2="36.0" stroke="#846859" stroke-width="1.6" stroke-linecap="round"/>
<line x1="-320.0" y1="-32.0" x2="-396.8" y2="6.4" stroke="#846859" stroke-width="1.6" stroke-linecap="round"/>
<line x1="-256.0" y1="0.0" x2="-332.8" y2="38.4" stroke="#846859" stroke-width="1.6" stroke-linecap="round"/>
<line x1="-192.0" y1="32.0" x2="-268.8" y2="70.4" stroke="#846859" stroke-width="1.6" stroke-linecap="round"/>
<line x1="-128.0" y1="64.0" x2="-204.8" y2="102.4" stroke="#846859" stroke-width="1.6" stroke-linecap="round"/>
<line x1="-64.0" y1="96.0" x2="-140.8" y2="134.4" stroke="#846859" stroke-width="1.6" stroke-linecap="round"/>
<line x1="0.0" y1="128.0" x2="-76.8" y2="166.4" stroke="#846859" stroke-width="1.6" stroke-linecap="round"/>
<line x1="64.0" y1="160.0" x2="-12.8" y2="198.4" stroke="#846859" stroke-width="1.6" stroke-linecap="round"/>
<line x1="128.0" y1="192.0" x2="51.2" y2="230.4" stroke="#846859" stroke-width="1.6" stroke-linecap="round"/>
<line x1="-50.8" y1="-201.6" x2="-53.8" y2="-214.6" stroke="#6e7d48" stroke-width="1.6" stroke-linecap="round"/>
<line x1="-44.8" y1="-201.6" x2="-44.8" y2="-219.6" stroke="#6e7d48" stroke-width="1.6" stroke-linecap="round"/>
<line x1="-38.8" y1="-201.6" x2="-35.8" y2="-213.6" stroke="#6e7d48" stroke-width="1.6" stroke-linecap="round"/>
<circle cx="-115.2" cy="-160.3" r="13.3" fill="#6e7d48" stroke="#1e0702" stroke-width="2.6"/>
<circle cx="-123.2" cy="-156.3" r="9.3" fill="#4d5a36" stroke="#1e0702" stroke-width="1.6"/>
<circle cx="-107.9" cy="-157.6" r="8.3" fill="#8a9a5c" stroke="#1e0702" stroke-width="1.6"/>
<line x1="-230.0" y1="-118.4" x2="-233.0" y2="-131.4" stroke="#6e7d48" stroke-width="1.6" stroke-linecap="round"/>
<line x1="-224.0" y1="-118.4" x2="-224.0" y2="-136.4" stroke="#6e7d48" stroke-width="1.6" stroke-linecap="round"/>
<line x1="-218.0" y1="-118.4" x2="-215.0" y2="-130.4" stroke="#6e7d48" stroke-width="1.6" stroke-linecap="round"/>
<line x1="-179.2" y1="-25.6" x2="-179.2" y2="-83.6" stroke="#6d4d3d" stroke-width="5.0" stroke-linecap="round"/>
<line x1="-203.2" y1="-71.6" x2="-155.2" y2="-75.6" stroke="#6d4d3d" stroke-width="2.6" stroke-linecap="round"/>
<line x1="-409.2" y1="9.6" x2="-412.2" y2="-3.4" stroke="#6e7d48" stroke-width="1.6" stroke-linecap="round"/>
<line x1="-403.2" y1="9.6" x2="-403.2" y2="-8.4" stroke="#6e7d48" stroke-width="1.6" stroke-linecap="round"/>
<line x1="-397.2" y1="9.6" x2="-394.2" y2="-2.4" stroke="#6e7d48" stroke-width="1.6" stroke-linecap="round"/>
<line x1="403.6" y1="12.8" x2="400.6" y2="-0.2" stroke="#6e7d48" stroke-width="1.6" stroke-linecap="round"/>
<line x1="409.6" y1="12.8" x2="409.6" y2="-5.2" stroke="#6e7d48" stroke-width="1.6" stroke-linecap="round"/>
<line x1="415.6" y1="12.8" x2="418.6" y2="0.8" stroke="#6e7d48" stroke-width="1.6" stroke-linecap="round"/>
<polygon points="-89.6,-19.2 70.4,60.8 70.4,-5.8 -89.6,-85.8" fill="#593627" stroke="#1e0702" stroke-width="5.0" stroke-linejoin="round"/>
<polygon points="70.4,60.8 198.4,-3.2 198.4,-69.8 70.4,-5.8" fill="#3f1c0d" stroke="#1e0702" stroke-width="5.0" stroke-linejoin="round"/>
<polygon points="38.4,-149.8 198.4,-69.8 70.4,-5.8 -89.6,-85.8" fill="#6d4d3d" stroke="#1e0702" stroke-width="5.0" stroke-linejoin="round"/>
<line x1="-62.9" y1="-5.9" x2="-62.9" y2="-72.5" stroke="#3f1c0d" stroke-width="1.6" stroke-linecap="round"/>
<line x1="177.1" y1="7.5" x2="177.1" y2="-59.1" stroke="#3f1c0d" stroke-width="1.6" stroke-linecap="round"/>
<line x1="-36.3" y1="7.5" x2="-36.3" y2="-59.1" stroke="#3f1c0d" stroke-width="1.6" stroke-linecap="round"/>
<line x1="155.7" y1="18.1" x2="155.7" y2="-48.5" stroke="#3f1c0d" stroke-width="1.6" stroke-linecap="round"/>
<line x1="-9.6" y1="20.8" x2="-9.6" y2="-45.8" stroke="#3f1c0d" stroke-width="1.6" stroke-linecap="round"/>
<line x1="134.4" y1="28.8" x2="134.4" y2="-37.8" stroke="#3f1c0d" stroke-width="1.6" stroke-linecap="round"/>
<line x1="17.1" y1="34.1" x2="17.1" y2="-32.5" stroke="#3f1c0d" stroke-width="1.6" stroke-linecap="round"/>
<line x1="113.1" y1="39.5" x2="113.1" y2="-27.1" stroke="#3f1c0d" stroke-width="1.6" stroke-linecap="round"/>
<line x1="43.7" y1="47.5" x2="43.7" y2="-19.1" stroke="#3f1c0d" stroke-width="1.6" stroke-linecap="round"/>
<line x1="91.7" y1="50.1" x2="91.7" y2="-16.5" stroke="#3f1c0d" stroke-width="1.6" stroke-linecap="round"/>
<polygon points="-32.6,9.3 -32.6,-17.4 -32.6,-17.4 -31.4,-27.2 -28.0,-35.7 -22.7,-42.1 -16.2,-45.5 -9.4,-45.5 -2.9,-42.1 2.4,-35.7 5.8,-27.2 7.0,-17.4 7.0,-17.4 7.0,29.1" fill="#3f1c0d" stroke="#1e0702" stroke-width="2.6" stroke-linejoin="round"/>
<polyline points="-32.6,-17.4 -32.6,-17.4 -31.4,-27.2 -28.0,-35.7 -22.7,-42.1 -16.2,-45.5 -9.4,-45.5 -2.9,-42.1 2.4,-35.7 5.8,-27.2 7.0,-17.4 7.0,-17.4" fill="none" stroke="#d7b791" stroke-width="2.6" stroke-linejoin="round" stroke-linecap="round"/>
<polygon points="38.4,-167.7 234.2,-69.8 152.3,-67.3 -43.5,-165.2" fill="#95583e" stroke="#1e0702" stroke-width="5.0" stroke-linejoin="round"/>
<line x1="17.9" y1="-167.1" x2="213.8" y2="-69.2" stroke="#7a4531" stroke-width="1.6" stroke-linecap="round"/>
<line x1="-2.6" y1="-166.5" x2="193.3" y2="-68.6" stroke="#7a4531" stroke-width="1.6" stroke-linecap="round"/>
<line x1="-23.0" y1="-165.9" x2="172.8" y2="-67.9" stroke="#7a4531" stroke-width="1.6" stroke-linecap="round"/>
<line x1="54.7" y1="-159.6" x2="-27.2" y2="-157.1" stroke="#7a4531" stroke-width="1.6" stroke-linecap="round"/>
<line x1="71.0" y1="-151.4" x2="-10.9" y2="-148.9" stroke="#7a4531" stroke-width="1.6" stroke-linecap="round"/>
<line x1="87.4" y1="-143.2" x2="5.4" y2="-140.8" stroke="#7a4531" stroke-width="1.6" stroke-linecap="round"/>
<line x1="103.7" y1="-135.1" x2="21.8" y2="-132.6" stroke="#7a4531" stroke-width="1.6" stroke-linecap="round"/>
<line x1="120.0" y1="-126.9" x2="38.1" y2="-124.4" stroke="#7a4531" stroke-width="1.6" stroke-linecap="round"/>
<line x1="136.3" y1="-118.8" x2="54.4" y2="-116.3" stroke="#7a4531" stroke-width="1.6" stroke-linecap="round"/>
<line x1="152.6" y1="-110.6" x2="70.7" y2="-108.1" stroke="#7a4531" stroke-width="1.6" stroke-linecap="round"/>
<line x1="169.0" y1="-102.4" x2="87.0" y2="-100.0" stroke="#7a4531" stroke-width="1.6" stroke-linecap="round"/>
<line x1="185.3" y1="-94.3" x2="103.4" y2="-91.8" stroke="#7a4531" stroke-width="1.6" stroke-linecap="round"/>
<line x1="201.6" y1="-86.1" x2="119.7" y2="-83.6" stroke="#7a4531" stroke-width="1.6" stroke-linecap="round"/>
<line x1="217.9" y1="-78.0" x2="136.0" y2="-75.5" stroke="#7a4531" stroke-width="1.6" stroke-linecap="round"/>
<polygon points="-125.4,-85.8 70.4,12.1 152.3,-67.3 -43.5,-165.2" fill="#e98f5d" stroke="#1e0702" stroke-width="5.0" stroke-linejoin="round"/>
<line x1="-109.1" y1="-101.7" x2="86.8" y2="-3.8" stroke="#7a4531" stroke-width="1.6" stroke-linecap="round"/>
<line x1="-92.7" y1="-117.6" x2="103.2" y2="-19.7" stroke="#7a4531" stroke-width="1.6" stroke-linecap="round"/>
<line x1="-76.3" y1="-133.5" x2="119.6" y2="-35.5" stroke="#7a4531" stroke-width="1.6" stroke-linecap="round"/>
<line x1="-59.9" y1="-149.4" x2="135.9" y2="-51.4" stroke="#7a4531" stroke-width="1.6" stroke-linecap="round"/>
<line x1="-111.5" y1="-78.8" x2="-29.5" y2="-158.2" stroke="#7a4531" stroke-width="1.6" stroke-linecap="round"/>
<line x1="-97.5" y1="-71.8" x2="-15.5" y2="-151.3" stroke="#7a4531" stroke-width="1.6" stroke-linecap="round"/>
<line x1="-83.5" y1="-64.8" x2="-1.6" y2="-144.3" stroke="#7a4531" stroke-width="1.6" stroke-linecap="round"/>
<line x1="-69.5" y1="-57.8" x2="12.4" y2="-137.3" stroke="#7a4531" stroke-width="1.6" stroke-linecap="round"/>
<line x1="-55.5" y1="-50.8" x2="26.4" y2="-130.3" stroke="#7a4531" stroke-width="1.6" stroke-linecap="round"/>
<line x1="-41.5" y1="-43.8" x2="40.4" y2="-123.3" stroke="#7a4531" stroke-width="1.6" stroke-linecap="round"/>
<line x1="-27.5" y1="-36.8" x2="54.4" y2="-116.3" stroke="#7a4531" stroke-width="1.6" stroke-linecap="round"/>
<line x1="-13.5" y1="-29.8" x2="68.4" y2="-109.3" stroke="#7a4531" stroke-width="1.6" stroke-linecap="round"/>
<line x1="0.5" y1="-22.9" x2="82.4" y2="-102.3" stroke="#7a4531" stroke-width="1.6" stroke-linecap="round"/>
<line x1="14.4" y1="-15.9" x2="96.4" y2="-95.3" stroke="#7a4531" stroke-width="1.6" stroke-linecap="round"/>
<line x1="28.4" y1="-8.9" x2="110.4" y2="-88.3" stroke="#7a4531" stroke-width="1.6" stroke-linecap="round"/>
<line x1="42.4" y1="-1.9" x2="124.3" y2="-81.3" stroke="#7a4531" stroke-width="1.6" stroke-linecap="round"/>
<line x1="56.4" y1="5.1" x2="138.3" y2="-74.3" stroke="#7a4531" stroke-width="1.6" stroke-linecap="round"/>
<polygon points="38.4,-167.7 -125.4,-85.8 -43.5,-165.2" fill="#593627" stroke="#1e0702" stroke-width="5.0" stroke-linejoin="round"/>
<polygon points="234.2,-69.8 70.4,12.1 152.3,-67.3" fill="#3f1c0d" stroke="#1e0702" stroke-width="5.0" stroke-linejoin="round"/>
<line x1="-43.5" y1="-165.2" x2="152.3" y2="-67.3" stroke="#7a4531" stroke-width="2.6" stroke-linecap="round"/>
<line x1="-287.6" y1="89.6" x2="-290.6" y2="76.6" stroke="#6e7d48" stroke-width="1.6" stroke-linecap="round"/>
<line x1="-281.6" y1="89.6" x2="-281.6" y2="71.6" stroke="#6e7d48" stroke-width="1.6" stroke-linecap="round"/>
<line x1="-275.6" y1="89.6" x2="-272.6" y2="77.6" stroke="#6e7d48" stroke-width="1.6" stroke-linecap="round"/>
<line x1="269.2" y1="99.2" x2="266.2" y2="86.2" stroke="#6e7d48" stroke-width="1.6" stroke-linecap="round"/>
<line x1="275.2" y1="99.2" x2="275.2" y2="81.2" stroke="#6e7d48" stroke-width="1.6" stroke-linecap="round"/>
<line x1="281.2" y1="99.2" x2="284.2" y2="87.2" stroke="#6e7d48" stroke-width="1.6" stroke-linecap="round"/>
<polygon points="54.4,100.8 76.8,112.0 76.8,63.2 54.4,52.0" fill="#ad8c75" stroke="#1e0702" stroke-width="2.6" stroke-linejoin="round"/>
<polygon points="76.8,112.0 99.2,100.8 99.2,52.0 76.8,63.2" fill="#846859" stroke="#1e0702" stroke-width="2.6" stroke-linejoin="round"/>
<polygon points="76.8,40.8 99.2,52.0 76.8,63.2 54.4,52.0" fill="#d7b791" stroke="#1e0702" stroke-width="2.6" stroke-linejoin="round"/>
<polygon points="5.6,112.0 2.6,99.4 5.6,86.8 32.8,86.8 35.8,99.4 32.8,112.0" fill="#9b7c68" stroke="#1e0702" stroke-width="2.6" stroke-linejoin="round"/>
<ellipse cx="19.2" cy="86.8" rx="13.6" ry="5.7" fill="#6d4d3d" stroke="#1e0702" stroke-width="2.6"/>
<line x1="3.2" y1="104.5" x2="35.2" y2="104.5" stroke="#6b6258" stroke-width="1.6" stroke-linecap="round"/>
<line x1="3.2" y1="94.4" x2="35.2" y2="94.4" stroke="#6b6258" stroke-width="1.6" stroke-linecap="round"/>
<circle cx="147.2" cy="144.6" r="11.6" fill="#6e7d48" stroke="#1e0702" stroke-width="2.6"/>
<circle cx="140.2" cy="148.1" r="8.2" fill="#4d5a36" stroke="#1e0702" stroke-width="1.6"/>
<circle cx="153.6" cy="146.9" r="7.2" fill="#8a9a5c" stroke="#1e0702" stroke-width="1.6"/>
<line x1="-114.8" y1="182.4" x2="-117.8" y2="169.4" stroke="#6e7d48" stroke-width="1.6" stroke-linecap="round"/>
<line x1="-108.8" y1="182.4" x2="-108.8" y2="164.4" stroke="#6e7d48" stroke-width="1.6" stroke-linecap="round"/>
<line x1="-102.8" y1="182.4" x2="-99.8" y2="170.4" stroke="#6e7d48" stroke-width="1.6" stroke-linecap="round"/>
<line x1="45.2" y1="204.8" x2="42.2" y2="191.8" stroke="#6e7d48" stroke-width="1.6" stroke-linecap="round"/>
<line x1="51.2" y1="204.8" x2="51.2" y2="186.8" stroke="#6e7d48" stroke-width="1.6" stroke-linecap="round"/>
<line x1="57.2" y1="204.8" x2="60.2" y2="192.8" stroke="#6e7d48" stroke-width="1.6" stroke-linecap="round"/>
</svg>
