<svg xmlns="http://www.w3.org/2000/svg" viewBox="-640 -760 1280 1120" width="1280" height="1120">
<rect x="-640" y="-760" width="1280" height="1120" fill="#ffffff"/>
<polygon points="-512.0,0.0 0.0,256.0 0.0,263.4 -512.0,7.4" fill="#a2836d" stroke="#765d50" stroke-width="1.6" stroke-linejoin="round"/>
<polygon points="0.0,256.0 512.0,0.0 512.0,7.4 0.0,263.4" fill="#765d50" stroke="#765d50" stroke-width="1.6" stroke-linejoin="round"/>
<polygon points="0.0,-256.0 512.0,0.0 0.0,256.0 -512.0,0.0" fill="#cfa278" stroke="#9b7e69" stroke-width="1.6" stroke-linejoin="round"/>
<ellipse cx="-204.8" cy="-12.8" rx="59.1" ry="29.6" fill="#b7947c" stroke="none" fill-opacity="0.35"/>
<ellipse cx="204.8" cy="0.0" rx="48.4" ry="24.2" fill="#b7947c" stroke="none" fill-opacity="0.35"/>
<ellipse cx="-140.8" cy="70.4" rx="37.6" ry="18.8" fill="#b7947c" stroke="none" fill-opacity="0.35"/>
<ellipse cx="51.2" cy="128.0" rx="43.0" ry="21.5" fill="#b7947c" stroke="none" fill-opacity="0.35"/>
<polygon points="-336.0,-65.6 -224.0,-9.6 -345.6,51.2 -457.6,-4.8" fill="#d7b791" stroke="#1e0702" stroke-width="2.6" stroke-linejoin="round"/>
<polygon points="-384.0,-64.0 128.0,192.0 51.2,230.4 -460.8,-25.6" fill="#b7947c" stroke="#1e0702" stroke-width="2.6" stroke-linejoin="round"/>
<line x1="-298.7" y1="-46.9" x2="-420.3" y2="13.9" stroke="#846859" stroke-width="1.6" stroke-linecap="round"/>
<line x1="-261.3" y1="-28.3" x2="-382.9" y2="32.5" stroke="#846859" stroke-width="1.6" stroke-linecap="round"/>
<line x1="-366.4" y1="-50.4" x2="-254.4" y2="5.6" stroke="#846859" stroke-width="1.6" stroke-linecap="round"/>
<line x1="-396.8" y1="-35.2" x2="-284.8" y2="20.8" stroke="#846859" stroke-width="1.6" stroke-linecap="round"/>
<line x1="-427.2" y1="-20.0" x2="-315.2" y2="36.0" stroke="#846859" stroke-width="1.6" stroke-linecap="round"/>
<line x1="-320.0" y1="-32.0" x2="-396.8" y2="6.4" stroke="#846859" stroke-width="1.6" stroke-linecap="round"/>
<line x1="-256.0" y1="0.0" x2="-332.8" y2="38.4" stroke="#846859" stroke-width="1.6" stroke-linecap="round"/>
<line x1="-192.0" y1="32.0" x2="-268.8" y2="70.4" stroke="#846859" stroke-width="1.6" stroke-linecap="round"/>
<line x1="-128.0" y1="64.0" x2="-204.8" y2="102.4" stroke="#846859" stroke-width="1.6" stroke-linecap="round"/>
<line x1="-64.0" y1="96.0" x2="-140.8" y2="134.4" stroke="#846859" stroke-width="1.6" stroke-linecap="round"/>
<line x1="0.0" y1="128.0" x2="-76.8" y2="166.4" stroke="#846859" stroke-width="1.6" stroke-linecap="round"/>
<line x1="64.0" y1="160.0" x2="-12.8" y2="198.4" stroke="#846859" stroke-width="1.6" stroke-linecap="round"/>
<line x1="128.0" y1="192.0" x2="51.2" y2="230.4" stroke="#846859" stroke-width="1.6" stroke-linecap="round"/>
<line x1="-50.8" y1="-201.6" x2="-53.8" y2="-214.6" stroke="#6e7d48" stroke-width="1.6" stroke-linecap="round"/>
<line x1="-44.8" y1="-201.6" x2="-44.8" y2="-219.6" stroke="#6e7d48" stroke-width="1.6" stroke-linecap="round"/>
<line x1="-38.8" y1="-201.6" x2="-35.8" y2="-213.6" stroke="#6e7d48" stroke-width="1.6" stroke-linecap="round"/>
<circle cx="-115.2" cy="-160.3" r="13.3" fill="#6e7d48" stroke="#1e0702" stroke-width="2.6"/>
<circle cx="-123.2" cy="-156.3" r="9.3" fill="#4d5a36" stroke="#1e0702" stroke-width="1.6"/>
<circle cx="-107.9" cy="-157.6" r="8.3" fill="#8a9a5c" stroke="#1e0702" stroke-width="1.6"/>
<line x1="-230.0" y1="-118.4" x2="-233.0" y2="-131.4" stroke="#6e7d48" stroke-width="1.6" stroke-linecap="round"/>
<line x1="-224.0" y1="-118.4" x2="-224.0" y2="-136.4" stroke="#6e7d48" stroke-width="1.6" stroke-linecap="round"/>
<line x1="-218.0" y1="-118.4" x2="-215.0" y2="-130.4" stroke="#6e7d48" stroke-width="1.6" stroke-linecap="round"/>
<polygon points="-275.2,-22.4 -286.7,-35.7 -283.8,-45.5 -278.7,-52.0 -271.7,-52.0 -266.6,-45.5 -263.7,-35.7" fill="#c4724c" stroke="#1e0702" stroke-width="2.6" stroke-linejoin="round"/>
<ellipse cx="-172.8" cy="-48.0" rx="30.7" ry="15.4" fill="#3f1c0d" stroke="#1e0702" stroke-width="2.6"/>
<line x1="-186.9" y1="-55.1" x2="-186.9" y2="-107.1" stroke="#6d4d3d" stroke-width="2.6" stroke-linecap="round"/>
<line x1="-158.7" y1="-41.0" x2="-158.7" y2="-93.0" stroke="#6d4d3d" stroke-width="2.6" stroke-linecap="round"/>
<line x1="-186.9" y1="-107.1" x2="-158.7" y2="-93.0" stroke="#6d4d3d" stroke-width="2.6" stroke-linecap="round"/>
<polyline points="-279.8,-48.0 -287.9,-43.7 -283.5,-37.2" fill="none" stroke="#95583e" stroke-width="1.6" stroke-linejoin="round" stroke-linecap="round"/>
<polyline points="-270.6,-48.0 -262.5,-43.7 -266.9,-37.2" fill="none" stroke="#95583e" stroke-width="1.6" stroke-linejoin="round" stroke-linecap="round"/>
<polygon points="-208.6,-28.8 -172.8,-10.9 -172.8,-30.1 -208.6,-48.0" fill="#ad8c75" stroke="#1e0702" stroke-width="2.6" stroke-linejoin="round"/>
<polygon points="-172.8,-10.9 -137.0,-28.8 -137.0,-48.0 -172.8,-30.1" fill="#846859" stroke="#1e0702" stroke-width="2.6" stroke-linejoin="round"/>
<polygon points="-172.8,-66.0 -137.0,-48.0 -172.8,-30.1 -208.6,-48.0" fill="#d7b791" stroke="#1e0702" stroke-width="2.6" stroke-linejoin="round"/>
<line x1="-409.2" y1="9.6" x2="-412.2" y2="-3.4" stroke="#6e7d48" stroke-width="1.6" stroke-linecap="round"/>
<line x1="-403.2" y1="9.6" x2="-403.2" y2="-8.4" stroke="#6e7d48" stroke-width="1.6" stroke-linecap="round"/>
<line x1="-397.2" y1="9.6" x2="-394.2" y2="-2.4" stroke="#6e7d48" stroke-width="1.6" stroke-linecap="round"/>
<line x1="403.6" y1="12.8" x2="400.6" y2="-0.2" stroke="#6e7d48" stroke-width="1.6" stroke-linecap="round"/>
<line x1="409.6" y1="12.8" x2="409.6" y2="-5.2" stroke="#6e7d48" stroke-width="1.6" stroke-linecap="round"/>
<line x1="415.6" y1="12.8" x2="418.6" y2="0.8" stroke="#6e7d48" stroke-width="1.6" stroke-linecap="round"/>
<line x1="-80.0" y1="47.8" x2="-36.0" y2="61.8" stroke="#6d4d3d" stroke-width="2.6" stroke-linecap="round"/>
<circle cx="-149.8" cy="36.2" r="17.0" fill="#6d4d3d" stroke="#1e0702" stroke-width="2.6"/>
<circle cx="-105.0" cy="58.6" r="17.0" fill="#6d4d3d" stroke="#1e0702" stroke-width="2.6"/>
<circle cx="-149.8" cy="36.2" r="5.0" fill="#3f1c0d" stroke="#1e0702" stroke-width="1.6"/>
<circle cx="-105.0" cy="58.6" r="5.0" fill="#3f1c0d" stroke="#1e0702" stroke-width="1.6"/>
<polygon points="-153.6,34.4 -96.0,63.2 -96.0,44.0 -153.6,15.2" fill="#6d4d3d" stroke="#1e0702" stroke-width="2.6" stroke-linejoin="round"/>
<polygon points="-96.0,63.2 -64.0,47.2 -64.0,28.0 -96.0,44.0" fill="#593627" stroke="#1e0702" stroke-width="2.6" stroke-linejoin="round"/>
<polygon points="-121.6,-0.8 -64.0,28.0 -96.0,44.0 -153.6,15.2" fill="#9b7c68" stroke="#1e0702" stroke-width="2.6" stroke-linejoin="round"/>
<line x1="-287.6" y1="89.6" x2="-290.6" y2="76.6" stroke="#6e7d48" stroke-width="1.6" stroke-linecap="round"/>
<line x1="-281.6" y1="89.6" x2="-281.6" y2="71.6" stroke="#6e7d48" stroke-width="1.6" stroke-linecap="round"/>
<line x1="-275.6" y1="89.6" x2="-272.6" y2="77.6" stroke="#6e7d48" stroke-width="1.6" stroke-linecap="round"/>
<line x1="-57.6" y1="92.8" x2="-38.4" y2="83.2" stroke="#3f1c0d" stroke-width="1.6" stroke-linecap="round"/>
<line x1="-57.6" y1="73.6" x2="-38.4" y2="102.4" stroke="#3f1c0d" stroke-width="1.6" stroke-linecap="round"/>
<line x1="269.2" y1="99.2" x2="266.2" y2="86.2" stroke="#6e7d48" stroke-width="1.6" stroke-linecap="round"/>
<line x1="275.2" y1="99.2" x2="275.2" y2="81.2" stroke="#6e7d48" stroke-width="1.6" stroke-linecap="round"/>
<line x1="281.2" y1="99.2" x2="284.2" y2="87.2" stroke="#6e7d48" stroke-width="1.6" stroke-linecap="round"/>
<polygon points="-121.6,-73.6 38.4,6.4 38.4,-97.2 -121.6,-177.2" fill="#e7ccab" stroke="#1e0702" stroke-width="5.0" stroke-linejoin="round"/>
<polygon points="38.4,6.4 185.6,-67.2 185.6,-170.8 38.4,-97.2" fill="#cfa278" stroke="#1e0702" stroke-width="5.0" stroke-linejoin="round"/>
<polygon points="25.6,-250.8 185.6,-170.8 38.4,-97.2 -121.6,-177.2" fill="#fadfba" stroke="#1e0702" stroke-width="5.0" stroke-linejoin="round"/>
<line x1="-81.6" y1="-53.6" x2="-81.6" y2="-79.5" stroke="#745b4e" stroke-width="1.6" stroke-linecap="round"/>
<line x1="148.8" y1="-48.8" x2="148.8" y2="-74.7" stroke="#745b4e" stroke-width="1.6" stroke-linecap="round"/>
<line x1="-41.6" y1="-33.6" x2="-41.6" y2="-59.5" stroke="#745b4e" stroke-width="1.6" stroke-linecap="round"/>
<line x1="112.0" y1="-30.4" x2="112.0" y2="-56.3" stroke="#745b4e" stroke-width="1.6" stroke-linecap="round"/>
<line x1="-1.6" y1="-13.6" x2="-1.6" y2="-39.5" stroke="#745b4e" stroke-width="1.6" stroke-linecap="round"/>
<line x1="75.2" y1="-12.0" x2="75.2" y2="-37.9" stroke="#745b4e" stroke-width="1.6" stroke-linecap="round"/>
<line x1="-121.6" y1="-99.5" x2="38.4" y2="-19.5" stroke="#745b4e" stroke-width="1.6" stroke-linecap="round"/>
<line x1="38.4" y1="-19.5" x2="185.6" y2="-93.1" stroke="#745b4e" stroke-width="1.6" stroke-linecap="round"/>
<line x1="-61.6" y1="-69.5" x2="-61.6" y2="-95.4" stroke="#745b4e" stroke-width="1.6" stroke-linecap="round"/>
<line x1="130.4" y1="-65.5" x2="130.4" y2="-91.4" stroke="#745b4e" stroke-width="1.6" stroke-linecap="round"/>
<line x1="-21.6" y1="-49.5" x2="-21.6" y2="-75.4" stroke="#745b4e" stroke-width="1.6" stroke-linecap="round"/>
<line x1="93.6" y1="-47.1" x2="93.6" y2="-73.0" stroke="#745b4e" stroke-width="1.6" stroke-linecap="round"/>
<line x1="18.4" y1="-29.5" x2="18.4" y2="-55.4" stroke="#745b4e" stroke-width="1.6" stroke-linecap="round"/>
<line x1="56.8" y1="-28.7" x2="56.8" y2="-54.6" stroke="#745b4e" stroke-width="1.6" stroke-linecap="round"/>
<line x1="-121.6" y1="-125.4" x2="38.4" y2="-45.4" stroke="#745b4e" stroke-width="1.6" stroke-linecap="round"/>
<line x1="38.4" y1="-45.4" x2="185.6" y2="-119.0" stroke="#745b4e" stroke-width="1.6" stroke-linecap="round"/>
<line x1="-81.6" y1="-105.4" x2="-81.6" y2="-131.3" stroke="#745b4e" stroke-width="1.6" stroke-linecap="round"/>
<line x1="148.8" y1="-100.6" x2="148.8" y2="-126.5" stroke="#745b4e" stroke-width="1.6" stroke-linecap="round"/>
<line x1="-41.6" y1="-85.4" x2="-41.6" y2="-111.3" stroke="#745b4e" stroke-width="1.6" stroke-linecap="round"/>
<line x1="112.0" y1="-82.2" x2="112.0" y2="-108.1" stroke="#745b4e" stroke-width="1.6" stroke-linecap="round"/>
<line x1="-1.6" y1="-65.4" x2="-1.6" y2="-91.3" stroke="#745b4e" stroke-width="1.6" stroke-linecap="round"/>
<line x1="75.2" y1="-63.8" x2="75.2" y2="-89.7" stroke="#745b4e" stroke-width="1.6" stroke-linecap="round"/>
<line x1="-121.6" y1="-151.3" x2="38.4" y2="-71.3" stroke="#745b4e" stroke-width="1.6" stroke-linecap="round"/>
<line x1="38.4" y1="-71.3" x2="185.6" y2="-144.9" stroke="#745b4e" stroke-width="1.6" stroke-linecap="round"/>
<line x1="-61.6" y1="-121.3" x2="-61.6" y2="-147.2" stroke="#745b4e" stroke-width="1.6" stroke-linecap="round"/>
<line x1="130.4" y1="-117.3" x2="130.4" y2="-143.2" stroke="#745b4e" stroke-width="1.6" stroke-linecap="round"/>
<line x1="-21.6" y1="-101.3" x2="-21.6" y2="-127.2" stroke="#745b4e" stroke-width="1.6" stroke-linecap="round"/>
<line x1="93.6" y1="-98.9" x2="93.6" y2="-124.8" stroke="#745b4e" stroke-width="1.6" stroke-linecap="round"/>
<line x1="18.4" y1="-81.3" x2="18.4" y2="-107.2" stroke="#745b4e" stroke-width="1.6" stroke-linecap="round"/>
<line x1="56.8" y1="-80.5" x2="56.8" y2="-106.4" stroke="#745b4e" stroke-width="1.6" stroke-linecap="round"/>
<polygon points="-63.4,-44.5 -63.4,-89.0 -63.4,-89.0 -61.9,-104.1 -57.5,-117.4 -50.9,-127.3 -42.7,-132.6 -34.1,-132.6 -25.9,-127.3 -19.3,-117.4 -14.9,-104.1 -13.4,-89.0 -13.4,-89.0 -13.4,-19.5" fill="#3f1c0d" stroke="#1e0702" stroke-width="2.6" stroke-linejoin="round"/>
<polyline points="-63.4,-89.0 -63.4,-89.0 -61.9,-104.1 -57.5,-117.4 -50.9,-127.3 -42.7,-132.6 -34.1,-132.6 -25.9,-127.3 -19.3,-117.4 -14.9,-104.1 -13.4,-89.0 -13.4,-89.0" fill="none" stroke="#d7b791" stroke-width="2.6" stroke-linejoin="round" stroke-linecap="round"/>
<polygon points="25.6,-270.0 224.0,-170.8 54.4,-208.7 9.6,-231.1" fill="#95583e" stroke="#1e0702" stroke-width="5.0" stroke-linejoin="round"/>
<line x1="21.6" y1="-260.3" x2="181.6" y2="-180.3" stroke="#7a4531" stroke-width="1.6" stroke-linecap="round"/>
<line x1="17.6" y1="-250.5" x2="139.2" y2="-189.7" stroke="#7a4531" stroke-width="1.6" stroke-linecap="round"/>
<line x1="13.6" y1="-240.8" x2="96.8" y2="-199.2" stroke="#7a4531" stroke-width="1.6" stroke-linecap="round"/>
<line x1="43.6" y1="-261.0" x2="13.7" y2="-229.0" stroke="#7a4531" stroke-width="1.6" stroke-linecap="round"/>
<line x1="61.7" y1="-252.0" x2="17.7" y2="-227.0" stroke="#7a4531" stroke-width="1.6" stroke-linecap="round"/>
<line x1="79.7" y1="-242.9" x2="21.8" y2="-225.0" stroke="#7a4531" stroke-width="1.6" stroke-linecap="round"/>
<line x1="97.7" y1="-233.9" x2="25.9" y2="-222.9" stroke="#7a4531" stroke-width="1.6" stroke-linecap="round"/>
<line x1="115.8" y1="-224.9" x2="30.0" y2="-220.9" stroke="#7a4531" stroke-width="1.6" stroke-linecap="round"/>
<line x1="133.8" y1="-215.9" x2="34.0" y2="-218.9" stroke="#7a4531" stroke-width="1.6" stroke-linecap="round"/>
<line x1="151.9" y1="-206.9" x2="38.1" y2="-216.8" stroke="#7a4531" stroke-width="1.6" stroke-linecap="round"/>
<line x1="169.9" y1="-197.9" x2="42.2" y2="-214.8" stroke="#7a4531" stroke-width="1.6" stroke-linecap="round"/>
<line x1="187.9" y1="-188.8" x2="46.3" y2="-212.8" stroke="#7a4531" stroke-width="1.6" stroke-linecap="round"/>
<line x1="206.0" y1="-179.8" x2="50.3" y2="-210.7" stroke="#7a4531" stroke-width="1.6" stroke-linecap="round"/>
<polygon points="25.6,-270.0 -160.0,-177.2 9.6,-231.1" fill="#c4724c" stroke="#1e0702" stroke-width="5.0" stroke-linejoin="round"/>
<polygon points="224.0,-170.8 38.4,-78.0 54.4,-208.7" fill="#895039" stroke="#1e0702" stroke-width="5.0" stroke-linejoin="round"/>
<polygon points="-160.0,-177.2 38.4,-78.0 54.4,-208.7 9.6,-231.1" fill="#e98f5d" stroke="#1e0702" stroke-width="5.0" stroke-linejoin="round"/>
<line x1="-126.1" y1="-188.0" x2="41.6" y2="-104.1" stroke="#7a4531" stroke-width="1.6" stroke-linecap="round"/>
<line x1="-92.2" y1="-198.8" x2="44.8" y2="-130.3" stroke="#7a4531" stroke-width="1.6" stroke-linecap="round"/>
<line x1="-58.2" y1="-209.5" x2="48.0" y2="-156.4" stroke="#7a4531" stroke-width="1.6" stroke-linecap="round"/>
<line x1="-24.3" y1="-220.3" x2="51.2" y2="-182.5" stroke="#7a4531" stroke-width="1.6" stroke-linecap="round"/>
<line x1="-144.7" y1="-169.6" x2="13.0" y2="-229.4" stroke="#7a4531" stroke-width="1.6" stroke-linecap="round"/>
<line x1="-129.5" y1="-161.9" x2="16.5" y2="-227.6" stroke="#7a4531" stroke-width="1.6" stroke-linecap="round"/>
<line x1="-114.2" y1="-154.3" x2="19.9" y2="-225.9" stroke="#7a4531" stroke-width="1.6" stroke-linecap="round"/>
<line x1="-99.0" y1="-146.7" x2="23.4" y2="-224.2" stroke="#7a4531" stroke-width="1.6" stroke-linecap="round"/>
<line x1="-83.7" y1="-139.0" x2="26.8" y2="-222.5" stroke="#7a4531" stroke-width="1.6" stroke-linecap="round"/>
<line x1="-68.4" y1="-131.4" x2="30.3" y2="-220.7" stroke="#7a4531" stroke-width="1.6" stroke-linecap="round"/>
<line x1="-53.2" y1="-123.8" x2="33.7" y2="-219.0" stroke="#7a4531" stroke-width="1.6" stroke-linecap="round"/>
<line x1="-37.9" y1="-116.2" x2="37.2" y2="-217.3" stroke="#7a4531" stroke-width="1.6" stroke-linecap="round"/>
<line x1="-22.6" y1="-108.5" x2="40.6" y2="-215.6" stroke="#7a4531" stroke-width="1.6" stroke-linecap="round"/>
<line x1="-7.4" y1="-100.9" x2="44.1" y2="-213.8" stroke="#7a4531" stroke-width="1.6" stroke-linecap="round"/>
<line x1="7.9" y1="-93.3" x2="47.5" y2="-212.1" stroke="#7a4531" stroke-width="1.6" stroke-linecap="round"/>
<line x1="23.1" y1="-85.6" x2="51.0" y2="-210.4" stroke="#7a4531" stroke-width="1.6" stroke-linecap="round"/>
<line x1="9.6" y1="-231.1" x2="54.4" y2="-208.7" stroke="#7a4531" stroke-width="2.6" stroke-linecap="round"/>
<polygon points="19.2,48.0 128.0,102.4 128.0,21.0 19.2,-33.4" fill="#e7ccab" stroke="#1e0702" stroke-width="5.0" stroke-linejoin="round"/>
<polygon points="128.0,102.4 313.6,9.6 313.6,-71.8 128.0,21.0" fill="#cfa278" stroke="#1e0702" stroke-width="5.0" stroke-linejoin="round"/>
<polygon points="204.8,-126.2 313.6,-71.8 128.0,21.0 19.2,-33.4" fill="#fadfba" stroke="#1e0702" stroke-width="5.0" stroke-linejoin="round"/>
<line x1="46.4" y1="61.6" x2="46.4" y2="34.5" stroke="#745b4e" stroke-width="1.6" stroke-linecap="round"/>
<line x1="267.2" y1="32.8" x2="267.2" y2="5.7" stroke="#745b4e" stroke-width="1.6" stroke-linecap="round"/>
<line x1="73.6" y1="75.2" x2="73.6" y2="48.1" stroke="#745b4e" stroke-width="1.6" stroke-linecap="round"/>
<line x1="220.8" y1="56.0" x2="220.8" y2="28.9" stroke="#745b4e" stroke-width="1.6" stroke-linecap="round"/>
<line x1="100.8" y1="88.8" x2="100.8" y2="61.7" stroke="#745b4e" stroke-width="1.6" stroke-linecap="round"/>
<line x1="174.4" y1="79.2" x2="174.4" y2="52.1" stroke="#745b4e" stroke-width="1.6" stroke-linecap="round"/>
<line x1="19.2" y1="20.9" x2="128.0" y2="75.3" stroke="#745b4e" stroke-width="1.6" stroke-linecap="round"/>
<line x1="128.0" y1="75.3" x2="313.6" y2="-17.5" stroke="#745b4e" stroke-width="1.6" stroke-linecap="round"/>
<line x1="60.0" y1="41.3" x2="60.0" y2="14.1" stroke="#745b4e" stroke-width="1.6" stroke-linecap="round"/>
<line x1="244.0" y1="17.3" x2="244.0" y2="-9.9" stroke="#745b4e" stroke-width="1.6" stroke-linecap="round"/>
<line x1="87.2" y1="54.9" x2="87.2" y2="27.7" stroke="#745b4e" stroke-width="1.6" stroke-linecap="round"/>
<line x1="197.6" y1="40.5" x2="197.6" y2="13.3" stroke="#745b4e" stroke-width="1.6" stroke-linecap="round"/>
<line x1="114.4" y1="68.5" x2="114.4" y2="41.3" stroke="#745b4e" stroke-width="1.6" stroke-linecap="round"/>
<line x1="151.2" y1="63.7" x2="151.2" y2="36.5" stroke="#745b4e" stroke-width="1.6" stroke-linecap="round"/>
<line x1="19.2" y1="-6.3" x2="128.0" y2="48.1" stroke="#745b4e" stroke-width="1.6" stroke-linecap="round"/>
<line x1="128.0" y1="48.1" x2="313.6" y2="-44.7" stroke="#745b4e" stroke-width="1.6" stroke-linecap="round"/>
<line x1="46.4" y1="7.3" x2="46.4" y2="-19.8" stroke="#745b4e" stroke-width="1.6" stroke-linecap="round"/>
<line x1="267.2" y1="-21.5" x2="267.2" y2="-48.6" stroke="#745b4e" stroke-width="1.6" stroke-linecap="round"/>
<line x1="73.6" y1="20.9" x2="73.6" y2="-6.2" stroke="#745b4e" stroke-width="1.6" stroke-linecap="round"/>
<line x1="220.8" y1="1.7" x2="220.8" y2="-25.4" stroke="#745b4e" stroke-width="1.6" stroke-linecap="round"/>
<line x1="100.8" y1="34.5" x2="100.8" y2="7.4" stroke="#745b4e" stroke-width="1.6" stroke-linecap="round"/>
<line x1="174.4" y1="24.9" x2="174.4" y2="-2.2" stroke="#745b4e" stroke-width="1.6" stroke-linecap="round"/>
<polygon points="157.4,-41.6 188.2,-41.6 188.2,-123.0 157.4,-123.0" fill="#ad8c75" stroke="#1e0702" stroke-width="2.6" stroke-linejoin="round"/>
<polygon points="172.8,-41.6 188.2,-41.6 188.2,-123.0 172.8,-123.0" fill="#846859" stroke="none"/>
<line x1="165.9" y1="-45.6" x2="165.9" y2="-117.0" stroke="#8d725f" stroke-width="1.6" stroke-linecap="round"/>
<line x1="174.3" y1="-45.6" x2="174.3" y2="-117.0" stroke="#8d725f" stroke-width="1.6" stroke-linecap="round"/>
<ellipse cx="172.8" cy="-123.0" rx="16.1" ry="6.5" fill="#d7b791" stroke="#1e0702" stroke-width="2.6"/>
<polygon points="152.8,-126.1 192.8,-126.1 192.8,-134.5 152.8,-134.5" fill="#d7b791" stroke="#1e0702" stroke-width="2.6" stroke-linejoin="round"/>
<polygon points="153.6,-38.5 192.0,-38.5 192.0,-46.2 153.6,-46.2" fill="#ad8c75" stroke="#1e0702" stroke-width="2.6" stroke-linejoin="round"/>
<polygon points="103.0,-14.4 133.8,-14.4 133.8,-95.8 103.0,-95.8" fill="#ad8c75" stroke="#1e0702" stroke-width="2.6" stroke-linejoin="round"/>
<polygon points="118.4,-14.4 133.8,-14.4 133.8,-95.8 118.4,-95.8" fill="#846859" stroke="none"/>
<line x1="111.5" y1="-18.4" x2="111.5" y2="-89.8" stroke="#8d725f" stroke-width="1.6" stroke-linecap="round"/>
<line x1="119.9" y1="-18.4" x2="119.9" y2="-89.8" stroke="#8d725f" stroke-width="1.6" stroke-linecap="round"/>
<ellipse cx="118.4" cy="-95.8" rx="16.1" ry="6.5" fill="#d7b791" stroke="#1e0702" stroke-width="2.6"/>
<polygon points="98.4,-98.9 138.4,-98.9 138.4,-107.3 98.4,-107.3" fill="#d7b791" stroke="#1e0702" stroke-width="2.6" stroke-linejoin="round"/>
<polygon points="99.2,-11.3 137.6,-11.3 137.6,-19.0 99.2,-19.0" fill="#ad8c75" stroke="#1e0702" stroke-width="2.6" stroke-linejoin="round"/>
<polygon points="48.6,12.8 79.4,12.8 79.4,-68.6 48.6,-68.6" fill="#ad8c75" stroke="#1e0702" stroke-width="2.6" stroke-linejoin="round"/>
<polygon points="64.0,12.8 79.4,12.8 79.4,-68.6 64.0,-68.6" fill="#846859" stroke="none"/>
<line x1="57.1" y1="8.8" x2="57.1" y2="-62.6" stroke="#8d725f" stroke-width="1.6" stroke-linecap="round"/>
<line x1="65.5" y1="8.8" x2="65.5" y2="-62.6" stroke="#8d725f" stroke-width="1.6" stroke-linecap="round"/>
<ellipse cx="64.0" cy="-68.6" rx="16.1" ry="6.5" fill="#d7b791" stroke="#1e0702" stroke-width="2.6"/>
<polygon points="44.0,-71.7 84.0,-71.7 84.0,-80.1 44.0,-80.1" fill="#d7b791" stroke="#1e0702" stroke-width="2.6" stroke-linejoin="round"/>
<polygon points="44.8,15.9 83.2,15.9 83.2,8.2 44.8,8.2" fill="#ad8c75" stroke="#1e0702" stroke-width="2.6" stroke-linejoin="round"/>
<polygon points="-5.8,40.0 25.0,40.0 25.0,-41.4 -5.8,-41.4" fill="#ad8c75" stroke="#1e0702" stroke-width="2.6" stroke-linejoin="round"/>
<polygon points="9.6,40.0 25.0,40.0 25.0,-41.4 9.6,-41.4" fill="#846859" stroke="none"/>
<line x1="2.7" y1="36.0" x2="2.7" y2="-35.4" stroke="#8d725f" stroke-width="1.6" stroke-linecap="round"/>
<line x1="11.1" y1="36.0" x2="11.1" y2="-35.4" stroke="#8d725f" stroke-width="1.6" stroke-linecap="round"/>
<ellipse cx="9.6" cy="-41.4" rx="16.1" ry="6.5" fill="#d7b791" stroke="#1e0702" stroke-width="2.6"/>
<polygon points="-10.4,-44.5 29.6,-44.5 29.6,-52.9 -10.4,-52.9" fill="#d7b791" stroke="#1e0702" stroke-width="2.6" stroke-linejoin="round"/>
<polygon points="-9.6,43.1 28.8,43.1 28.8,35.4 -9.6,35.4" fill="#ad8c75" stroke="#1e0702" stroke-width="2.6" stroke-linejoin="round"/>
<polygon points="204.8,-144.1 -16.6,-33.4 55.7,-37.9 277.1,-148.7" fill="#c4724c" stroke="#1e0702" stroke-width="5.0" stroke-linejoin="round"/>
<line x1="222.9" y1="-145.3" x2="1.4" y2="-34.5" stroke="#7a4531" stroke-width="1.6" stroke-linecap="round"/>
<line x1="241.0" y1="-146.4" x2="19.5" y2="-35.7" stroke="#7a4531" stroke-width="1.6" stroke-linecap="round"/>
<line x1="259.0" y1="-147.5" x2="37.6" y2="-36.8" stroke="#7a4531" stroke-width="1.6" stroke-linecap="round"/>
<line x1="186.3" y1="-134.9" x2="258.7" y2="-139.4" stroke="#7a4531" stroke-width="1.6" stroke-linecap="round"/>
<line x1="167.9" y1="-125.7" x2="240.2" y2="-130.2" stroke="#7a4531" stroke-width="1.6" stroke-linecap="round"/>
<line x1="149.4" y1="-116.4" x2="221.8" y2="-121.0" stroke="#7a4531" stroke-width="1.6" stroke-linecap="round"/>
<line x1="131.0" y1="-107.2" x2="203.3" y2="-111.8" stroke="#7a4531" stroke-width="1.6" stroke-linecap="round"/>
<line x1="112.5" y1="-98.0" x2="184.9" y2="-102.5" stroke="#7a4531" stroke-width="1.6" stroke-linecap="round"/>
<line x1="94.1" y1="-88.8" x2="166.4" y2="-93.3" stroke="#7a4531" stroke-width="1.6" stroke-linecap="round"/>
<line x1="75.6" y1="-79.5" x2="147.9" y2="-84.1" stroke="#7a4531" stroke-width="1.6" stroke-linecap="round"/>
<line x1="57.2" y1="-70.3" x2="129.5" y2="-74.8" stroke="#7a4531" stroke-width="1.6" stroke-linecap="round"/>
<line x1="38.7" y1="-61.1" x2="111.0" y2="-65.6" stroke="#7a4531" stroke-width="1.6" stroke-linecap="round"/>
<line x1="20.3" y1="-51.9" x2="92.6" y2="-56.4" stroke="#7a4531" stroke-width="1.6" stroke-linecap="round"/>
<line x1="1.8" y1="-42.6" x2="74.1" y2="-47.2" stroke="#7a4531" stroke-width="1.6" stroke-linecap="round"/>
<polygon points="349.4,-71.8 128.0,38.9 55.7,-37.9 277.1,-148.7" fill="#95583e" stroke="#1e0702" stroke-width="5.0" stroke-linejoin="round"/>
<line x1="335.0" y1="-87.2" x2="113.5" y2="23.5" stroke="#7a4531" stroke-width="1.6" stroke-linecap="round"/>
<line x1="320.5" y1="-102.5" x2="99.1" y2="8.2" stroke="#7a4531" stroke-width="1.6" stroke-linecap="round"/>
<line x1="306.0" y1="-117.9" x2="84.6" y2="-7.2" stroke="#7a4531" stroke-width="1.6" stroke-linecap="round"/>
<line x1="291.6" y1="-133.3" x2="70.1" y2="-22.6" stroke="#7a4531" stroke-width="1.6" stroke-linecap="round"/>
<line x1="333.6" y1="-63.9" x2="261.3" y2="-140.8" stroke="#7a4531" stroke-width="1.6" stroke-linecap="round"/>
<line x1="317.8" y1="-56.0" x2="245.5" y2="-132.8" stroke="#7a4531" stroke-width="1.6" stroke-linecap="round"/>
<line x1="302.0" y1="-48.1" x2="229.7" y2="-124.9" stroke="#7a4531" stroke-width="1.6" stroke-linecap="round"/>
<line x1="286.2" y1="-40.2" x2="213.9" y2="-117.0" stroke="#7a4531" stroke-width="1.6" stroke-linecap="round"/>
<line x1="270.4" y1="-32.3" x2="198.0" y2="-109.1" stroke="#7a4531" stroke-width="1.6" stroke-linecap="round"/>
<line x1="254.5" y1="-24.3" x2="182.2" y2="-101.2" stroke="#7a4531" stroke-width="1.6" stroke-linecap="round"/>
<line x1="238.7" y1="-16.4" x2="166.4" y2="-93.3" stroke="#7a4531" stroke-width="1.6" stroke-linecap="round"/>
<line x1="222.9" y1="-8.5" x2="150.6" y2="-85.4" stroke="#7a4531" stroke-width="1.6" stroke-linecap="round"/>
<line x1="207.1" y1="-0.6" x2="134.8" y2="-77.5" stroke="#7a4531" stroke-width="1.6" stroke-linecap="round"/>
<line x1="191.3" y1="7.3" x2="118.9" y2="-69.6" stroke="#7a4531" stroke-width="1.6" stroke-linecap="round"/>
<line x1="175.5" y1="15.2" x2="103.1" y2="-61.7" stroke="#7a4531" stroke-width="1.6" stroke-linecap="round"/>
<line x1="159.6" y1="23.1" x2="87.3" y2="-53.8" stroke="#7a4531" stroke-width="1.6" stroke-linecap="round"/>
<line x1="143.8" y1="31.0" x2="71.5" y2="-45.8" stroke="#7a4531" stroke-width="1.6" stroke-linecap="round"/>
<polygon points="204.8,-144.1 349.4,-71.8 277.1,-148.7" fill="#fadfba" stroke="#1e0702" stroke-width="5.0" stroke-linejoin="round"/>
<polygon points="-16.6,-33.4 128.0,38.9 55.7,-37.9" fill="#e7ccab" stroke="#1e0702" stroke-width="5.0" stroke-linejoin="round"/>
<line x1="277.1" y1="-148.7" x2="55.7" y2="-37.9" stroke="#7a4531" stroke-width="2.6" stroke-linecap="round"/>
<polygon points="-57.6,92.8 -38.4,102.4 -38.4,83.2 -57.6,73.6" fill="#6d4d3d" stroke="#1e0702" stroke-width="2.6" stroke-linejoin="round"/>
<polygon points="-38.4,102.4 -19.2,92.8 -19.2,73.6 -38.4,83.2" fill="#593627" stroke="#1e0702" stroke-width="2.6" stroke-linejoin="round"/>
<polygon points="-38.4,64.0 -19.2,73.6 -38.4,83.2 -57.6,73.6" fill="#9b7c68" stroke="#1e0702" stroke-width="2.6" stroke-linejoin="round"/>
<polygon points="41.6,120.0 64.0,131.2 64.0,76.4 41.6,65.2" fill="#ad8c75" stroke="#1e0702" stroke-width="2.6" stroke-linejoin="round"/>
<polygon points="64.0,131.2 86.4,120.0 86.4,65.2 64.0,76.4" fill="#846859" stroke="#1e0702" stroke-width="2.6" stroke-linejoin="round"/>
<polygon points="64.0,54.0 86.4,65.2 64.0,76.4 41.6,65.2" fill="#d7b791" stroke="#1e0702" stroke-width="2.6" stroke-linejoin="round"/>
<polygon points="50.4,140.8 47.4,128.2 50.4,115.6 77.6,115.6 80.6,128.2 77.6,140.8" fill="#9b7c68" stroke="#1e0702" stroke-width="2.6" stroke-linejoin="round"/>
<ellipse cx="64.0" cy="115.6" rx="13.6" ry="5.7" fill="#6d4d3d" stroke="#1e0702" stroke-width="2.6"/>
<line x1="48.0" y1="133.3" x2="80.0" y2="133.3" stroke="#6b6258" stroke-width="1.6" stroke-linecap="round"/>
<line x1="48.0" y1="123.2" x2="80.0" y2="123.2" stroke="#6b6258" stroke-width="1.6" stroke-linecap="round"/>
<circle cx="147.2" cy="144.6" r="11.6" fill="#6e7d48" stroke="#1e0702" stroke-width="2.6"/>
<circle cx="140.2" cy="148.1" r="8.2" fill="#4d5a36" stroke="#1e0702" stroke-width="1.6"/>
<circle cx="153.6" cy="146.9" r="7.2" fill="#8a9a5c" stroke="#1e0702" stroke-width="1.6"/>
<line x1="-114.8" y1="182.4" x2="-117.8" y2="169.4" stroke="#6e7d48" stroke-width="1.6" stroke-linecap="round"/>
<line x1="-108.8" y1="182.4" x2="-108.8" y2="164.4" stroke="#6e7d48" stroke-width="1.6" stroke-linecap="round"/>
<line x1="-102.8" y1="182.4" x2="-99.8" y2="170.4" stroke="#6e7d48" stroke-width="1.6" stroke-linecap="round"/>
<line x1="45.2" y1="204.8" x2="42.2" y2="191.8" stroke="#6e7d48" stroke-width="1.6" stroke-linecap="round"/>
<line x1="51.2" y1="204.8" x2="51.2" y2="186.8" stroke="#6e7d48" stroke-width="1.6" stroke-linecap="round"/>
<line x1="57.2" y1="204.8" x2="60.2" y2="192.8" stroke="#6e7d48" stroke-width="1.6" stroke-linecap="round"/>
</svg>
